SplineFontDB: 3.2
FontName: Octicons-Light
FullName: Octicons
FamilyName: Octicons
Weight: Light
Copyright: 
UComments: "2020-6-11: Created with FontForge (http://fontforge.org)"
Version: 10
ItalicAngle: 0
UnderlinePosition: -100
UnderlineWidth: 50
Ascent: 800
Descent: 200
InvalidEm: 0
LayerCount: 2
Layer: 0 0 "Back" 1
Layer: 1 0 "Fore" 0
XUID: [1021 214 -1571244977 13963]
StyleMap: 0x0000
FSType: 0
OS2Version: 0
OS2_WeightWidthSlopeOnly: 0
OS2_UseTypoMetrics: 1
CreationTime: 1591890911
ModificationTime: 1592056831
OS2TypoAscent: 0
OS2TypoAOffset: 1
OS2TypoDescent: 0
OS2TypoDOffset: 1
OS2TypoLinegap: 90
OS2WinAscent: 0
OS2WinAOffset: 1
OS2WinDescent: 0
OS2WinDOffset: 1
HheadAscent: 0
HheadAOffset: 1
HheadDescent: 0
HheadDOffset: 1
MarkAttachClasses: 1
DEI: 91125
Encoding: UnicodeBmp
UnicodeInterp: none
NameList: AGL For New Fonts
DisplaySize: -48
AntiAlias: 1
FitToEm: 0
WidthSeparation: 150
WinInfo: 61959 19 13
BeginPrivate: 0
EndPrivate
BeginChars: 65536 239

StartChar: heart
Encoding: 9829 9829 0
Width: 1000
Flags: W
LayerCount: 2
Fore
SplineSet
15 456.25 m 0
 15 380.31086328 38.9494496288 309.654422248 76.1669975331 245.414569538 c 0
 122.663232128 165.159113976 189.789040122 95.6277165519 252.586829288 41.4646233964 c 0
 321.511935664 -17.4557820891 395.657045259 -69.0897561088 475.381503767 -113.4751801 c 0
 482.325930538 -117.315308372 489.701036227 -122.483398438 499.952148438 -122.483398438 c 0
 509.118552696 -122.483398438 514.137926173 -119.201645249 517.476822384 -117.462105366 c 0
 523.426030586 -114.362612515 529.324306236 -111.123655327 535.115474836 -107.778258591 c 0
 610.904258432 -64.5955582987 681.49401752 -14.8851705423 747.331149548 41.4990438499 c 0
 810.195349899 95.6605454551 877.285378667 165.136063373 923.8060423 245.401670679 c 0
 961.043191922 309.649731546 985 380.312954145 985 456.25 c 0
 985 614.541625245 861.269989359 722.5 734.375 722.5 c 0
 651.445541332 722.5 577.67626188 683.545969788 527.013374056 622.112595075 c 2
 500 589.356413935 l 1
 472.986625944 622.112595075 l 2
 422.32373812 683.545969788 348.554458668 722.5 265.625 722.5 c 0
 138.730010641 722.5 15 614.541625245 15 456.25 c 0
EndSplineSet
Validated: 524297
EndChar

StartChar: uniF000
Encoding: 61440 61440 1
Width: 1000
VWidth: 13300
Flags: W
LayerCount: 2
Fore
SplineSet
500 721.25 m 0
 568.588694712 721.25 628.75546711 699.624940938 674.480914253 662.721282849 c 0
 731.703521837 616.538606086 765 547.447549659 765 471.875 c 0
 765 401.388644462 733.221570686 358.522614662 699.97810894 318.34036541 c 0
 681.678688254 295.951102852 661.491165485 273.655708654 645.378767307 250.493516565 c 0
 628.380505288 225.902672589 613.899878282 197.861222849 609.089431544 163.907971062 c 0
 608.900270247 162.543827093 608.810546875 161.005850814 608.810546875 159.435546875 c 0
 608.810546875 141.83570796 623.08570796 127.560546875 640.685546875 127.560546875 c 0
 656.714053219 127.560546875 670.027170877 139.440728325 672.222710637 154.853258348 c 0
 678.114309625 196.372595419 710.718499771 232.071076899 734.743751891 260.513129155 c 0
 778.908578469 312.797213381 828.75 371.397050037 828.75 471.875 c 0
 828.75 646.970868008 688.391043758 785 500 785 c 0
 311.608956242 785 171.25 646.970868008 171.25 471.875 c 0
 171.25 369.634802294 222.722832047 311.376971335 267.366659827 257.945810004 c 0
 290.929623595 231.242864159 321.813750195 194.968622671 327.769461252 155.310439126 c 0
 330.746667223 140.157286602 343.614687602 129.1484375 359.130859375 129.1484375 c 0
 376.721226067 129.1484375 391.005859375 143.47204288 391.005859375 161.0234375 c 0
 391.005859375 161.97710169 390.952474474 163.198878078 390.863071635 164.175166123 c 0
 385.934185629 198.13561787 371.53460779 226.025358842 354.595807123 250.530182613 c 0
 321.608742974 297.950356062 273.853505803 338.733346204 250.172815655 394.619660709 c 0
 240.467434906 417.524312455 235 443.084146238 235 471.875 c 0
 235 547.447549659 268.296478163 616.538606086 325.519085747 662.721282849 c 0
 371.24453289 699.624940938 431.411305288 721.25 500 721.25 c 0
390 -153.125 m 0
 390 -170.724838915 404.275161085 -185 421.875 -185 c 2
 578.125 -185 l 2
 595.724838915 -185 610 -170.724838915 610 -153.125 c 0
 610 -135.525161085 595.724838915 -121.25 578.125 -121.25 c 2
 421.875 -121.25 l 2
 404.275161085 -121.25 390 -135.525161085 390 -153.125 c 0
359.375 65 m 2
 640.625 65 l 2
 674.775546685 65 702.5 37.2755466852 702.5 3.125 c 0
 702.5 -31.0255466852 674.775546685 -58.75 640.625 -58.75 c 2
 359.375 -58.75 l 2
 325.224453315 -58.75 297.5 -31.0255466852 297.5 3.125 c 0
 297.5 37.2755466852 325.224453315 65 359.375 65 c 2
EndSplineSet
Validated: 524297
EndChar

StartChar: uniF001
Encoding: 61441 61441 2
Width: 1000
VWidth: 13292
Flags: W
LayerCount: 2
Fore
SplineSet
140 636.0625 m 2
 140 73.37890625 l 2
 140 34.9829603904 155.394030536 0.114664548486 180.326429679 -25.3137348892 c 0
 186.200395569 -31.2716145781 194.279871039 -34.912109375 203.125 -34.912109375 c 0
 220.701936912 -34.912109375 235 -20.5998188251 235 -2.9755859375 c 0
 235 5.74335091305 231.539140203 13.603136865 225.949963948 19.2751644385 c 0
 212.245710717 33.2822874817 203.75 52.5274333491 203.75 73.5625 c 0
 203.75 116.330635045 238.481864955 151.0625 281.25 151.0625 c 2
 796.25 151.0625 l 1
 796.25 -3.9375 l 1
 671.875 -3.9375 l 2
 654.275161085 -3.9375 640 -18.2126610848 640 -35.8125 c 0
 640 -53.4123389152 654.275161085 -67.6875 671.875 -67.6875 c 2
 828.125 -67.6875 l 2
 845.724838915 -67.6875 860 -53.4123389152 860 -35.8125 c 2
 860 745.4375 l 2
 860 763.037338915 845.724838915 777.3125 828.125 777.3125 c 2
 281.25 777.3125 l 2
 203.286333971 777.3125 140 714.026166029 140 636.0625 c 2
796.25 214.8125 m 1
 281.25 214.8125 l 2
 269.477651975 214.8125 258.06858685 213.380082232 247.175630032 210.683800013 c 2
 203.75 199.934858651 l 1
 203.75 636.0625 l 2
 203.75 678.830635045 238.481864955 713.5625 281.25 713.5625 c 2
 796.25 713.5625 l 1
 796.25 214.8125 l 1
437.5 -132.904296875 m 0
 437.40325878 -132.904296875 437.192445102 -132.946959296 437.087978862 -133.02471608 c 2
 297.5 -237.715204171 l 1
 297.5 57.3125 l 1
 577.5 57.3125 l 1
 577.499906511 -237.714982458 l 1
 437.955987614 -133.05756598 l 2
 437.750700164 -132.904765497 437.751599366 -132.904296875 437.5 -132.904296875 c 0
EndSplineSet
Validated: 524297
EndChar

StartChar: uniF002
Encoding: 61442 61442 3
Width: 1000
VWidth: 13238
Flags: W
LayerCount: 2
Fore
SplineSet
391.212478813 598.807462861 m 0
 391.212478813 629.923478354 379.066567345 657.41774828 352.7138375 683.770478125 c 0
 327.031301935 709.842143016 297.903472548 722.318239796 266.688706499 722.318239796 c 0
 252.199976143 722.318239796 236.92987793 719.634578095 220.89085092 714.005287388 c 0
 209.849999122 709.931952889 188.731410054 695.413567873 175.397765499 681.500197991 c 0
 151.273732695 655.957104434 140.037117072 625.861171955 140.037117072 596.472582418 c 0
 140.037117072 555.262068173 162.231971401 514.333009676 205.731020469 487.666260504 c 0
 212.247575321 483.381425981 215.869203555 481.00888573 220.130264401 477.129713494 c 0
 222.034991869 475.395693216 224.834013843 472.987820456 227.985401484 467.404063222 c 0
 229.102084484 465.425478708 230.194426158 462.825869983 230.934969383 460.5258164 c 0
 233.362481419 452.986205518 232.921451346 451.485959222 233.283801601 446.896663607 c 0
 233.689585916 441.757260087 233.943359375 435.125641711 233.943359375 426.25 c 0
 233.943359375 397.076063721 237.13245028 377.521087422 244.423477461 361.127323275 c 0
 250.242015915 348.04442772 259.0759659 336.076437225 272.67288125 322.479521875 c 0
 287.442581946 307.709821179 299.212584655 298.991627283 313.260291986 293.446479652 c 0
 331.20117871 286.364550682 354.802507724 283.75 395.818359375 283.75 c 0
 418.943359375 283.75 442.068359375 283.75 465.193359375 283.75 c 1
 465.193359375 125.69679468 l 1
 454.347028614 119.460154493 443.500697854 113.223514305 432.654367093 106.986874118 c 0
 397.45657997 87.0188987306 376.788418637 45.6829629382 376.788418637 2.43170941896 c 0
 376.788418637 -22.9069465288 383.910228597 -48.2632380627 398.659591463 -69.4218656378 c 0
 415.891226172 -93.545066851 459.473496931 -122.5 500.193359375 -122.5 c 0
 515.466931634 -122.5 533.164380257 -117.94918373 550.434983544 -109.682047737 c 0
 572.007856412 -99.3554904777 591.478572574 -83.8963083041 603.604316593 -66.9202666776 c 0
 611.18137597 -56.3665054027 614.52626552 -50.6332168731 616.454997924 -44.1274541086 c 0
 619.043977518 -35.394626786 619.568359375 -23.7688351632 619.568359375 3.125 c 0
 619.568359375 30.3682488403 619.043025471 41.9574485191 616.454560235 50.6918594182 c 0
 610.427988879 71.0276745582 581.755363385 100.262470848 566.095380459 108.727326484 c 0
 555.794706764 114.29525821 545.49403307 119.863189937 535.193359375 125.431121664 c 1
 535.193359375 283.75 l 1
 558.526692708 283.75 581.860026042 283.75 605.193359375 283.75 c 0
 645.933514573 283.75 668.965127162 286.186899821 686.457852956 293.084199421 c 0
 700.135530055 298.477243243 711.653883795 307.04456817 726.4638375 321.854521875 c 0
 740.257603369 335.648287744 749.417365201 348.267203139 755.496196691 361.908160454 c 0
 763.104136771 378.980452399 766.443359375 398.891277397 766.443359375 426.875 c 0
 766.44335962 435.285134983 766.661747425 441.7929479 767.001170898 446.830239315 c 0
 767.296150318 451.207948633 767.185345404 453.146217464 768.638503635 458.974706317 c 2
 771.859327051 471.893143545 l 1
 778.601267494 476.487628693 784.433868929 480.767579194 792.086246398 484.593420202 c 0
 804.202221887 490.836769099 820.185973307 505.524289416 833.306595719 522.38030836 c 0
 843.922357605 536.018339507 851.276936925 549.124522127 853.868342593 558.410392437 c 0
 857.976683753 572.871753321 859.962478813 586.295164574 859.962478813 598.807462861 c 0
 859.962478813 629.923478354 847.816567345 657.41774828 821.4638375 683.770478125 c 0
 795.243218945 710.276103403 764.575234265 722.96875 734.568359375 722.96875 c 0
 704.598018358 722.96875 673.959060122 710.342062416 647.730485489 683.82839458 c 0
 621.35929927 657.45720836 608.920975575 626.023985091 608.920975575 595.466643654 c 0
 608.920975575 554.530274043 630.925905199 514.88767228 674.53831647 487.629915236 c 0
 681.069981222 483.547624766 684.321165184 481.540023932 688.787079266 477.550106772 c 0
 690.784917888 475.765206647 693.952859054 473.250988837 697.406777229 466.594938528 c 0
 698.528429687 464.433400584 699.596994651 461.752016202 700.307614854 458.980956346 c 0
 702.086818802 453.105768104 701.703624246 451.614371021 702.033067453 447.540606631 c 0
 702.437812075 442.535686615 702.693359375 436.093263307 702.693359375 427.5 c 0
 702.693359375 418.105717448 702.354293348 410.90984556 701.569415363 404.555618101 c 0
 700.34781389 394.6657578 697.759267743 386.320529162 692.355839932 378.514035586 c 0
 687.309299894 371.223148439 683.058077207 368.138115397 677.205666386 361.881524543 c 0
 672.753591524 357.121979852 667.995969009 352.227485092 663.45758332 347.5 c 1
 336.92913543 347.5 l 1
 332.457117938 352.158351554 328.421573595 356.464456383 323.802608835 361.086157841 c 0
 320.965217189 363.925230618 317.128316955 367.702804181 313.190669097 372.256186809 c 0
 309.999882614 375.945920442 306.187891141 379.367737597 302.396525195 389.219754215 c 0
 300.233081423 394.841549712 299.447587279 399.452955917 298.817303387 404.555618101 c 0
 298.032425402 410.90984556 297.693359375 418.105717448 297.693359375 427.5 c 0
 297.693359869 435.677881267 297.910185011 442.024038716 298.241181669 446.935215444 c 0
 298.779455772 454.921879915 301.114006974 464.292181856 302.871077956 471.721147537 c 1
 309.712982782 476.388799109 315.546548028 480.698090458 323.335135801 484.592852068 c 0
 335.451244921 490.835876169 351.435571356 505.523778434 364.556595719 522.38030836 c 0
 375.172357605 536.018339507 382.526936925 549.124522127 385.118342593 558.410392437 c 0
 389.226683753 572.871753321 391.212478813 586.295164574 391.212478813 598.807462861 c 0
265.818359375 535 m 0
 258.559732654 535 255.829363537 536.186642716 252.889055995 537.12946996 c 0
 249.333823998 538.269476419 246.277707859 539.608810185 243.057166767 541.280533279 c 0
 235.942482958 544.973633565 227.969909678 550.391777584 220.445250348 558.928585384 c 0
 214.503052611 565.670073305 210.703640019 572.314470617 208.147165647 578.295539568 c 0
 206.99335295 580.994973356 206.078367535 583.554237025 205.315917493 586.508971935 c 0
 204.678440824 588.979395524 203.943359375 591.231658548 203.943359375 596.875 c 2
 203.943359375 600.398762707 l 1
 204.63437321 603.823716455 l 2
 206.519905665 613.169204378 208.812291051 616.808664074 212.216430153 622.966572323 c 0
 214.823540956 627.682698378 217.467550999 632.711385256 224.366634251 639.117676847 c 0
 227.968315015 642.462094699 232.369567787 646.084446319 238.825223269 650.03802635 c 0
 243.804704493 653.087566027 250.013380208 657.285525662 262.128101134 658.557392614 c 2
 267.500981979 659.121465829 l 1
 272.767075829 658.058986165 l 2
 282.112563753 656.17345371 285.752023449 653.881068324 291.909931698 650.476929222 c 0
 296.626057753 647.869818419 301.654744631 645.225808376 308.061036222 638.326725124 c 0
 312.834453121 633.18612231 320.898343887 622.762003747 324.612814441 613.007475913 c 0
 326.066819938 609.189129023 327.693359375 604.288340305 327.693359375 596.875 c 0
 327.693359375 589.616373279 326.506716659 586.886004162 325.563889415 583.94569662 c 0
 324.423882956 580.390464623 323.08454919 577.334348484 321.412826096 574.113807392 c 0
 317.71972581 566.999123583 312.301581791 559.026550303 303.764773991 551.501890973 c 0
 297.02328607 545.559693236 290.378888758 541.760280644 284.397819807 539.203806272 c 0
 281.698386019 538.049993575 279.13912235 537.13500816 276.18438744 536.372558118 c 0
 273.713963851 535.735081449 271.461700827 535 265.818359375 535 c 0
734.568359375 535 m 0
 728.925017923 535 726.672754899 535.735081449 724.20233131 536.372558118 c 0
 721.2475964 537.13500816 718.688332731 538.049993575 715.988898943 539.203806272 c 0
 710.007829992 541.760280644 703.36343268 545.559693236 696.621944759 551.501890973 c 0
 688.085136959 559.026550303 682.66699294 566.999123583 678.973892654 574.113807392 c 0
 677.30216956 577.334348484 675.962835794 580.390464623 674.822829335 583.94569662 c 0
 673.880002091 586.886004162 672.693359375 589.616373279 672.693359375 596.875 c 2
 672.693359375 600.398762707 l 1
 673.38437321 603.823716454 l 2
 675.269905665 613.169204378 677.562291051 616.808664074 680.966430153 622.966572323 c 0
 683.573540956 627.682698378 686.217550999 632.711385256 693.116634251 639.117676847 c 0
 696.718315015 642.462094699 701.119567787 646.084446319 707.575223269 650.03802635 c 0
 712.554704493 653.087566027 718.763380208 657.285525662 730.878101134 658.557392614 c 2
 736.250981979 659.121465829 l 1
 741.517075829 658.058986165 l 2
 750.862563753 656.17345371 754.502023449 653.881068324 760.659931698 650.476929222 c 0
 765.376057753 647.869818419 770.404744631 645.225808376 776.811036222 638.326725124 c 0
 780.001368352 634.890982831 783.73125601 630.451033087 787.722664039 623.949610315 c 0
 790.812423608 618.916841656 794.997540824 612.502280034 796.250751989 600.565258241 c 2
 796.814825204 595.192377396 l 1
 795.75234554 589.926283546 l 2
 793.866813085 580.580795622 791.574427699 576.941335926 788.170288597 570.783427677 c 0
 785.563177794 566.067301622 782.919167751 561.038614744 776.020084499 554.632323153 c 0
 770.879481685 549.858906254 760.455363122 541.795015488 750.700835288 538.080544934 c 0
 746.882488398 536.626539437 741.98169968 535 734.568359375 535 c 0
558.943359375 3.125 m 0
 558.943359375 -11.9887654575 553.959095073 -26.4156187177 544.717582652 -37.4540933855 c 0
 533.216082683 -51.1919979905 516.857953268 -58.3688408451 500.153740744 -58.3688408451 c 0
 486.454871497 -58.3688364338 471.10833589 -52.7411488878 459.754204762 -42.0197989005 c 0
 447.06095345 -30.033959714 441.164755432 -13.4504681823 441.164755432 1.75072191695 c 0
 441.164755432 23.3427426333 451.177194919 43.1696155822 468.574663669 55.0767091167 c 0
 477.305519984 61.0522406305 488.129433592 65 500.193359375 65 c 0
 510.663569633 65 515.853551478 62.5227092122 522.278598623 59.6580499252 c 0
 528.922073815 56.696002725 535.260583414 53.8637289455 541.614693332 47.2726386945 c 0
 552.530490691 35.9497301377 558.943359375 19.7883204234 558.943359375 3.125 c 0
EndSplineSet
Validated: 524297
EndChar

StartChar: uniF005
Encoding: 61445 61445 4
Width: 1000
VWidth: 13300
Flags: W
LayerCount: 2
Fore
SplineSet
125.900390625 207.618493129 m 1
 125.900390625 643.75 l 2
 125.900390625 686.517426513 160.630547531 721.25 203.400390625 721.25 c 2
 718.400390625 721.25 l 1
 718.400390625 534.375 l 2
 718.400390625 516.775161085 732.67555171 502.5 750.275390625 502.5 c 0
 767.87522954 502.5 782.150390625 516.775161085 782.150390625 534.375 c 2
 782.150390625 753.125 l 2
 782.150390625 770.724838915 767.87522954 785 750.275390625 785 c 2
 203.400390625 785 l 2
 125.434836725 785 62.150390625 721.713803972 62.150390625 643.75 c 2
 62.150390625 81.25 l 2
 62.150390625 3.28619602833 125.434836725 -60 203.400390625 -60 c 2
 562.775390625 -60 l 2
 580.37522954 -60 594.650390625 -45.7248389152 594.650390625 -28.125 c 0
 594.650390625 -10.5251610848 580.37522954 3.75 562.775390625 3.75 c 2
 203.400390625 3.75 l 2
 160.630547531 3.75 125.900390625 38.4825734865 125.900390625 81.25 c 0
 125.900390625 124.017426513 160.630547531 158.75 203.400390625 158.75 c 2
 406.525390625 158.75 l 2
 424.12522954 158.75 438.400390625 173.025161085 438.400390625 190.625 c 0
 438.400390625 208.224838915 424.12522954 222.5 406.525390625 222.5 c 2
 203.400390625 222.5 l 2
 191.348911761 222.5 180.395348152 221.079154583 169.309570433 218.340884703 c 2
 125.900390625 207.618493129 l 1
750.580078125 378.383789062 m 0
 741.769365528 378.383789062 733.786809601 374.810381285 728.003066896 369.068578703 c 2
 571.168213157 212.294253707 l 2
 566.244080973 207.372031227 562.69921875 199.648107575 562.69921875 190.625 c 0
 562.69921875 173.034633308 577.02282413 158.75 594.57421875 158.75 c 0
 603.113868893 158.75 611.024679965 161.945277979 616.575354581 167.491420045 c 2
 718.705078125 269.537746856 l 1
 718.705078125 -153.125 l 2
 718.705078125 -170.724838915 732.98023921 -185 750.580078125 -185 c 0
 768.17991704 -185 782.455078125 -170.724838915 782.455078125 -153.125 c 2
 782.455078125 269.558653125 l 1
 885.01976258 166.99396867 l 1
 890.812586532 162.816154905 897.58892549 159.298828125 905.974609375 159.298828125 c 0
 923.57444829 159.298828125 937.849609375 173.57398921 937.849609375 191.173828125 c 0
 937.849609375 199.39479238 934.742500179 206.87769738 929.644412489 212.503448627 c 2
 773.11474968 369.110777866 l 2
 767.315845981 374.867631504 759.330618287 378.383789062 750.580078125 378.383789062 c 0
EndSplineSet
Validated: 524297
EndChar

StartChar: uniF006
Encoding: 61446 61446 5
Width: 1000
VWidth: 13300
Flags: W
LayerCount: 2
Fore
SplineSet
827.5 535 m 1
 452.5 535 l 1
 452.5 440 l 1
 827.5 440 l 1
 827.5 336.20904375 l 1
 978.79095625 487.5 l 1
 827.5 638.79095625 l 1
 827.5 535 l 1
235 627.5 m 1
 235 660 l 1
 202.5 660 l 1
 202.5 627.5 l 1
 235 627.5 l 1
735 347.5 m 1
 702.5 347.5 l 1
 702.5 160 l 1
 110 160 l 1
 110 752.5 l 1
 702.5 752.5 l 1
 702.5 627.5 l 1
 735 627.5 l 1
 735 737.5 l 2
 735 763.583795105 713.583795105 785 687.5 785 c 2
 62.5 785 l 2
 36.416204895 785 15 763.583795105 15 737.5 c 2
 15 -12.5 l 2
 15 -38.583795105 36.416204895 -60 62.5 -60 c 2
 202.5 -60 l 1
 202.5 -163.79095625 l 1
 281.25 -85.04095625 l 1
 360 -163.79095625 l 1
 360 -60 l 1
 687.5 -60 l 2
 713.583795105 -60 735 -38.583795105 735 -12.5 c 2
 735 347.5 l 1
702.5 127.5 m 1
 702.5 -27.5 l 1
 360 -27.5 l 1
 360 -6.66666666667 360 14.1666666667 360 35 c 1
 202.5 35 l 1
 202.5 14.1666666667 202.5 -6.66666666667 202.5 -27.5 c 1
 47.5 -27.5 l 1
 47.5 127.5 l 1
 702.5 127.5 l 1
265 347.5 m 1
 172.5 347.5 l 1
 172.5 440 l 1
 265 440 l 1
 265 347.5 l 1
265 472.5 m 1
 172.5 472.5 l 1
 172.5 565 l 1
 265 565 l 1
 265 472.5 l 1
172.5 315 m 1
 265 315 l 1
 265 222.5 l 1
 172.5 222.5 l 1
 172.5 315 l 1
EndSplineSet
Validated: 524297
EndChar

StartChar: uniF007
Encoding: 61447 61447 6
Width: 1000
VWidth: 13223
Flags: W
LayerCount: 2
Fore
SplineSet
14.96875 676.129882812 m 2
 14.96875 19.8798828125 l 2
 14.96875 2.28004389733 29.2439110848 -11.9951171875 46.84375 -11.9951171875 c 2
 328.58203125 -11.9951171875 l 2
 371.536659006 -11.9951171875 410.444580788 -29.421292352 438.613877492 -57.5884275077 c 2
 477.484865907 -96.3988755168 l 2
 483.211485599 -102.125495209 491.170995563 -105.68359375 500.03125 -105.68359375 c 0
 508.879551609 -105.68359375 516.839079154 -102.136789671 522.566123101 -96.4084270407 c 2
 561.456815337 -57.5802415831 l 2
 589.622710246 -29.4143466739 628.516899179 -11.9951171875 671.478515625 -11.9951171875 c 2
 953.15625 -11.9951171875 l 2
 970.756088915 -11.9951171875 985.03125 2.28004389733 985.03125 19.8798828125 c 2
 985.03125 676.129882812 l 2
 985.03125 693.729721727 970.756088915 708.004882812 953.15625 708.004882812 c 2
 687.785038095 708.004882812 l 1
 686.502633387 708.184545978 l 1
 622.93018231 707.857798003 565.807705876 680.446527419 525.974976166 636.888091006 c 2
 500.16348123 608.662348781 l 1
 474.330017047 636.867721812 l 2
 434.299701753 680.573434971 376.684008589 708.004882812 312.65234375 708.004882812 c 2
 46.84375 708.004882812 l 2
 29.2439110848 708.004882812 14.96875 693.729721727 14.96875 676.129882812 c 2
921.21875 644.254882812 m 1
 921.21875 51.7548828125 l 1
 671.41796875 51.7548828125 l 2
 640.087570472 51.7548828125 609.334341012 45.0472815575 581.265562628 32.4086065098 c 2
 531.895145707 10.1783320152 l 1
 532.150390625 488.629882812 l 2
 532.150390625 574.549506494 601.923019626 644.254882812 687.775390625 644.254882812 c 2
 921.21875 644.254882812 l 1
312.65234375 644.254882812 m 2
 398.500721206 644.254882812 468.210333756 574.614931224 468.277337905 488.765325008 c 2
 468.400386091 347.931583196 l 1
 468.140207199 10.0247667686 l 1
 418.800750038 32.3152986693 l 2
 391.222629769 44.7745149835 360.577029522 51.7548828125 328.521484375 51.7548828125 c 2
 78.71875 51.7548828125 l 1
 78.71875 644.254882812 l 1
 312.65234375 644.254882812 l 2
EndSplineSet
Validated: 524297
EndChar

StartChar: uniF008
Encoding: 61448 61448 7
Width: 1000
VWidth: 13207
Flags: W
LayerCount: 2
Fore
SplineSet
106.728683824 692.71667387 m 0
 104.214652045 692.71667387 102.072579441 692.619574644 100.29453722 692.480741158 c 0
 85.5067650375 652.286424986 80.7648073893 616.661802834 80.7648073893 587.384239971 c 0
 80.7648073893 554.048992862 86.9192205353 528.766044425 91.6316870773 514.339932514 c 2
 97.7689763316 495.552059788 l 1
 84.830944831 480.595957234 l 2
 41.1551770377 430.107653645 15 366.626555247 15 289.6328125 c 0
 15 123.594898696 71.242526885 22.2533522307 178.041045825 -32.8864275153 c 0
 260.103665355 -75.255130857 370.537654967 -89.715820312 498.779296875 -89.715820312 c 0
 716.781139867 -89.715820312 881.501768807 -48.5518445284 949.799576939 100.412760444 c 0
 972.406929981 149.721742788 985 211.78197907 985 289.6328125 c 0
 985 366.626555276 958.844822942 430.107653708 915.16905515 480.595957367 c 2
 902.231023683 495.552059904 l 1
 908.368312911 514.339932602 l 2
 913.080779466 528.766044588 919.235192611 554.048992946 919.235192611 587.384239972 c 0
 919.235192611 616.64694804 914.498045673 652.250276313 899.727963998 692.419563538 c 0
 898.092682086 692.531369814 896.137736073 692.606936035 893.84056479 692.606936035 c 2
 890.669387482 692.606936035 l 1
 882.827563719 691.140310536 866.388620853 687.521284562 846.584065072 681.3002424 c 0
 810.151018933 669.855829376 759.788505184 649.499059493 711.391805395 617.204117359 c 2
 698.410998674 608.542072143 l 1
 683.265303187 612.438884201 l 2
 625.341696023 627.341957556 562.879909481 629.673828125 500 629.673828125 c 0
 437.13085304 629.673827622 374.67957419 627.342810258 316.764333022 612.446508353 c 2
 301.565674523 608.537281679 l 1
 288.562528256 617.26446626 l 2
 189.145399744 683.989212188 130.577884415 692.71667387 106.728683824 692.71667387 c 0
500 -58.4970703125 m 0
 356.319238429 -58.4970703125 227.408897728 -54.7521705519 159.244631126 19.742944752 c 0
 128.115708565 53.7630082113 111.220703125 101.709184467 111.220703125 165.9140625 c 0
 111.220703125 218.598758218 137.66679864 267.387449007 179.875321743 306.309982341 c 0
 216.671850191 340.017751102 264.843490993 347.622793235 317.068583449 347.622793235 c 0
 376.737203725 347.622793235 438.185279029 338.995117188 500 338.995117188 c 0
 562.053259449 338.995117188 623.155328847 347.622793235 682.939697793 347.622793235 c 0
 735.020153433 347.622793235 783.035553074 339.978311553 820.068999704 306.360732408 c 0
 862.99699835 267.428098617 888.779296875 219.024839436 888.779296875 165.9140625 c 0
 888.779296875 101.888573173 871.875417965 54.0127617396 840.753774612 20.0113261646 c 0
 772.572914879 -54.4785419728 643.65703061 -58.4970703125 500 -58.4970703125 c 0
343.139648438 254.673828125 m 0
 333.668443861 254.673828125 324.058518327 250.835821535 315.200091432 243.118098883 c 0
 297.084704339 227.335439617 283.126953125 195.98017602 283.126953125 158.407226562 c 0
 283.126953125 120.780718314 297.098402926 89.1371421867 315.248595262 73.1874063643 c 0
 324.121612367 65.3901182606 333.715934834 61.529296875 343.139648438 61.529296875 c 0
 352.612499225 61.529296875 362.220219277 65.3633232613 371.069944995 73.0861384349 c 0
 389.170167581 88.8815063455 403.15234375 120.348096844 403.15234375 158.407226562 c 0
 403.15234375 196.456572199 389.182629905 227.616632623 371.122907382 243.229477049 c 0
 362.289869538 250.865743083 352.665175351 254.673828125 343.139648438 254.673828125 c 0
656.860351562 254.673828125 m 0
 647.334824649 254.673828125 637.710130462 250.865743083 628.877092618 243.229477049 c 0
 610.817370095 227.616632623 596.84765625 196.456572199 596.84765625 158.407226562 c 0
 596.84765625 120.348096844 610.829832419 88.8815063455 628.930055005 73.0861384349 c 0
 637.779780723 65.3633232613 647.387500775 61.529296875 656.860351562 61.529296875 c 0
 666.33320235 61.529296875 675.940922402 65.3633232615 684.790648121 73.0861384349 c 0
 702.890870706 88.8815063454 716.873046875 120.348096844 716.873046875 158.407226562 c 0
 716.873046875 196.540416452 703.123274609 227.661004371 685.114877868 243.229477049 c 0
 676.326429848 250.827194651 666.62808636 254.673828125 656.860351562 254.673828125 c 0
EndSplineSet
Validated: 524297
EndChar

StartChar: uniF009
Encoding: 61449 61449 8
Width: 1000
VWidth: 13250
Flags: W
LayerCount: 2
Fore
SplineSet
594.375 493.75 m 0
 594.375 517.5 594.375 541.25 594.375 565 c 1
 611.875 565 629.375 565 646.875 565 c 0
 679.402663742 564.999999845 703.54098175 560.182304365 721.66529299 545.951113501 c 0
 731.214854602 538.452807377 736.971123704 529.542886341 741.404292135 519.957451274 c 1
 743.269063649 513.284325181 743.861998405 509.208773648 744.672175606 502.099984682 c 0
 745.525411169 494.613386017 746.421054267 484.274521853 747.042512574 471.399977257 c 0
 748.609443151 438.938398802 749.375 389.367110234 749.375 318.75 c 2
 749.375 129.142957793 l 1
 740.787431427 124.545476177 732.207680641 119.940176773 723.615225663 115.347581562 c 0
 707.451552692 106.999661001 692.104975688 92.5552660372 679.99436259 74.7752545282 c 0
 664.776400234 52.4332357004 655.625 26.1876891048 655.625 3.125 c 0
 655.625 -62.848126444 715.276873556 -122.5 781.25 -122.5 c 0
 847.223126444 -122.5 906.875 -62.848126444 906.875 3.125 c 0
 906.875 26.1876891048 897.723599766 52.4332357004 882.50563741 74.7752545282 c 0
 870.146486813 92.9201525676 854.814764219 106.809155533 838.41879324 115.592711414 c 0
 829.987528827 120.109460207 821.556264413 124.626209 813.125 129.142957793 c 1
 813.125 323.75 l 2
 813.125 442.637144883 812.056348874 499.609424427 804.456699359 531.901061798 c 0
 798.627637426 556.669293523 789.049637959 567.540756067 770.445507022 586.473263301 c 0
 742.029080156 615.391260545 705.898017473 628.75 652.5 628.75 c 0
 633.493673103 628.75 614.487346207 628.75 595.48101931 628.75 c 1
 594.461852155 660.004459411 594.063648988 692.729145686 592.133551343 723.570911071 c 0
 591.764347375 729.470561901 591.234880117 735.036556551 590.746578294 739.291652422 c 1
 588.041968764 737.099833898 584.959924001 734.519353264 581.551724236 731.583763032 c 0
 565.362742975 717.639681543 542.596252814 696.387209064 518.729521875 672.520478125 c 0
 494.218921 648.00987725 472.375659714 625.202927053 457.95493747 609.410209865 c 0
 453.363442037 604.381877191 449.55253102 600.092206878 446.692280099 596.750001149 c 1
 449.585756176 593.355819985 453.477162629 588.985462708 458.190260781 583.849604015 c 0
 472.7669484 567.965401014 494.816857289 545.142186461 519.354521875 520.604521875 c 0
 549.249626837 490.709416913 570.715862267 470.490700747 584.785637218 458.831770683 c 0
 588.014705623 456.156000613 590.723837572 454.032555624 592.9972636 452.362176361 c 1
 593.931674799 460.012202363 594.375 472.801247405 594.375 493.75 c 0
719.375 3.125 m 0
 719.375 10.3836267209 720.561642716 13.1139958379 721.50446996 16.0543033802 c 0
 722.644476419 19.6095353771 723.983810185 22.6656515162 725.655533279 25.8861926084 c 0
 729.348633565 33.0008764174 734.766777584 40.9734496974 743.303585384 48.4981090274 c 0
 750.045073305 54.4403067636 756.689470617 58.2397193556 762.670539568 60.7961937278 c 0
 765.369973356 61.9500064253 767.929237025 62.8649918401 770.883971935 63.6274418821 c 0
 773.354395524 64.2649185514 775.606658548 65 781.25 65 c 2
 784.773762707 65 l 1
 788.198716455 64.3089861652 l 2
 797.544204378 62.4234537098 801.183664074 60.1310683245 807.341572323 56.7269292216 c 0
 812.057698378 54.119818419 817.086385256 51.4758083757 823.492676847 44.5767251237 c 0
 828.266093746 39.4361223102 836.329984512 29.0120037471 840.044455066 19.2574759132 c 0
 841.498460563 15.4391290234 843.125 10.5383403053 843.125 3.125 c 0
 843.125 -4.13362672094 841.938357284 -6.86399583786 840.99553004 -9.8043033802 c 0
 839.855523581 -13.3595353771 838.516189815 -16.4156515162 836.844466721 -19.6361926084 c 0
 833.151366435 -26.7508764174 827.733222416 -34.7234496974 819.196414616 -42.2481090274 c 0
 812.454926695 -48.1903067636 805.810529383 -51.9897193556 799.829460432 -54.5461937278 c 0
 797.130026644 -55.7000064253 794.570762975 -56.6149918401 791.616028065 -57.3774418821 c 0
 789.145604476 -58.0149185514 786.893341452 -58.75 781.25 -58.75 c 0
 775.606658548 -58.75 773.354395524 -58.0149185514 770.883971935 -57.3774418821 c 0
 767.929237025 -56.6149918401 765.369973356 -55.7000064253 762.670539568 -54.5461937278 c 0
 756.689470617 -51.9897193556 750.045073305 -48.1903067636 743.303585384 -42.2481090274 c 0
 734.766777584 -34.7234496974 729.348633565 -26.7508764174 725.655533279 -19.6361926084 c 0
 723.983810185 -16.4156515162 722.644476419 -13.3595353771 721.50446996 -9.8043033802 c 0
 720.561642716 -6.86399583786 719.375 -4.13362672094 719.375 3.125 c 0
216.334263075 721.2362075 m 0
 200.049922743 721.2362075 187.284369471 718.690422897 176.149865397 714.499696125 c 0
 162.263980211 709.273423773 150.29268695 701.216385757 137.83976391 689.886679132 c 0
 120.902014272 674.476663855 107.481717756 655.966522975 102.33232143 640.80441157 c 0
 96.5804443023 623.734324611 93.8428912907 608.308398089 93.8428912907 594.102793988 c 0
 93.8428914853 564.013139207 106.148982934 536.978470623 133.830887947 509.25290566 c 0
 142.328894552 500.440508528 151.199851762 492.700851591 157.884764181 487.872226607 c 0
 165.705834815 482.222936675 172.858302771 479.556682397 181.443006824 475.327109784 c 1
 183.511883372 458.625459442 184.921213877 451.656275807 185.71033279 430.624818965 c 0
 186.649437414 405.595969648 186.875 366.113232364 186.875 303.125 c 2
 186.875 129.142957793 l 1
 178.287431427 124.545476177 169.707680641 119.940176773 161.115225663 115.347581562 c 0
 144.951552692 106.999661001 129.604975688 92.5552660372 117.49436259 74.7752545282 c 0
 102.276400234 52.4332357004 93.125 26.1876891048 93.125 3.125 c 0
 93.125 -62.848126444 152.776873556 -122.5 218.75 -122.5 c 0
 284.723126444 -122.5 344.375 -62.848126444 344.375 3.125 c 0
 344.375 26.1876891048 335.223599766 52.4332357004 320.00563741 74.7752545282 c 0
 307.646486813 92.9201525676 292.314764219 106.809155533 275.91879324 115.592711414 c 0
 267.487528827 120.109460207 259.056264413 124.626209 250.625 129.142957793 c 1
 250.625 470.857042207 l 1
 259.102416265 475.398515206 267.57983253 479.939988205 276.057248795 484.481461204 c 0
 295.742645583 494.920686774 314.917173381 515.275357296 327.996873761 539.125175039 c 0
 338.437919348 558.163610712 344.375 578.247222878 344.375 595.625 c 0
 344.375 666.158290339 283.964044458 721.2362075 216.334263075 721.2362075 c 0
218.75 535 m 0
 211.491373279 535 208.761004162 536.186642716 205.82069662 537.12946996 c 0
 202.265464623 538.269476419 199.209348484 539.608810185 195.988807392 541.280533279 c 0
 188.874123583 544.973633565 180.901550303 550.391777584 173.376890973 558.928585384 c 0
 167.434693236 565.670073305 163.635280644 572.314470617 161.078806272 578.295539568 c 0
 159.924993575 580.994973356 159.01000816 583.554237025 158.247558118 586.508971935 c 0
 157.610081449 588.979395524 156.875 591.231658548 156.875 596.875 c 2
 156.875 600.398762707 l 1
 157.566013835 603.823716455 l 2
 159.45154629 613.169204378 161.743931676 616.808664074 165.148070778 622.966572323 c 0
 167.755181581 627.682698378 170.399191624 632.711385256 177.298274876 639.117676847 c 0
 180.89995564 642.462094699 185.301208412 646.084446319 191.756863894 650.03802635 c 0
 196.736345118 653.087566027 202.945020833 657.285525662 215.059741759 658.557392614 c 2
 220.432622604 659.121465829 l 1
 225.698716454 658.058986165 l 2
 235.044204378 656.17345371 238.683664074 653.881068324 244.841572323 650.476929222 c 0
 249.557698378 647.869818419 254.586385256 645.225808376 260.992676847 638.326725124 c 0
 265.766093746 633.18612231 273.829984512 622.762003747 277.544455066 613.007475913 c 0
 278.998460563 609.189129023 280.625 604.288340305 280.625 596.875 c 0
 280.625 591.231658548 279.889918551 588.979395524 279.252441882 586.508971935 c 0
 278.48999184 583.554237025 277.575006425 580.994973356 276.421193728 578.295539568 c 0
 273.864719356 572.314470617 270.065306764 565.670073305 264.123109027 558.928585384 c 0
 256.598449697 550.391777584 248.625876417 544.973633565 241.511192608 541.280533279 c 0
 238.290651516 539.608810185 235.234535377 538.269476419 231.67930338 537.12946996 c 0
 228.738995838 536.186642716 226.008626721 535 218.75 535 c 0
218.75 -58.75 m 0
 213.106658548 -58.75 210.854395524 -58.0149185514 208.383971935 -57.3774418821 c 0
 205.429237025 -56.6149918401 202.869973356 -55.7000064253 200.170539568 -54.5461937278 c 0
 194.189470617 -51.9897193556 187.545073305 -48.1903067636 180.803585384 -42.2481090275 c 0
 172.266777584 -34.7234496974 166.848633565 -26.7508764174 163.155533279 -19.6361926084 c 0
 161.483810185 -16.4156515162 160.144476419 -13.3595353771 159.00446996 -9.8043033802 c 0
 158.061642716 -6.86399583786 156.875 -4.13362672094 156.875 3.125 c 2
 156.875 6.64876270725 l 1
 157.566013835 10.0737164545 l 2
 159.45154629 19.4192043783 161.743931676 23.058664074 165.148070778 29.216572323 c 0
 167.755181581 33.9326983778 170.399191624 38.9613852562 177.298274876 45.3676768473 c 0
 180.89995564 48.7120946991 185.301208412 52.3344463188 191.756863894 56.2880263497 c 0
 196.736345118 59.3375660268 202.945020833 63.5355256617 215.059741759 64.8073926138 c 2
 220.432622604 65.371465829 l 1
 225.698716455 64.3089861652 l 2
 235.044204378 62.4234537098 238.683664074 60.1310683245 244.841572323 56.7269292216 c 0
 249.557698378 54.119818419 254.586385256 51.4758083757 260.992676847 44.5767251238 c 0
 264.183008977 41.1409828306 267.912896635 36.7010330874 271.904304664 30.1996103145 c 0
 274.994064233 25.1668416564 279.179181449 18.7522800339 280.432392614 6.81525824087 c 2
 280.996465829 1.44237739595 l 1
 279.933986165 -3.8237164545 l 2
 278.04845371 -13.1692043783 275.756068324 -16.808664074 272.351929222 -22.966572323 c 0
 269.744818419 -27.6826983778 267.100808376 -32.7113852562 260.201725124 -39.1176768473 c 0
 255.06112231 -43.8910937457 244.637003747 -51.9549845117 234.882475913 -55.6694550662 c 0
 231.064129023 -57.123460563 226.163340305 -58.75 218.75 -58.75 c 0
EndSplineSet
Validated: 524297
EndChar

StartChar: uniF00A
Encoding: 61450 61450 9
Width: 1000
VWidth: 13287
Flags: W
LayerCount: 2
Fore
SplineSet
361.220703125 -162.763671875 m 0
 361.220703125 -137.371980927 360.783653153 -113.500451185 360.654607932 -87.2356365621 c 1
 345.657699231 -89.3080166058 331.947565016 -90.2625941376 319.359913288 -90.2625941376 c 0
 249.37811076 -90.2625941376 209.199187154 -60.3920632233 193.382485104 -15.9309279871 c 0
 191.63837897 -11.0282031054 184.022218753 3.79229681842 175.615284045 16.5438060018 c 0
 168.856910347 26.7948032173 161.122604388 36.4767554285 156.947347748 40.4861062727 c 2
 31.8056771211 160.655213476 l 1
 74.1740566537 4.0323453476 192.959590298 -120.77560797 345.790559586 -172.00274011 c 0
 346.496038136 -172.077973707 348.684259161 -172.287280761 350.281657991 -172.287280932 c 0
 356.050517044 -172.287280932 358.749630904 -169.862652698 359.434218727 -168.922073115 c 0
 360.596620837 -167.325007472 361.220703125 -165.409644442 361.220703125 -162.763671875 c 0
640.610351562 -25.251953125 m 0
 640.610351562 -79.9266091033 640 -113.027610846 640 -162.763671875 c 0
 640 -168.863851763 643.046812801 -172.46366953 650.34561789 -172.46366953 c 0
 651.299109484 -172.46366953 653.371758301 -172.27869537 655.703200409 -171.901187255 c 0
 847.262532426 -106.161500891 984.94129806 74.1782537364 985.000000577 287.862600267 c 0
 985.000000577 555.834522323 767.971054817 772.858398438 500 772.858398438 c 0
 232.028437869 772.858398438 15 555.829960568 15 287.858398438 c 0
 15 256.695740193 17.9261942775 226.236736624 23.5189064468 196.737351379 c 1
 198.586889394 96.0958216792 l 2
 202.716086952 93.7220652005 206.593402585 91.1087568185 210.251147898 88.3305432248 c 0
 228.146075912 74.7385826244 239.372720922 59.2978629258 245.464464332 49.0988854852 c 0
 267.797266067 11.7086466352 296.184695106 2.26412276006 321.150901419 2.26412276006 c 0
 339.499564391 2.26412276006 352.024184377 5.7455961362 364.619696213 10.909888235 c 1
 367.968839163 28.7334843233 373.878976981 43.7532259022 381.338334394 55.9625801072 c 1
 339.320447678 62.7342292332 297.144631573 75.1054572879 260.877408504 99.988509815 c 0
 230.937051269 120.530680367 204.389025959 150.555210189 187.780146005 192.275423825 c 0
 174.540523509 225.532324984 167.495117188 265.542566311 167.495117188 314.103515625 c 0
 167.495117188 368.647850817 186.092853637 415.170219238 216.682492074 451.731350788 c 1
 213.052094105 463.096061217 208.657636754 481.712943475 208.657636754 505.754171214 c 2
 208.657636754 508.699213463 l 1
 210.896578841 522.037279123 210.946565396 546.197663709 219.880979851 573.048569801 c 2
 228.351389385 598.504985787 l 1
 255.161958413 596.944103883 l 2
 277.75569849 595.628721132 317.95419876 585.992478606 378.851760484 546.005132385 c 1
 418.300398466 556.412055858 459.736740097 561.586914062 501.220703125 561.586914062 c 0
 542.743926934 561.586914062 584.168655768 556.416655141 623.557255538 546.01612295 c 1
 684.626564027 586.455955609 724.929150559 595.963987313 747.576527748 597.099986358 c 2
 774.153798044 598.433110274 l 1
 782.566083617 573.213330383 l 2
 790.96445732 548.035257863 793.844386804 525.137318465 793.844386804 505.753563198 c 0
 793.844386804 481.71530922 789.450868094 463.099615759 785.821212744 451.735036731 c 1
 816.358049594 415.284275174 835.0078125 369.175284018 835.0078125 314.103515625 c 0
 835.0078125 265.378102357 827.929506129 225.278386234 814.62554495 191.97689603 c 0
 797.934375729 150.196797545 771.254283862 120.210549562 741.220447663 99.740970225 c 0
 704.860679582 74.9599481645 662.626203693 62.7022703731 620.612640453 55.9662330348 c 1
 632.718670541 36.2006544959 640.610351562 9.1540113628 640.610351562 -25.251953125 c 0
230.28288409 593.909098858 m 1
 244.029874112 526.716244826 l 1
 279.017934926 561.712503874 l 1
 244.018385625 596.712310965 l 1
 230.28288409 593.909098858 l 1
EndSplineSet
Validated: 524297
EndChar

StartChar: uniF00B
Encoding: 61451 61451 10
Width: 1000
VWidth: 13223
Flags: W
LayerCount: 2
Fore
SplineSet
500.3125 127.5 m 0
 503.072975821 127.5 508.389167815 128.013011141 522.446443495 139.410471719 c 0
 540.995753707 154.450016841 573.697800411 186.469344161 637.207978125 249.979521875 c 0
 683.603652208 296.028959585 717.870939087 331.692733986 739.410872082 355.884578872 c 0
 751.816389567 369.817414912 757.170528802 376.415230859 764.452048524 386.658748653 c 0
 764.810974892 387.775903478 765.207625822 390.04627525 765.207625822 392.749388283 c 0
 765.207625822 406.931476356 753.429935314 421.596722129 728.540851133 421.596722129 c 0
 724.697113457 421.596722129 719.321242733 420.86038208 704.061534106 407.801785347 c 0
 684.418893066 390.992465171 626.930222867 333.646578948 594.959138612 301.923433602 c 2
 535.3125 242.73936055 l 1
 535.3125 478.75 l 2
 535.3125 539.379690901 534.540649363 596.95355743 533.219895237 638.003447775 c 0
 532.569287126 658.22476762 531.82615629 672.249189563 530.937820325 684.804337513 c 0
 530.33979469 693.256432929 530.251349986 693.127666006 529.595374526 695.397630075 c 0
 524.164362405 714.191324534 510.767302231 722.849315712 499.236681486 722.849315712 c 0
 494.002486545 722.849315712 488.12095319 721.082173602 482.516000067 716.811733127 c 0
 478.395516859 713.672317349 472.701503271 700.814729215 470.836978594 694.754306491 c 1
 470.836978594 694.754306491 469.83901593 686.771886051 469.455061551 681.574247619 c 0
 468.68983681 671.215304615 467.991971202 656.243635335 467.405104763 638.003447775 c 0
 466.084350637 596.95355743 465.3125 539.379690901 465.3125 478.75 c 2
 465.3125 242.739279757 l 1
 441.721240285 266.14766149 418.276041984 289.385712439 394.683377985 312.83308769 c 0
 363.391689111 343.932075551 313.538332064 393.275431186 296.563465894 407.801785347 c 0
 281.303757267 420.86038208 275.927886543 421.596722129 272.084148867 421.596722129 c 0
 247.218123689 421.596722129 235.417374178 406.918751191 235.417374178 392.749388283 c 0
 235.417374178 386.856662102 237.171960081 385.156425805 240.292627531 380.940131499 c 0
 244.633943013 375.074635081 251.625257161 366.653993709 261.214127918 355.884578872 c 0
 282.752627854 331.694343477 316.981611788 296.068548385 363.376925383 250.019468474 c 0
 426.887976028 186.508417829 459.6270227 154.451819702 478.178556505 139.410471719 c 0
 492.235832185 128.013011141 497.552024179 127.5 500.3125 127.5 c 0
202.8125 -59.375 m 0
 202.8125 -66.7659108795 210.871554339 -76.7133649945 214.620228843 -80.6182342693 c 2
 224.826723945 -91.25 l 1
 775.798276055 -91.25 l 1
 779.495295637 -87.3989379359 783.100866316 -83.424420681 786.917798728 -79.692742617 c 0
 794.516113439 -72.2641425605 797.1875 -65.1156619858 797.1875 -59.375 c 0
 797.1875 -53.0246943914 793.565441373 -46.0074638722 786.131083794 -38.263341394 c 2
 775.798276055 -27.5 l 1
 224.826723945 -27.5 l 1
 221.049519538 -31.4345879238 217.393758139 -35.5586569928 213.434544783 -39.3096589561 c 0
 209.8948369 -42.6632168541 202.8125 -53.0229095786 202.8125 -59.375 c 0
EndSplineSet
Validated: 524297
EndChar

StartChar: uni26A1
Encoding: 9889 9889 11
Width: 1000
Flags: W
LayerCount: 2
Fore
SplineSet
216.362304688 158.8125 m 2
 374.387579726 158.8125 l 1
 269.376431051 -97.9404222973 l 2
 266.364199234 -105.297599038 264.688476562 -113.382015477 264.688476562 -121.8125 c 0
 264.688476562 -156.679829988 292.993924879 -184.9375 327.813476562 -184.9375 c 2
 346.672851562 -184.9375 l 2
 363.80406639 -184.9375 379.332281017 -178.125157494 390.653831146 -167.098952151 c 2
 849.39844023 279.317416088 l 2
 869.403462113 298.767221023 878.189923838 322.697418976 878.189923838 346.130405956 c 0
 878.189923838 394.895321601 840.56915364 441.3125 783.624023438 441.3125 c 2
 627.630918728 441.3125 l 1
 732.668905958 672.286827582 l 2
 737.207277269 682.343858408 739.75390625 693.544540917 739.75390625 705.212890625 c 0
 739.75390625 731.682978274 726.790845908 755.182065916 706.862463733 769.690903019 c 1
 549.097922128 422.54802712 l 2
 547.269267233 418.558234621 546.243164062 414.119690187 546.243164062 409.4375 c 0
 546.243164062 391.837661085 560.518325147 377.5625 578.118164062 377.5625 c 2
 859.001048421 377.5625 l 1
 317.06963762 -149.813052375 l 1
 451.384348249 178.618627751 l 2
 452.906224409 182.321289257 453.743164062 186.398770501 453.743164062 190.6875 c 0
 453.743164062 208.287338915 439.468002978 222.5625 421.868164062 222.5625 c 2
 140.908384363 222.5625 l 1
 704.800888891 771.142767388 l 1
 692.019017416 779.846750516 676.581951997 784.939453125 659.965820312 784.939453125 c 0
 643.327997363 784.939453125 627.882251396 779.839482478 615.081032389 771.118229484 c 2
 608.87840606 766.89248556 l 1
 150.589227984 320.808888149 l 2
 130.592297923 301.366672961 121.809699201 277.446917714 121.809699201 254.02085174 c 0
 121.809699201 205.243583384 159.451777238 158.8125 216.362304688 158.8125 c 2
706.862463733 769.690903019 m 1
 706.183283329 770.185379578 705.496012573 770.669413793 704.800888891 771.142767388 c 1
 709.6790374 775.888452056 l 1
 706.862463733 769.690903019 l 1
EndSplineSet
Validated: 524293
EndChar

StartChar: uniF00C
Encoding: 61452 61452 12
Width: 1000
LayerCount: 2
Fore
SplineSet
272.084148867 428.403277871 m 0
 275.927886543 428.403277871 281.303757267 429.13961792 296.563465894 442.198214653 c 0
 316.206106934 459.007534829 373.694777133 516.353421052 405.665861388 548.076566398 c 2
 465.3125 607.26063945 l 1
 465.3125 371.25 l 2
 465.3125 310.620309099 466.084350637 253.04644257 467.405104763 211.996552225 c 0
 468.055712914 191.775231128 468.798843311 177.750809441 469.68718 165.195660347 c 0
 470.292726269 156.637279518 470.36900363 156.924765477 471.057433483 154.501436913 c 0
 476.742672513 134.488937337 489.860095397 127.1875 500.3125 127.1875 c 0
 511.525174666 127.1875 523.574536472 135.084592716 529.785955313 155.238991544 c 1
 531.869059625 171.876996928 532.432133461 187.526619681 533.219869221 212.050612655 c 0
 534.540636491 253.169080135 535.3125 310.897384933 535.3125 371.875 c 2
 535.3125 607.876054204 l 1
 594.954407757 548.719040006 l 2
 627.129307742 516.805724574 671.632206564 472.745600859 700.432860702 446.598783431 c 0
 708.928968532 438.885549586 714.698016379 433.931158873 720.392953507 429.196162226 c 0
 724.28403895 425.960959428 722.454215607 427.290428568 724.166428696 426.403965733 c 0
 728.334835256 424.245859643 732.530798142 423.318541267 736.357303937 423.318541267 c 0
 750.846343802 423.318541267 766.5625 436.855739949 766.5625 458.75 c 0
 766.5625 460.343244116 766.246747071 464.68969195 752.448620262 481.248807573 c 0
 735.887476255 501.123816857 702.713712552 535.139743698 640.957978125 596.895478125 c 0
 575.36442817 662.48902808 541.920291207 695.246288858 523.047507263 710.50908314 c 0
 514.484300555 717.434318059 509.822159568 720.120748514 506.535316272 721.404188264 c 0
 504.806275561 722.079340493 502.11655014 722.5 500.3125 722.5 c 0
 497.478450192 722.5 492.056715006 721.981393046 478.116641099 710.800228938 c 0
 459.60219645 695.950017571 426.919492762 664.147949012 363.417021875 600.645478125 c 0
 317.012607643 554.241063893 282.774425384 518.452506611 261.228006005 494.18589923 c 0
 248.818603042 480.209836468 243.462135208 473.603953187 236.173482834 463.342852095 c 0
 235.814145789 462.224541211 235.417374178 459.955116647 235.417374178 457.250611717 c 0
 235.417374178 443.068523644 247.195064686 428.403277871 272.084148867 428.403277871 c 0
202.8125 -59.375 m 0
 202.8125 -66.7659108795 210.871554339 -76.7133649945 214.620228843 -80.6182342693 c 2
 224.826723945 -91.25 l 1
 775.798276055 -91.25 l 1
 779.495295637 -87.3989379359 783.100866316 -83.424420681 786.917798728 -79.692742617 c 0
 794.516113439 -72.2641425605 797.1875 -65.1156619858 797.1875 -59.375 c 0
 797.1875 -53.0246943914 793.565441373 -46.0074638722 786.131083794 -38.263341394 c 2
 775.798276055 -27.5 l 1
 224.826723945 -27.5 l 1
 221.049519538 -31.4345879238 217.393758139 -35.5586569928 213.434544783 -39.3096589561 c 0
 209.8948369 -42.6632168541 202.8125 -53.0229095786 202.8125 -59.375 c 0
EndSplineSet
Validated: 524297
EndChar

StartChar: uniF00E
Encoding: 61454 61454 13
Width: 1000
LayerCount: 2
Fore
SplineSet
16.9942298144 441.200241235 m 0
 16.9942298144 256.195637315 18.3672415205 62.1502165411 19.2306350647 -124.739316933 c 1
 40.7436677222 -151.914152854 l 2
 64.2237957339 -181.673166863 56.5357698392 -185.021633315 383.251299795 -185.021633315 c 2
 501.123333094 -185.000000601 l 1
 619.015015549 -185.021633916 l 2
 945.730545504 -185.021633916 938.000453773 -181.718105204 961.480581784 -151.959091195 c 2
 983.004882812 -124.769885079 l 1
 983.004882812 724.769865626 l 1
 961.516066339 751.914192724 l 2
 938.035938328 781.673206734 945.723995786 785.021633315 619.00846583 785.021633315 c 2
 501.136432531 785.000000601 l 2
 299.096213648 785.000000601 192.458248327 784.606676595 135.314985118 782.77870433 c 0
 109.881118052 781.965093049 94.4351886246 780.85422016 85.0902353954 779.509003474 c 0
 76.7898827999 778.314160186 75.1751678686 777.458499259 73.4277582271 776.563539105 c 0
 46.8806184666 762.967052212 27.1217719486 740.176880138 21.0945685337 720.588469039 c 1
 19.4872245971 701.959938901 19.1363280602 687.629710681 18.5451837499 659.380190497 c 0
 17.5485035503 611.750978935 16.9942298144 538.552610963 16.9942298144 441.200241235 c 0
919.254882812 -118.125 m 1
 83.07557964 -118.125 l 1
 82.1904148178 69.2313682039 80.8955078125 262.082009038 80.8955078125 448.4375 c 0
 80.8955078125 586.899455274 81.3604857428 649.289846353 82.967638466 714.924114769 c 1
 147.815017281 719.927903069 172.422963979 720.435586535 321.592335961 720.435586535 c 0
 510.31187523 720.435586535 725.041473606 718.961309853 919.254882812 718.055181972 c 1
 919.254882812 -118.125 l 1
384.412555207 452.874445266 m 0
 382.223729266 452.874445266 379.465876409 452.371747022 377.797931183 451.668611051 c 0
 374.512542809 450.283628672 370.13208803 447.505641889 361.742614514 440.223626929 c 0
 350.90850997 430.819686241 323.283450802 403.641436793 297.213283779 377.293302877 c 0
 275.925887569 355.778934918 253.673377568 332.80214736 245.248754978 321.375832707 c 0
 237.653109945 311.073860219 235.641466789 304.856905055 235.641466789 300.133273428 c 0
 235.641466789 295.582181497 237.526630421 289.643701505 244.471552063 280.010136568 c 0
 252.654993642 268.658573523 270.584528331 249.96276577 290.040947957 230.008928607 c 0
 312.364330706 207.114832319 338.22667153 181.835200167 356.553109501 165.068338596 c 0
 368.993230352 153.686869674 375.875623715 148.21989579 378.17318586 146.994529313 c 0
 383.250556732 144.286598181 388.964752127 142.972835721 393.883934879 142.972835721 c 0
 409.231699143 142.972835721 423.629882812 155.274371537 423.629882812 176.25 c 0
 423.629882812 178.093263151 422.961006058 181.900368903 417.763619184 189.631775848 c 0
 411.149378157 199.470833484 398.418178964 213.93793643 376.609721168 236.43872622 c 2
 315.928161987 300.115185432 l 1
 335.122957747 319.8150586 354.317727221 339.514958054 373.512497658 359.214856545 c 0
 387.655234087 373.694324793 400.930191714 389.199322424 410.132159784 401.388252599 c 0
 414.249142512 406.841609382 417.415007054 411.447063733 419.499630111 414.918838318 c 0
 422.028978522 419.131267754 421.415146537 418.046540958 421.634661825 418.869723286 c 0
 421.94202319 420.022328406 422.273825844 422.410246939 422.273825844 424.583053354 c 0
 422.273825844 434.86264138 417.366821865 442.749274549 406.010970131 448.245809427 c 0
 400.247946435 451.035266482 392.780995544 452.874445266 384.412555207 452.874445266 c 0
612.379882812 453.75 m 0
 599.987762658 453.75 592.188905082 450.226430061 587.096296108 444.770063303 c 0
 579.926735443 437.034484691 578.224007309 432.189433412 578.224007309 428.565373529 c 0
 578.224007309 424.947893138 579.605240404 419.6070865 585.508090055 410.433268533 c 0
 592.778544522 399.134009739 605.751147072 384.130930309 625.660023971 363.550967672 c 2
 686.279806899 299.9389643 l 1
 625.418767251 236.823812072 l 2
 602.88908362 213.947517924 590.496822838 199.96706353 584.133186866 190.380911899 c 0
 579.439769244 183.310769424 578.629882812 179.065356553 578.629882812 176.875 c 0
 578.629882812 155.149775437 592.940796855 142.980827114 608.167076899 142.980827114 c 0
 613.057082337 142.980827114 618.577795279 144.1911324 624.335886483 147.124499617 c 0
 626.192408634 148.070275052 632.296253528 152.774872318 643.887928452 163.363422581 c 0
 663.120862228 180.931969605 688.05717514 204.588782545 711.260443335 228.383674236 c 0
 730.759190731 248.379608731 749.92888326 268.500461286 757.811757687 279.43912159 c 0
 764.796467902 289.13144551 766.700634801 295.113069106 766.700634801 299.704922621 c 0
 766.700634801 304.478303838 764.65789385 310.753585795 756.955892347 321.138928114 c 0
 747.527365186 333.852309446 716.071901728 365.555500218 694.962493581 386.861687148 c 0
 628.875349232 453.568635488 625.648837713 453.75 612.379882812 453.75 c 0
EndSplineSet
Validated: 524297
EndChar

StartChar: uniF010
Encoding: 61456 61456 14
Width: 1000
Flags: W
LayerCount: 2
Fore
SplineSet
984.600263781 351.655990093 m 0
 984.600263781 417.383869059 984.093629521 464.17117996 983.003982969 494.779214595 c 0
 982.098579655 520.211879866 980.804943944 532.719168996 979.724274016 536.501513745 c 0
 978.062222658 542.226357312 973.646932165 550.46389171 960.774269395 566.225446775 c 0
 944.958807047 585.590226631 917.61263911 614.63523925 872.214248057 660.726735509 c 0
 836.569539165 696.371444401 805.644096266 726.132444523 782.737131477 746.551813283 c 0
 763.046573587 764.104065146 752.214540146 772.168009152 746.980891529 774.624571592 c 0
 739.28508005 778.236820485 731.265312271 780.871024292 709.463645412 782.491071638 c 0
 681.377537734 784.578105831 630.902129183 785 531.649414062 785 c 0
 439.365693096 785 387.96786035 784.400112578 358.598342891 782.543922368 c 0
 334.477123207 781.019431137 326.97285423 778.785223037 322.929505914 776.682681912 c 0
 298.358739415 764.130225113 285.996279992 754.279261302 278.472167717 738.934874888 c 0
 273.946942634 729.70630416 270.703600949 718.311441466 268.603151656 701.791589106 c 0
 265.98665304 681.213053372 265.399414062 653.176690736 265.399414062 615.625 c 2
 265.399414062 599.365354667 l 2
 265.399414062 557.511693288 266.041598561 537.879061513 268.043202778 527.896060482 c 0
 268.746696994 524.387383079 269.688606275 522.141569634 270.354861653 520.980619056 c 0
 271.419125755 519.126136587 273.395877284 517.061814116 276.883198152 513.4697845 c 0
 283.347246229 506.811649783 289.647102286 503.864294861 295.103490048 503.205055577 c 0
 300.827285524 504.761152783 312.701116788 508.866496633 316.491140131 510.953393677 c 0
 324.051053621 517.118132011 325.955723318 512.878943083 328.842710268 598.676558892 c 0
 330.178782143 638.382932158 331.450445824 678.160919647 332.748677561 717.887082082 c 1
 434.576146032 719.394334129 536.820219656 720.544613265 639.50896212 721.339367423 c 1
 643.43237408 500.320493672 l 1
 659.053595475 480.533613238 l 2
 672.790928229 463.13299175 683.074524616 454.047818661 697.064227302 448.770977305 c 0
 715.782059104 441.710710823 745.67113101 440 807.899414062 440 c 2
 921.777353601 440 l 1
 918.451230732 -55.4700924738 l 1
 312.713056008 -61.7993168012 l 1
 310.183421174 -64.9946450128 307.685475474 -68.2192527878 305.120837041 -71.3860012653 c 0
 299.331098118 -78.5350194995 297.207449777 -85.0557744859 297.207449777 -90.3817135113 c 0
 297.207449777 -96.9661875329 300.898633446 -103.994786915 308.33776423 -111.743881482 c 2
 318.663638007 -122.5 l 1
 614.149414062 -122.5 l 1
 684.820683364 -122.51017008 l 2
 826.889746977 -122.51017008 890.40803284 -121.696743448 921.48563498 -115.119327756 c 0
 932.292175584 -112.832178657 938.889131416 -109.935556876 943.657668147 -106.73399176 c 0
 949.811885326 -102.602089637 955.44378584 -95.9152630448 962.916796183 -86.6779453737 c 0
 969.345978374 -78.7308938465 975.78580775 -70.5569025788 982.308982793 -62.2702616164 c 1
 983.20857177 73.282286291 984.600263781 219.544327546 984.600263781 351.655990093 c 0
782.902003846 504.754809472 m 0
 751.709207453 504.754809472 736.80391972 505.454919829 710.333276842 506.31301785 c 1
 708.520193273 520.681343037 706.38197911 533.325838144 705.43109303 548.487415067 c 0
 704.487334494 563.535345559 704.149414062 584.424175369 704.149414062 613.75 c 2
 704.149414062 739.33404375 l 1
 935.80766811 507.675789702 l 1
 884.906535842 506.518945787 834.71838991 504.754809472 782.902003846 504.754809472 c 0
167.477493963 377.514776749 m 0
 166.620004369 377.514776749 163.200233652 377.266232547 154.20175084 370.045725251 c 0
 142.988927324 361.048400289 121.833496748 340.225316744 88.5039359375 306.895478125 c 0
 53.4731388346 271.864681022 33.8005214522 251.121848994 23.8839355501 238.077002555 c 0
 15.9588660724 227.65191116 15.3994140625 223.554356877 15.3994140625 221.875 c 0
 15.3994140625 220.34393288 15.8991765703 216.42213669 23.394708401 206.331276962 c 0
 32.7386227848 193.752032223 51.2520537976 173.827770913 84.1847354241 140.54842948 c 0
 106.226266329 118.162499654 127.742970451 97.4572786677 143.429503326 83.3817724369 c 0
 150.424408779 77.1052525674 156.169905216 72.2328166319 160.14630281 69.1773621009 c 0
 163.150882174 66.8686504056 163.759127591 66.0528137672 168.024070536 66.0528137672 c 0
 176.025264944 66.0528137672 185.882815112 70.9605053322 193.834014893 80.1262177142 c 0
 200.10697356 87.3573446512 203.096600295 94.8239553988 203.096600295 101.125343526 c 0
 203.096600295 104.455596506 202.344211199 105.870269438 200.898322126 107.866319998 c 0
 198.798640441 110.764931574 195.489282115 114.867151294 191.151153156 119.900790454 c 0
 172.436181712 141.616238294 140.994560712 172.428703478 116.516930974 196.600636525 c 2
 91.7462352611 221.0619755 l 1
 155.922781173 286.730999224 l 2
 179.12522944 310.219897469 191.853188114 323.611791581 198.023209205 332.05709417 c 0
 202.247997216 337.839831799 202.769329138 341.30406202 202.769329138 342.180405737 c 0
 202.769329138 352.282746808 197.074735537 364.521147528 194.804145733 367.254900225 c 0
 191.725440238 370.961611164 186.044819657 373.843879646 173.235893763 376.639347366 c 0
 169.887490885 377.370115288 168.837111586 377.514776749 167.477493963 377.514776749 c 0
359.028589308 350.054166524 m 0
 359.028589308 346.946626605 360.253173703 342.137528667 366.381599356 333.027336131 c 0
 379.374628597 313.712587983 421.092919133 272.229158423 446.549398475 246.472502913 c 2
 470.860373538 221.87485917 l 1
 458.818554513 209.691371685 447.237822509 197.938389799 435.070893668 185.730801174 c 0
 409.800017203 160.375473786 376.961165194 126.491391517 365.81875759 109.577201548 c 0
 359.553635713 100.066737977 358.160018514 94.786119433 358.160018514 91.2707632064 c 0
 358.160018514 87.7895054842 359.947792348 82.922531324 368.745396068 74.7247642211 c 0
 378.062373832 66.0024871656 382.376497993 64.282109238 385.901026572 64.282109238 c 0
 389.666498301 64.282109238 395.721497927 66.0163274087 408.204455483 75.2739294872 c 0
 423.200776877 86.3954906622 444.387663874 106.447293561 475.419892188 137.479521875 c 0
 510.454148528 172.513778215 529.926064702 193.059385604 539.658693146 205.911446242 c 0
 547.333901506 216.046657282 547.899414062 220.192985427 547.899414062 221.875 c 0
 547.899414062 223.557014573 547.333901506 227.703342718 539.658693146 237.838553758 c 0
 529.926064702 250.690614396 510.454148528 271.236221785 475.419892187 306.270478125 c 0
 444.637085715 337.053284597 423.637537389 357.036317316 408.846891468 368.139476867 c 0
 396.428284097 377.46197568 390.728000775 379.063170711 387.295205802 379.063170711 c 0
 383.992798993 379.063170711 379.762554089 376.713813706 370.125999457 367.271728312 c 0
 360.718120915 358.05370424 359.028589308 353.423301886 359.028589308 350.054166524 c 0
EndSplineSet
Validated: 524297
EndChar

StartChar: uniF011
Encoding: 61457 61457 15
Width: 1000
Flags: W
LayerCount: 2
Fore
SplineSet
390.633789062 785 m 0
 306.338412049 785 258.897620086 784.398108072 231.488923409 782.548135371 c 0
 208.663910506 781.00754044 201.798091981 778.817384671 197.233708056 776.527916517 c 0
 187.889458588 771.840895895 173.499560869 761.90169703 166.203148594 755.051831713 c 0
 158.418878634 747.743984825 155.023677776 744.435466999 152.0122514 737.339590913 c 0
 147.824215127 727.471248565 144.585101733 709.50334331 142.703332788 668.98841927 c 0
 140.072878972 612.35413546 140.010630973 514.272118041 140.010630973 339.287843223 c 2
 139.987155039 221.370884014 l 2
 139.987155039 54.6642188994 140.800491762 -19.8893570589 147.261429835 -55.6683200176 c 0
 149.532179731 -68.2431312116 152.34460666 -75.4327248601 155.381710502 -80.3789798549 c 0
 159.14698104 -86.5111337661 164.915698213 -91.3395614521 173.72779599 -98.3593848025 c 2
 200.24829523 -119.375 l 1
 799.804879368 -119.375 l 1
 807.214378361 -113.525395532 814.614297716 -107.665227511 822.035841528 -101.829607728 c 0
 832.948212358 -93.2491224924 839.264805806 -87.9327853759 844.095744187 -80.8626128296 c 0
 847.400517204 -76.0260130608 850.351762055 -69.4307730583 852.658577233 -58.799241715 c 0
 859.062998186 -29.2828752813 860.012252758 29.7807965905 860.012252758 159.099179664 c 0
 860.012252758 179.606937461 860.012252758 200.114695258 860.012252758 220.622453055 c 0
 860.012252758 349.392042065 859.611729746 420.532682746 857.900345718 461.166432912 c 0
 856.506882418 494.251724498 854.249372167 505.663109697 851.730436067 511.863567788 c 0
 851.204596028 513.15794327 850.433693558 514.524210946 845.641527623 520.87012579 c 0
 840.864007689 527.196646005 833.855456869 535.635761024 825.19120858 545.531385962 c 0
 776.998482118 600.57333882 693.683084159 684.0611681 640.176228646 733.20462898 c 0
 626.254458968 745.991101611 614.080105012 756.686754918 604.841734931 764.162213923 c 0
 596.747208613 770.71210304 592.803823174 773.419956647 590.47550066 774.560256929 c 0
 579.120377528 779.915647595 572.439086222 782.275839217 536.193793005 783.768706567 c 0
 507.613724337 784.94585923 462.899593391 785 390.633789062 785 c 0
515.008789062 607.5 m 2
 515.008789062 545.271716948 516.719499886 515.382645041 523.779766367 496.66481324 c 0
 529.021611025 482.767892082 537.673169846 473.348215857 555.513247989 458.681813254 c 2
 575.331185388 443.032926243 l 1
 796.384722462 439.108898958 l 1
 793.060015349 -55.625 l 1
 206.960512792 -55.625 l 1
 206.073150042 117.40688943 204.774414062 295.497568092 204.774414062 467.685546875 c 0
 204.774414062 597.841259557 205.213365042 651.871815295 206.896709856 715.597065715 c 1
 257.277481115 720.158165248 270.89296357 721.25 362.508789062 721.25 c 2
 515.008789062 721.25 l 1
 515.008789062 607.5 l 2
648.419998886 504.754809472 m 0
 622.215659783 504.754809472 607.312556132 505.550165668 584.125675127 506.370542311 c 1
 580.462667244 539.875513909 578.758789062 550.607206157 578.758789062 598.125 c 2
 578.758789062 708.08404375 l 1
 778.986148514 507.856684298 l 1
 735.496739571 506.637355075 692.777604208 504.754809472 648.419998886 504.754809472 c 0
EndSplineSet
Validated: 524297
EndChar

StartChar: uniF00D
Encoding: 61453 61453 16
Width: 1000
LayerCount: 2
Fore
SplineSet
577.5 502.5 m 1
 610 502.5 l 1
 610 535 l 1
 577.5 535 l 1
 577.5 502.5 l 1
172.5 377.5 m 1
 172.5 410 l 1
 140 410 l 1
 140 377.5 l 1
 172.5 377.5 l 1
485 502.5 m 1
 485 535 l 1
 452.5 535 l 1
 452.5 502.5 l 1
 485 502.5 l 1
235 502.5 m 1
 235 535 l 1
 140 535 l 1
 140 502.5 l 1
 235 502.5 l 1
765 160 m 1
 765 127.5 l 1
 860 127.5 l 1
 860 160 l 1
 765 160 l 1
515 410 m 1
 515 377.5 l 1
 547.5 377.5 l 1
 547.5 410 l 1
 515 410 l 1
235 127.5 m 1
 235 160 l 1
 140 160 l 1
 140 127.5 l 1
 235 127.5 l 1
735 502.5 m 1
 735 535 l 1
 702.5 535 l 1
 702.5 502.5 l 1
 735 502.5 l 1
860 502.5 m 1
 860 535 l 1
 827.5 535 l 1
 827.5 502.5 l 1
 860 502.5 l 1
765 410 m 1
 765 252.5 l 1
 860 252.5 l 1
 860 410 l 1
 765 410 l 1
985 612.5 m 2
 985 638.595581777 963.595581777 660 937.5 660 c 2
 62.5 660 l 2
 36.4044182229 660 15 638.595581777 15 612.5 c 2
 15 50 l 2
 15 23.9044182229 36.4044182229 2.5 62.5 2.5 c 2
 937.5 2.5 l 2
 963.595581777 2.5 985 23.9044182229 985 50 c 2
 985 612.5 l 2
952.5 35 m 1
 47.5 35 l 1
 47.5 627.5 l 1
 952.5 627.5 l 1
 952.5 35 l 1
390 410 m 1
 390 377.5 l 1
 422.5 377.5 l 1
 422.5 410 l 1
 390 410 l 1
360 502.5 m 1
 360 535 l 1
 327.5 535 l 1
 327.5 502.5 l 1
 360 502.5 l 1
265 410 m 1
 265 377.5 l 1
 297.5 377.5 l 1
 297.5 410 l 1
 265 410 l 1
327.5 160 m 1
 327.5 127.5 l 1
 672.5 127.5 l 1
 672.5 160 l 1
 327.5 160 l 1
640 410 m 1
 640 377.5 l 1
 672.5 377.5 l 1
 672.5 410 l 1
 640 410 l 1
172.5 252.5 m 1
 172.5 285 l 1
 140 285 l 1
 140 252.5 l 1
 172.5 252.5 l 1
547.5 285 m 1
 515 285 l 1
 515 252.5 l 1
 547.5 252.5 l 1
 547.5 285 l 1
422.5 285 m 1
 390 285 l 1
 390 252.5 l 1
 422.5 252.5 l 1
 422.5 285 l 1
297.5 252.5 m 1
 297.5 285 l 1
 265 285 l 1
 265 252.5 l 1
 297.5 252.5 l 1
640 285 m 1
 640 252.5 l 1
 672.5 252.5 l 1
 672.5 285 l 1
 640 285 l 1
EndSplineSet
Validated: 524297
EndChar

StartChar: uniF012
Encoding: 61458 61458 17
Width: 1000
LayerCount: 2
Fore
SplineSet
16.9942298144 417.507064114 m 0
 16.9942298144 260.525630166 18.3611483282 96.2214104475 19.2262098343 -62.2337413296 c 1
 40.7436621439 -89.4141458076 l 2
 64.2237901557 -119.173159817 56.5357698392 -122.521633315 383.251299795 -122.521633315 c 2
 501.123333094 -122.500000601 l 1
 619.015015549 -122.521633916 l 2
 945.730545504 -122.521633916 938.000453773 -119.218105204 961.480581784 -89.4590911948 c 2
 983.004882812 -62.2698850794 l 1
 983.004882812 662.269865626 l 1
 961.516066339 689.414192724 l 2
 938.035938328 719.173206734 945.723995786 722.521633315 619.00846583 722.521633315 c 2
 501.136432531 722.500000601 l 2
 299.096213648 722.500000601 192.458248327 722.106676595 135.314985118 720.27870433 c 0
 109.881118052 719.465093049 94.4351886246 718.35422016 85.0902353954 717.009003474 c 0
 76.7898827999 715.814160186 75.1751678686 714.958499259 73.4277582271 714.063539105 c 0
 46.8806184666 700.467052212 27.1217719486 677.676880138 21.0945685337 658.088469039 c 0
 20.9717130278 657.689188645 20.3498724658 655.003497327 19.9373303432 649.697770266 c 0
 19.2902892221 641.376138612 18.878827505 618.243779419 18.5440922772 604.36133918 c 0
 17.5486727711 563.078406699 16.9942298144 500.246729952 16.9942298144 417.507064114 c 0
321.592335961 657.935586535 m 0
 510.289319334 657.935586535 724.988732703 656.461555923 919.181719339 655.555523326 c 1
 922.665985687 121.366254665 l 1
 789.819169196 242.628036762 l 2
 757.009996153 272.328972359 724.737897174 300.141084734 700.786162447 319.709440044 c 0
 689.708226854 328.760015389 680.929755323 335.620173623 673.890941176 340.784510256 c 0
 668.00363294 345.10399376 667.032086249 345.682093711 665.704152833 346.272286341 c 0
 655.045715895 350.981828243 641.29864175 353.529142193 627.085660433 353.529142193 c 0
 611.653994385 353.529142193 597.200942444 350.441041647 587.169247588 345.31017263 c 0
 585.783970061 344.613786851 585.301226899 344.365019403 578.693763259 338.449487982 c 0
 565.233511461 326.398790955 551.986892048 314.432358164 531.276390632 294.860781303 c 0
 490.811280973 256.620953693 433.918766041 201.233146376 373.575427744 141.236608873 c 2
 171.336358116 -59.7224666432 l 1
 83.0842402564 -54.8195712066 l 1
 82.19606344 103.567772117 80.8955078125 266.436546287 80.8955078125 424.169921875 c 0
 80.8955078125 542.410378535 81.35819409 590.868211644 82.9569143344 652.415952989 c 1
 147.744059145 657.430193307 172.351675586 657.935586535 321.592335961 657.935586535 c 0
923.36559039 35.0650010002 m 1
 918.456754956 -55.5689570946 l 1
 267.800167207 -58.9955491032 l 1
 452.987400984 126.191426592 l 2
 521.050365384 194.740555024 582.470416642 253.031513486 608.238669766 275.292083397 c 2
 630.457037878 294.485993604 l 1
 653.202025799 275.930646943 l 2
 716.898926036 223.966756294 843.903960178 107.134851658 923.36559039 35.0650010002 c 1
420.504882812 425 m 0
 420.504882812 447.442251412 416.596200896 463.796111847 410.519898023 476.634396349 c 0
 402.882923562 492.77013759 391.307160824 504.636992937 373.853148679 516.408303453 c 0
 358.99418722 526.429463506 332.94196466 532.876476382 307.30107261 532.876476382 c 0
 291.324188789 532.876475344 280.415185981 530.657570369 271.627543281 527.262800536 c 0
 260.726294962 523.051519969 251.654313423 516.5410005 240.130662426 505.190323561 c 0
 224.6533161 489.945297651 212.643509857 471.561898044 208.721707066 457.275330734 c 0
 206.131026109 447.837850106 204.892903887 437.364031136 204.892903887 427.09450017 c 0
 204.892903887 387.421951082 224.351302252 351.595243147 257.409661426 330.716279458 c 0
 271.599148116 321.754498391 291.422687452 316.933068051 312.651820413 316.933068051 c 0
 335.310783223 316.933068051 357.203267375 322.581610879 372.251308618 332.5240667 c 0
 390.666998092 344.702183933 402.539726294 357.013184783 410.254632544 372.884404473 c 0
 416.477040728 385.68523498 420.504882812 402.030154896 420.504882812 425 c 0
267.379882812 425 m 0
 267.379882812 431.51786499 267.625901776 430.503186263 268.559810189 434.145708403 c 0
 270.553944212 441.923427529 273.015824525 446.973680467 279.143807829 454.031189328 c 0
 283.404851062 458.938570715 287.837841685 462.233215615 291.688847392 464.557101456 c 0
 298.831400546 468.867268567 305.02706799 470.203834856 313.942518364 472.298324403 c 1
 329.562495076 468.136278282 341.253989423 465.327025617 351.761608201 449.143382593 c 0
 355.919552018 442.739393271 358.960639844 434.295736874 358.960639844 424.946659768 c 0
 358.960639844 401.706507455 340.840531512 378.75 313.629882812 378.75 c 0
 307.112017822 378.75 308.12669655 378.996018964 304.48417441 379.929927377 c 0
 296.706455208 381.924061419 291.656202055 384.385941965 284.598693123 390.51392533 c 0
 277.823855216 396.396467513 274.1031999 402.497179494 271.779151959 407.278971856 c 0
 270.135806516 410.660200163 269.176338114 413.080143638 268.281067967 417.018615484 c 0
 267.952259514 418.465109415 267.379882812 419.26209227 267.379882812 425 c 0
EndSplineSet
Validated: 524297
EndChar

StartChar: uniF013
Encoding: 61459 61459 18
Width: 1000
LayerCount: 2
Fore
SplineSet
460.335690399 64.2403810568 m 0
 468.042729467 64.2403810568 473.600103497 63.6308396962 479.542108238 63.1851893406 c 2
 511.106279923 60.8178764642 l 1
 515.565442065 -121.25 l 1
 479.697546818 -121.25 l 2
 460.487166629 -121.25 441.276786439 -121.25 422.06640625 -121.25 c 1
 422.06640625 -32.5 l 2
 422.06640625 10.2317222686 424.057592604 30.1514991203 426.380988288 63.6326339182 c 1
 437.698796018 63.8410374895 448.987936172 64.2403810568 460.335690399 64.2403810568 c 0
514.56640625 190.625 m 0
 514.56640625 189.035252003 514.739603726 187.59285858 516.891767842 182.802348695 c 0
 517.482913032 181.486515354 518.115932086 180.220084396 518.78414869 179.020020824 c 2
 533.155089277 153.210961056 l 1
 571.384062313 158.07877475 l 2
 583.742631555 159.652429698 592.39687256 164.186305162 598.631656735 170.268145742 c 0
 606.259709478 177.70907704 608.94140625 184.87487312 608.94140625 190.625 c 0
 608.941405913 196.985644421 605.299500028 203.996653499 597.880305269 211.743088589 c 0
 593.7509208 216.05460888 590.379387439 218.389002889 587.329087553 219.622515263 c 0
 582.607797291 221.531760314 576.121728514 222.5 562.06640625 222.5 c 0
 548.011083986 222.5 541.525015209 221.531760314 536.803724947 219.622515263 c 0
 533.452925688 218.267483586 529.494527197 214.772939721 525.181030237 210.683308695 c 0
 521.64390732 207.329758719 514.56640625 196.972598968 514.56640625 190.625 c 0
457.945090965 127.857075573 m 0
 434.932146466 127.857075573 423.948411733 125.473556655 416.108440038 121.197208457 c 0
 390.436415721 107.415384876 378.182441143 97.7708146486 370.786546895 81.6224459109 c 0
 366.442879759 72.1383813416 363.367203087 59.5395566389 361.395369948 41.0717116114 c 0
 358.941750852 18.0915433989 358.31640625 -13.1453752499 358.31640625 -56.25 c 2
 358.304931941 -86.3755881043 l 2
 358.304931941 -128.021194733 358.922052113 -148.521726804 360.767390588 -158.985534093 c 0
 361.503343012 -163.158678716 362.436462498 -165.434056327 363.08072101 -166.582218145 c 0
 364.377027196 -168.892423571 374.163980264 -178.682516053 376.604151522 -180.112243877 c 0
 377.683964056 -180.744919973 379.843339351 -181.672990702 383.239402975 -182.368059688 c 0
 392.907678048 -184.346855994 411.837475345 -185.002940923 451.930540448 -185.002940923 c 0
 462.856586129 -185.002940923 473.78263181 -185.002940923 484.70867749 -185.002940923 c 0
 524.801742593 -185.002940923 543.725134452 -184.346855994 553.393409525 -182.368059688 c 0
 556.789473149 -181.672990702 558.948848444 -180.744919973 560.028660978 -180.112243877 c 0
 562.358354526 -178.747247485 572.176645697 -169.026408573 573.537074477 -166.590228322 c 0
 574.187069945 -165.426252562 575.120573862 -163.137415718 575.8614699 -158.898304943 c 0
 577.714946837 -148.293451305 578.327497908 -127.464350455 578.327497908 -85.1880882555 c 2
 578.316408659 -55.0131125275 l 2
 578.316408659 -15.1398625125 578.190433 13.558085454 576.571948067 34.3578163268 c 0
 575.273020174 51.0508049693 573.088071065 62.3338990873 569.934344926 71.3642047894 c 0
 566.20958015 82.0296091776 561.054172172 89.0868669757 551.666312708 98.0602918049 c 2
 523.646165652 124.843466847 l 1
 501.970775229 126.141092828 480.796010038 127.857075573 457.945090965 127.857075573 c 0
389.56640625 284.375 m 0
 389.56640625 277.229606704 397.406855199 267.160140476 401.112395704 263.40749696 c 0
 408.397543313 256.029744133 421.632811342 251.25 437.06640625 251.25 c 0
 453.27856963 251.250000729 465.868907228 256.445821883 473.631656735 264.018145742 c 0
 481.259709478 271.45907704 483.94140625 278.62487312 483.94140625 284.375 c 0
 483.941405913 290.735644421 480.299500028 297.746653499 472.880305269 305.493088589 c 0
 468.7509208 309.80460888 465.379387439 312.139002889 462.329087553 313.372515263 c 0
 457.607797291 315.281760314 451.121728514 316.25 437.06640625 316.25 c 0
 423.011083986 316.25 416.525015209 315.281760314 411.803724947 313.372515263 c 0
 408.452925688 312.017483586 404.494527197 308.522939721 400.181030237 304.433308695 c 0
 396.64390732 301.079758719 389.56640625 290.722598968 389.56640625 284.375 c 0
514.56640625 378.125 m 0
 514.56640625 370.979606704 522.4068552 360.910140476 526.112395704 357.15749696 c 0
 533.397543313 349.779744133 546.632811342 345 562.06640625 345 c 0
 578.27856963 345.000000728 590.868907228 350.195821883 598.631656735 357.768145741 c 0
 606.259709478 365.20907704 608.94140625 372.374873119 608.94140625 378.125 c 0
 608.941405913 384.485644421 605.299500028 391.496653499 597.880305269 399.243088589 c 0
 593.7509208 403.55460888 590.379387439 405.889002889 587.329087553 407.122515263 c 0
 582.607797291 409.031760314 576.121728514 410 562.06640625 410 c 0
 548.011083986 410 541.525015209 409.031760314 536.803724947 407.122515263 c 0
 533.452925688 405.767483586 529.494527197 402.272939721 525.181030237 398.183308695 c 0
 521.64390732 394.829758719 514.56640625 384.472598968 514.56640625 378.125 c 0
389.56640625 471.875 m 0
 389.56640625 464.729606704 397.4068552 454.660140476 401.112395704 450.90749696 c 0
 408.397543313 443.529744133 421.632811342 438.75 437.06640625 438.75 c 0
 453.27856963 438.750000729 465.868907228 443.945821883 473.631656735 451.518145742 c 0
 481.259709478 458.95907704 483.94140625 466.124873119 483.94140625 471.875 c 0
 483.941405913 478.235644421 480.299500028 485.246653499 472.880305269 492.993088589 c 0
 468.7509208 497.30460888 465.379387439 499.639002889 462.329087553 500.872515263 c 0
 457.607797291 502.781760314 451.121728514 503.75 437.06640625 503.75 c 0
 423.011083986 503.75 416.525015209 502.781760314 411.803724947 500.872515263 c 0
 408.452925688 499.517483586 404.494527197 496.022939721 400.181030237 491.933308695 c 0
 396.64390732 488.579758719 389.56640625 478.222598968 389.56640625 471.875 c 0
514.56640625 565.625 m 0
 514.56640625 558.479606704 522.406855199 548.410140476 526.112395704 544.65749696 c 0
 533.397543313 537.279744133 546.632811342 532.5 562.06640625 532.5 c 0
 578.27856963 532.500000729 590.868907228 537.695821883 598.631656735 545.268145741 c 0
 606.259709478 552.70907704 608.94140625 559.874873119 608.94140625 565.625 c 0
 608.941405913 571.985644421 605.299500028 578.996653499 597.880305269 586.743088589 c 0
 593.7509208 591.05460888 590.379387439 593.389002889 587.329087553 594.622515263 c 0
 582.607797291 596.531760314 576.121728514 597.5 562.06640625 597.5 c 0
 548.011083986 597.5 541.525015209 596.531760314 536.803724947 594.622515263 c 0
 533.452925688 593.267483586 529.494527197 589.772939721 525.181030237 585.683308695 c 0
 521.643907319 582.329758719 514.56640625 571.972598968 514.56640625 565.625 c 0
405.81640625 785 m 0
 313.532685284 785 262.134852537 784.400112578 232.765335078 782.543922368 c 0
 208.337761876 781.000069211 201.211788851 778.783034645 196.866985481 776.564411648 c 0
 170.272555941 762.984277415 150.585290038 740.264612756 144.531091971 720.588469039 c 1
 142.924939352 703.218169872 142.571630351 689.479887387 141.981213337 663.149400172 c 0
 140.985105395 618.726548481 140.430753252 550.787581304 140.430753252 460.913311531 c 0
 140.430753252 289.97577322 141.801998957 110.902435048 142.66557333 -61.6985804579 c 1
 147.525517313 -67.9470798641 152.473701405 -74.1359020355 157.247008781 -80.4516384834 c 0
 175.471098122 -104.564593345 191.155683296 -112.811071782 202.67541425 -112.811071782 c 0
 206.184711982 -112.811071705 209.875138284 -111.878298617 213.406966658 -110.429931692 c 0
 229.130022898 -103.982066112 234.190485729 -94.6073692796 234.190485729 -86.5407357623 c 0
 234.190485729 -79.7779738693 230.886041612 -71.0130683679 222.278138461 -60.6826445152 c 0
 215.947873211 -53.0856348856 209.617607962 -45.4886252559 203.287342712 -37.8916156263 c 1
 206.486555256 717.824855814 l 1
 419.352794605 722.157360274 l 1
 392.971914035 670.173066034 l 2
 390.984395172 666.256602173 390.19140625 662.754388719 390.19140625 659.453125 c 0
 390.19140625 653.005366958 393.846092053 645.990008525 401.252512804 638.256907996 c 0
 405.381893378 633.945390169 408.753425057 631.610997113 411.803724947 630.377484737 c 0
 416.525015209 628.468239686 423.011083986 627.5 437.06640625 627.5 c 0
 451.121728514 627.5 457.607797291 628.468239686 462.329087553 630.377484737 c 0
 465.607199388 631.703121668 469.396464384 634.874223555 473.685661445 639.070909177 c 0
 481.273611162 646.495198392 483.94140625 653.637641379 483.94140625 659.375 c 0
 483.94140625 662.653050037 483.131409383 666.129213705 481.099082802 669.993210873 c 2
 454.139814863 721.25 l 1
 596.40045 721.25 l 1
 795.860355828 521.790094172 l 1
 792.635807573 -54.3062889314 l 1
 776.914718563 -55.7619453211 761.193629554 -57.2176017109 745.472540545 -58.6732581006 c 0
 722.505566988 -60.9837252717 715.327452735 -65.5696155442 710.52514514 -71.4009890526 c 0
 704.746565978 -78.5130864821 702.686227966 -85.0076954171 702.686227966 -90.2705377247 c 0
 702.686227966 -96.4761716359 705.570707567 -104.170257567 713.920928125 -112.520478125 c 0
 719.585014653 -118.184564653 722.062199898 -119.886735508 724.578161043 -120.794669027 c 0
 726.925724562 -121.641832988 730.261145149 -122.312381769 737.60639305 -122.274716342 c 0
 740.216501452 -122.261332063 753.16096741 -121.784222888 760.987954939 -121.287803668 c 0
 781.115245141 -119.946460562 791.439847843 -118.877092797 799.36773206 -115.889581245 c 0
 805.326718081 -113.644021451 810.952789698 -109.80721337 818.952837362 -103.283569672 c 0
 820.808431738 -101.770424118 822.573934207 -100.359966191 824.235457094 -99.031930389 c 0
 834.154681001 -91.1036107857 839.45332428 -86.5727087565 843.783295872 -80.0657979726 c 0
 847.043290402 -75.166806581 849.974425689 -68.3855930008 852.28054208 -57.2083052512 c 0
 858.696742918 -26.1102551711 859.569717603 36.675991765 859.569717603 174.598856304 c 0
 859.569717603 195.148432549 859.569717603 215.698008793 859.569717603 236.247585037 c 0
 859.569717603 372.657339978 859.170226815 447.776506415 857.456736435 490.457224818 c 0
 856.06044667 525.236906667 853.78526182 536.966592857 851.288053254 543.113567788 c 0
 850.06037317 546.135549534 841.533398639 557.815469737 827.829437256 573.774149515 c 0
 785.918833319 622.585467874 713.705140166 695.178068625 666.280802343 738.176508264 c 0
 653.971940088 749.336640277 643.131604816 758.672977035 634.775920228 765.23381899 c 0
 627.183424169 771.19540911 623.776463304 773.382879932 621.16268676 774.6171633 c 0
 613.410494216 778.27792089 605.721897593 780.859030831 583.832458451 782.491364966 c 0
 555.855157999 784.577681672 505.41625084 785 405.81640625 785 c 0
EndSplineSet
Validated: 524297
EndChar

StartChar: uniF014
Encoding: 61460 61460 19
Width: 1000
LayerCount: 2
Fore
SplineSet
187.5 722.5 m 2
 161.2610144 722.5 140 701.2389856 140 675 c 2
 140 -75 l 2
 140 -101.2389856 161.2610144 -122.5 187.5 -122.5 c 2
 812.5 -122.5 l 2
 838.7389856 -122.5 860 -101.2389856 860 -75 c 2
 860 512.54095625 l 1
 650.04095625 722.5 l 1
 187.5 722.5 l 2
172.5 690 m 1
 444.189404518 690 l 1
 421.915245633 640.633971802 l 2
 420.279566144 637.008829313 419.229884233 633.336228301 418.282478034 629.391059998 c 0
 413.704154709 610.326105499 411.405689078 590.827804254 411.405689078 571.317622846 c 0
 411.405689155 561.714936139 412.129145986 552.125893887 413.068010003 542.574719424 c 0
 416.521471545 507.4422475 422.925215629 472.658906514 432.210346756 438.598825496 c 2
 435.059730493 428.146604673 l 1
 414.451134349 368.697193109 391.241126693 311.732575722 363.425154997 255.806369325 c 0
 342.508165817 213.972390965 324.974425788 175.967742434 304.147340879 135.768851102 c 1
 287.686024883 129.315328132 271.964553649 122.928516415 256.449039294 115.203177584 c 0
 245.973892936 110.419104786 235.894681235 104.994867877 226.214157569 98.8528093745 c 2
 172.5 64.7724734727 l 1
 172.5 690 l 1
618.067952688 201.397379649 m 1
 573.818077345 193.266167452 528.683016874 185.601527901 485.789978531 175.987571031 c 0
 462.975097091 170.873890708 439.899132037 163.739657651 416.794135625 155.734534004 c 2
 317.059267675 121.179672554 l 1
 376.377653794 208.45555395 l 2
 382.857948901 217.990092973 388.992338219 228.264463465 394.079043114 238.577627162 c 0
 408.468758643 267.752406292 421.319247455 297.648862503 432.581184186 328.143230153 c 2
 461.126032476 405.435184375 l 1
 496.963189103 331.218631703 l 2
 510.360442501 303.47374187 527.514119079 277.629580454 548.006181153 254.426933992 c 0
 548.099515887 254.33952447 552.805247399 250.688822481 554.52852452 249.387270311 c 2
 618.067952688 201.397379649 l 1
826.875 -90 m 1
 191.246189851 -90 l 1
 249.476538637 -30.5218218419 l 2
 288.301055858 9.13467344531 321.618275574 53.8389227422 348.529102759 102.396742017 c 2
 354.515920318 113.199338424 l 1
 383.705706734 125.157861894 408.773381732 134.822286011 437.453893923 143.707409277 c 0
 467.056669944 152.878246681 497.834082748 158.49129375 528.921685453 164.708814291 c 0
 562.485263986 171.421528059 594.088754435 174.902795384 627.027021259 177.806014105 c 1
 635.556567635 173.78489805 l 2
 681.279109119 152.229748745 731.259799504 136.018682449 788.908167753 130 c 1
 801.563778502 130 814.219389251 130 826.875 130 c 1
 826.875 -90 l 1
504.717683633 619.991007213 m 0
 504.717683633 627.103386431 503.20480703 634.208089172 500.290315006 640.70762255 c 2
 478.186845022 690 l 1
 631.20904375 690 l 1
 827.5 493.70904375 l 1
 827.5 208.790968739 l 1
 779.651614858 227.707426137 l 2
 776.005292309 229.148969147 772.273527146 230.499393845 768.387609449 231.804430351 c 0
 754.057417499 235.166606123 739.601957943 237.370374023 725.273716288 238.121833219 c 0
 698.916299753 237.908832123 671.850919682 235.710019887 646.358103393 232.767549883 c 1
 637.913571305 236.327682128 l 2
 614.650257431 246.135268028 592.604107996 259.279980819 575.435593909 277.714199687 c 0
 536.669470581 319.338256284 509.319458185 370.30742196 492.639723631 424.81114082 c 2
 490.251980153 432.613477173 l 1
 496.972228261 473.898105651 501.714633855 516.997342816 503.144190421 559.574761372 c 0
 503.710127621 567.05345282 504.026611328 574.654143658 504.026611328 582.1875 c 0
 504.026611178 590.250136461 503.584046147 598.548441958 503.05031568 606.376673577 c 1
 503.824477558 610.536819229 504.717683633 615.341372581 504.717683633 619.991007213 c 0
EndSplineSet
Validated: 524297
EndChar

StartChar: uniF015
Encoding: 61461 61461 20
Width: 1000
LayerCount: 2
Fore
SplineSet
308.179252176 723.598843505 m 0
 255.769983026 723.598843505 203.054966718 722.43816967 164.491336721 720.176448428 c 0
 146.013773424 719.092756426 132.258734047 717.811877264 120.882058971 716.273267047 c 0
 111.677775612 715.028456562 112.380482526 715.033387019 110.353900154 714.017704167 c 0
 85.2481122168 701.435181662 68.7299066507 683.384446393 60.6444600257 664.613283844 c 0
 60.2865407033 663.782338803 59.3340401649 659.266009368 58.4186418414 651.518224497 c 0
 57.2335902938 641.488137903 56.1869028362 627.285822025 55.3325265206 610.317173951 c 0
 53.4105544589 572.145156627 52.444786494 520.193209692 52.444786494 468.566249268 c 0
 52.444786494 418.246458581 53.3621419805 368.170210272 55.1621121705 331.405083688 c 0
 55.9912538476 314.469526152 56.9854185444 301.017215633 58.1561934766 290.701952557 c 0
 59.3535585521 280.152413605 58.9299411661 280.567259998 61.553862461 277.103580366 c 0
 63.4449071021 274.607326831 66.4151205819 271.000924933 70.4509651724 266.346170531 c 0
 79.4753893261 255.937821765 93.3433411941 240.838082285 111.061519532 222.12818656 c 0
 150.991890293 179.962843206 210.924344387 119.301635545 279.787653234 50.8231181495 c 0
 385.032706206 -53.8665628082 444.095872901 -112.397735837 481.075359304 -142.911984108 c 0
 510.968580761 -167.578881079 524.583749331 -172.355622513 535.611818858 -172.355622513 c 0
 542.364676315 -172.355622513 550.176336122 -170.428495871 561.006204589 -167.420199074 c 0
 568.581572583 -165.28355682 577.673373256 -160.734516865 599.663954404 -141.563326647 c 0
 627.145983614 -117.604741558 673.335685893 -72.0767548069 759.398413192 14.3329996191 c 0
 846.862888928 101.797475354 896.48241302 151.898441201 922.387171483 184.30307039 c 0
 943.113259122 210.229626913 947.55427497 223.418300348 947.55427497 234.936426962 c 0
 947.55427497 242.565202539 945.709802363 250.576173095 942.401657555 263.014797575 c 0
 939.935562199 272.057147211 936.139953646 280.791709072 915.123348743 304.899379686 c 0
 888.506774255 335.430648348 835.401586224 389.316728018 728.152643096 496.912755105 c 0
 649.751903515 575.660400614 591.404973197 632.807037939 552.566666535 669.030859316 c 0
 535.080632083 685.339783236 521.828035529 697.14436438 512.145086422 705.123117889 c 0
 503.541739929 712.212483994 501.318195759 713.640681431 499.619945911 714.387911364 c 0
 498.256610565 714.987778916 495.381691993 715.734239244 485.719248378 717.000483165 c 0
 475.718554914 718.311054054 461.852185159 719.466959146 445.379629347 720.411114788 c 0
 408.327473794 722.534829051 358.359707142 723.598843505 308.179252176 723.598843505 c 0
303.149414062 658.75 m 2
 472.483457813 658.75 l 1
 893.707013323 237.52644449 l 1
 538.122959777 -118.057589464 l 1
 116.899414062 303.16595625 l 1
 116.899414062 472.5 l 2
 116.899414062 560.20455468 118.323941369 601.155987935 121.046082037 654.603332026 c 1
 174.764001587 657.339253443 215.151349185 658.75 303.149414062 658.75 c 2
349.959789239 471.634837993 m 0
 342.472616129 471.634837993 334.710483893 469.78626975 327.343550861 465.656322444 c 0
 311.629671732 456.986596028 304.469908546 442.159026582 304.469908546 426.663301259 c 0
 304.469908546 401.344087551 322.678256796 377.5 350.649414062 377.5 c 0
 363.210248014 377.5 376.550554695 384.32252639 386.231045885 395.516466131 c 0
 393.925263819 404.413598539 398.149414062 414.730955907 398.149414062 424.375 c 0
 398.149414062 451.321034525 375.135220441 471.634837993 349.959789239 471.634837993 c 0
EndSplineSet
Validated: 524297
EndChar

StartChar: uniF016
Encoding: 61462 61462 21
Width: 1000
LayerCount: 2
Fore
SplineSet
984.277209028 381.812736551 m 0
 984.277209028 434.819004518 983.890914415 471.745059209 982.144027262 497.796683729 c 0
 980.743895582 518.677085031 978.46319388 532.234331898 975.559287401 541.826318411 c 0
 970.968632307 556.989858307 964.128718882 562.823007154 949.262941432 574.836932777 c 0
 941.226983215 581.331272185 932.974428169 587.836142128 924.616799725 594.417805038 c 1
 467.898692021 598.192334854 l 1
 455.578225574 614.775260784 443.257759127 631.358186713 430.93729268 647.941112643 c 0
 414.03599788 670.878584156 389.515928949 697.611532856 379.456810102 705.616939646 c 2
 361.530512196 719.446845904 l 1
 296.243348028 720.357438926 224.767331588 721.666244063 161.718468005 721.666244063 c 0
 125.312659626 721.666244063 103.937164195 720.972273975 90.8124049901 719.428118874 c 0
 80.7328757476 718.242241384 75.7413663572 716.528683096 72.5121918733 714.871087128 c 0
 45.5420930126 700.475468252 25.3030967038 677.498900514 19.9232853921 658.425021049 c 0
 19.741127525 657.779188611 19.1012716139 654.588997089 18.6805700938 648.751671565 c 0
 18.1028415041 640.735561136 17.6210746128 618.77276294 17.2735844647 604.36133918 c 0
 16.2781649586 563.078406699 15.7237220019 500.246729952 15.7237220019 417.507064114 c 0
 15.7237220019 260.525630166 17.0906405157 96.2214104475 17.9557020218 -62.2337413296 c 1
 39.4731543314 -89.4141458076 l 2
 62.9532823432 -119.173159817 55.2652620267 -122.521633315 381.980791982 -122.521633315 c 2
 499.852825282 -122.500000601 l 1
 617.744507736 -122.521633916 l 2
 944.460037691 -122.521633916 936.72994596 -119.218105204 960.210073972 -89.4590911948 c 2
 981.768647555 -62.2267053451 l 1
 982.713457426 82.6602168128 984.277209028 240.925284799 984.277209028 381.812736551 c 0
EndSplineSet
Validated: 524297
EndChar

StartChar: uniF017
Encoding: 61463 61463 22
Width: 1000
LayerCount: 2
Fore
SplineSet
984.277209028 381.812736551 m 0
 984.277209028 434.819004518 983.890914415 471.745059209 982.144027262 497.796683729 c 0
 980.743895582 518.677085031 978.46319388 532.234331898 975.559287401 541.826318411 c 0
 970.968632307 556.989858307 964.128718882 562.823007154 949.262941432 574.836932777 c 0
 941.216606531 581.339658205 932.952761579 587.853084442 924.583648027 594.443804926 c 1
 452.434147774 600.722388706 l 1
 437.656212966 619.797212224 422.86690841 638.860665993 408.096031914 657.942547823 c 0
 384.224423351 688.953728814 372.385255845 702.879330758 354.998347609 710.796460935 c 0
 345.102904017 715.302352035 332.555792115 718.197418675 313.532179437 719.925204947 c 0
 289.810529359 722.07968223 256.841106687 722.307134878 209.172477645 722.500125279 c 0
 153.011156279 722.500125279 119.808823131 721.888073582 99.6263132857 720.074419123 c 0
 82.7135512105 718.554592885 76.7878898711 716.436421871 72.1339634418 714.051611914 c 0
 45.5978057043 700.453697521 25.8493889885 677.670785908 19.8240607212 658.088469039 c 0
 19.7012052153 657.689188645 19.0793646533 655.003497327 18.6668225307 649.697770266 c 0
 18.0197814096 641.376138612 17.6083196925 618.243779419 17.2735844647 604.36133918 c 0
 16.2781649586 563.078406699 15.7237220019 500.246729952 15.7237220019 417.507064114 c 0
 15.7237220019 260.525630166 17.0906405157 96.2214104475 17.9557020218 -62.2337413296 c 1
 39.4731543314 -89.4141458076 l 2
 62.9532823432 -119.173159817 55.2652620267 -122.521633315 381.980791982 -122.521633315 c 2
 499.852825282 -122.500000601 l 1
 617.744507736 -122.521633916 l 2
 944.460037691 -122.521633916 936.72994596 -119.218105204 960.210073972 -89.4590911948 c 2
 981.768647555 -62.2267053451 l 1
 982.713457426 82.6602168128 984.277209028 240.925284799 984.277209028 381.812736551 c 0
274.095151055 160 m 1
 267.618117013 166.74691046 261.141082971 173.493820921 254.66404893 180.240731381 c 0
 245.117294726 190.185267009 235.484375 203.622767955 235.484375 221.875 c 0
 235.484375 237.090827486 243.075017759 252.296237688 255.050792123 263.897769104 c 0
 261.211484021 269.86593938 268.009594152 277.410878226 274.095151055 283.75 c 1
 547.359375 283.75 l 1
 547.359375 333.125 l 2
 547.359375032 378.52112198 550.03298454 407.068602988 552.52896538 448.110969851 c 1
 604.411744642 403.634713215 630.471910846 381.814075766 690.680980245 326.622428817 c 0
 742.178020037 278.8480666 763.586469695 256.902240312 797.465449225 221.733750135 c 1
 774.433066053 197.469203852 l 2
 741.866893969 163.160839671 650.721344079 80.1194215692 607.444402465 44.8357891063 c 2
 555.209235591 2.24852760298 l 1
 550.439910107 69.466068684 l 2
 548.465291764 97.2957880182 547.710330479 129.578722651 547.019927554 160 c 1
 274.095151055 160 l 1
EndSplineSet
Validated: 524297
EndChar

StartChar: uniF018
Encoding: 61464 61464 23
Width: 1000
LayerCount: 2
Fore
SplineSet
496.308806098 720.391538879 m 0
 474.90301518 720.391538879 453.490389265 718.64668735 444.583308063 716.622350713 c 0
 429.770310064 713.255760259 409.88266967 704.377095981 390.10197617 693.233422419 c 0
 365.878189382 679.586682865 343.003040604 662.708157724 329.204469095 648.015580076 c 0
 316.649124864 634.262514632 296.883730347 603.790956817 286.626949084 582.211020768 c 0
 278.646435179 565.420277622 274.403245054 555.344303202 271.908257545 545.007082767 c 0
 268.781024483 532.050345549 268.125 517.437197116 268.125 487.5 c 0
 268.125 457.56955838 268.778754047 442.912705079 271.818926858 430.025338383 c 0
 279.207779811 398.703810501 308.4990101 350.071011577 326.10064997 330.709207719 c 0
 337.645171011 317.883092674 349.188612945 305.055898522 360.732644209 292.229293701 c 1
 343.323602834 281.606827777 325.914561459 270.984361853 308.505520084 260.36189593 c 0
 284.215515313 245.106759309 255.496513245 219.926177979 230.92418587 192.347031245 c 0
 211.225361798 170.237739304 194.125421759 146.548109939 183.253780236 126.099069932 c 0
 171.931793627 104.74903804 159.594043675 70.4883043653 151.051566356 38.701076262 c 0
 144.15790524 13.0492225704 140 -10.1625179919 140 -23.125 c 0
 140 -32.7570869202 144.885701028 -43.2888796011 152.844040992 -51.1000905914 c 0
 159.250488326 -57.3880994033 165.559149154 -60 170.625 -60 c 0
 178.517446878 -60 182.710296513 -58.1935574739 185.879070761 -56.0405787097 c 0
 188.479953023 -54.2734461093 190.92571706 -51.7486926032 193.282597712 -47.8708930672 c 0
 198.478658228 -39.3217622336 203.008451635 -25.3223875514 207.104489225 -2.99740999072 c 0
 213.540483659 34.7863507685 224.134739861 67.8466760643 240.834046937 97.8016408533 c 0
 254.204899238 121.786073896 271.287377964 143.408164252 291.970463517 163.803984727 c 0
 351.042185604 222.875706815 425.839048517 252.578288214 500.686041126 252.578288214 c 0
 575.293432823 252.578288214 649.527719835 222.961485702 707.539384992 164.294321503 c 0
 736.816362455 134.646749379 760.056801305 98.0703168521 775.616575583 61.4883711671 c 0
 788.068237207 32.2137813765 795.907346254 2.76095537405 796.247516296 -25.3231744105 c 0
 796.247516296 -25.4433530339 796.247516296 -25.5635316573 796.247516296 -25.6837102808 c 0
 796.265836748 -34.8706483797 800.908238069 -44.6030870847 808.447119844 -51.7674671733 c 0
 814.528656112 -57.5468968878 820.624750105 -60 825.625 -60 c 0
 842.956159858 -60 860 -43.0624252184 860 -23.125 c 0
 860 -10.1625179919 855.84209476 13.0492225704 848.948433644 38.701076262 c 0
 840.405147237 70.491315045 828.060556082 104.763446783 816.738868597 126.112914613 c 0
 805.87820692 146.541302052 788.803199674 170.195911255 769.114820804 192.304131455 c 0
 744.498081717 219.946442278 715.717320412 245.182366211 691.425644942 260.405149506 c 0
 674.274760956 271.153036804 656.578627242 281.666484002 639.267238031 292.229365555 c 1
 650.794385478 305.037307163 662.321532925 317.84524877 673.848680372 330.653190378 c 0
 691.017977929 349.539417692 720.710506669 398.266561583 728.177580077 430.065366878 c 0
 731.220076207 443.021947955 731.875 457.843442867 731.875 488.125 c 0
 731.875 519.604583172 731.385519477 533.423888046 727.895223342 546.581025308 c 0
 725.080922898 557.189906563 720.009831569 568.376366716 710.289494749 588.376933814 c 0
 669.99620563 668.832769 600.017648235 715.902731389 513.03086787 720.016970531 c 0
 507.69791871 720.270920491 502.035886075 720.391538879 496.308806098 720.391538879 c 0
497.969840928 657.669221877 m 0
 517.821715166 657.669221877 537.858818755 654.23696437 557.911869889 647.343728043 c 0
 587.317261624 637.435389524 612.290382474 617.710396464 631.386736858 593.933422216 c 0
 655.191267086 564.294272731 671.25 526.865953251 671.25 487.5 c 0
 671.25 468.014132764 666.876539193 448.773609447 659.80251706 430.352681985 c 0
 650.97526782 407.366308053 637.738018743 385.278974993 619.979521875 367.520478125 c 0
 586.518355463 334.059311713 543.286420169 317.1875 500 317.1875 c 0
 456.713579831 317.1875 413.481644537 334.059311713 380.020478125 367.520478125 c 0
 346.559311713 400.981644537 329.6875 444.213579831 329.6875 487.5 c 0
 329.6875 530.845386547 346.495872183 573.954362888 379.943880311 607.402371016 c 0
 412.333209744 640.261111021 453.946043358 657.669221877 497.969840928 657.669221877 c 0
EndSplineSet
Validated: 524297
EndChar

StartChar: uniF019
Encoding: 61465 61465 24
Width: 1000
LayerCount: 2
Fore
SplineSet
431.29095625 410 m 1
 318.70904375 410 l 1
 296.25 387.54095625 l 1
 296.25 87.45904375 l 1
 318.70904375 65 l 1
 431.29095625 65 l 1
 453.75 87.45904375 l 1
 453.75 387.54095625 l 1
 431.29095625 410 l 1
328.75 97.5 m 1
 328.75 377.5 l 1
 421.25 377.5 l 1
 421.25 97.5 l 1
 328.75 97.5 l 1
234.647045924 758.731785681 m 0
 234.647045924 698.345957352 229.169902125 633.19605737 217.934847698 563.232309343 c 0
 211.627185542 523.95277683 201.745833386 491.707440066 184.414527313 465.663427637 c 0
 167.141363545 439.706786518 143.02753352 420.088365695 108.75 412.40056315 c 1
 108.75 -138.250544795 l 2
 108.75 -148.748509012 112.692367805 -158.424951656 123.986890582 -170.284200571 c 0
 133.433524217 -180.203165888 143.704184517 -184.471401758 156.547224302 -185 c 2
 844.500544795 -185 l 2
 854.998509012 -185 864.674951656 -181.057632195 876.534200571 -169.763109418 c 0
 886.453165888 -160.316475783 890.721401758 -150.045815483 891.25 -137.202775698 c 2
 891.25 412.521050087 l 1
 857.212631456 420.465731083 833.249984187 440.213623981 816.078979014 466.157878494 c 0
 803.111882474 485.750304769 793.697216663 509.552664436 787.09964175 537.588537103 c 2
 776.972035189 580.625 l 1
 780.635035275 580.625 l 1
 770.67764085 647.593021489 765.673076923 709.733022518 765.673076923 767.115384615 c 0
 765.673076923 773.199087712 765.745364753 779.150843787 765.863910748 785 c 1
 608.220399337 785 l 1
 603.908831581 766.953008055 592.305059168 755.10713268 580.039763041 745.200547347 c 0
 560.178656851 729.311662394 533.293331401 723.125 500 723.125 c 0
 466.871186129 723.125000579 439.171170483 728.418818605 419.352378836 745.716220487 c 0
 407.974752396 755.646360553 397.663083404 767.750936765 393.62246731 785 c 1
 234.245536804 785 l 1
 234.49068453 776.44638434 234.647045924 767.710256149 234.647045924 758.731785681 c 0
141.25 -152.5 m 1
 141.25 370.568867827 l 1
 157.847269073 380.856871633 l 2
 204.967003239 410.064568531 235.935214565 451.5165534 249.16322637 506.633269255 c 0
 261.598983218 558.448922789 266.658163265 622.383161239 266.658163265 698.278061224 c 0
 266.658163265 716.353557664 266.379981539 734.513930426 266.194646779 752.5 c 1
 357.432663103 752.5 l 1
 358.898714571 719.055931614 l 2
 360.589601662 680.48283597 370.976432374 646.237517503 389.071911639 616.535351767 c 0
 407.998676372 586.134518059 443.087893768 565.955096643 501.508577598 565.009011185 c 0
 560.046078701 564.061033946 593.960802725 584.578801786 613.498500964 616.649619932 c 0
 631.322460708 645.907363837 639.962689015 679.754122183 641.209787067 718.640145148 c 2
 642.295692897 752.5 l 1
 733.292299322 752.5 l 1
 734.116961351 718.359616453 l 2
 736.025355053 639.353562304 742.751374086 576.280451987 753.938794892 529.852655638 c 0
 765.473530995 483.136974424 793.032701042 416.797534647 844.253076845 379.6883441 c 2
 858.75 369.185315271 l 1
 858.75 -152.5 l 1
 141.25 -152.5 l 1
681.29095625 410 m 1
 568.70904375 410 l 1
 546.25 387.54095625 l 1
 546.25 87.45904375 l 1
 568.70904375 65 l 1
 681.29095625 65 l 1
 703.75 87.45904375 l 1
 703.75 387.54095625 l 1
 681.29095625 410 l 1
578.75 97.5 m 1
 578.75 377.5 l 1
 671.25 377.5 l 1
 671.25 97.5 l 1
 578.75 97.5 l 1
EndSplineSet
Validated: 524329
EndChar

StartChar: uniF01F
Encoding: 61471 61471 25
Width: 1000
LayerCount: 2
Fore
SplineSet
487.695469421 545.940455531 m 0
 458.786251216 545.940455531 438.852081355 543.304701264 429.832982516 539.775488675 c 0
 345.8097458 507.41098268 294.812069394 453.215791336 274.09428325 377.405299102 c 0
 271.367211533 367.426402333 268.54336017 357.455338036 265.765126299 347.5 c 1
 142.5 347.5 l 1
 112.453848851 347.511868549 l 2
 71.436084705 347.511868549 51.2508116119 346.890199759 40.9276258731 345.053072456 c 0
 36.8206062355 344.322182002 34.5584469454 343.389413704 33.4259611898 342.750870043 c 0
 31.8126088994 341.841194062 28.9329244079 338.827673251 25.6201754157 335.688566231 c 0
 22.0811211888 332.335016054 15 321.97595834 15 315.625 c 0
 15 308.127279941 23.1726810915 298.174792329 26.9575459787 294.225043262 c 0
 30.5022297092 290.525777567 31.639521586 289.506400627 33.4259611898 288.499129957 c 0
 34.5584469454 287.860586296 36.8206062355 286.927817998 40.9276258731 286.196927544 c 0
 51.2508116119 284.359800241 71.4501852188 283.738134236 112.467949365 283.738134236 c 2
 142.485899486 283.749997214 l 1
 265.692564691 283.749997214 l 1
 269.215601771 271.419368608 272.738639083 259.088740234 276.261675767 246.758111232 c 0
 293.762592676 187.399572364 340.210935407 133.612541411 400.231488598 104.779138407 c 0
 416.792920861 96.774446147 426.375657782 92.7029213528 436.83745683 90.3452090812 c 0
 450.062403157 87.3647830474 466.105555282 86.875 500 86.875 c 0
 533.894444718 86.875 549.937596843 87.3647830474 563.16254317 90.3452090812 c 0
 573.610878316 92.6998870748 583.177375915 96.7601368585 599.736385692 104.763658251 c 0
 659.068417642 132.961059574 706.191423103 187.243084553 723.69564137 246.610879179 c 0
 727.232991127 258.990586119 730.770340885 271.37029306 734.307690643 283.75 c 1
 857.5 283.75 l 1
 887.546151149 283.738131451 l 2
 928.563915295 283.738131451 948.749188388 284.359800241 959.072374127 286.196927544 c 0
 963.179393764 286.927817998 965.441553055 287.860586296 966.57403881 288.499129957 c 0
 968.187391101 289.408805938 971.067075592 292.422326749 974.379824584 295.561433769 c 0
 977.918878811 298.914983946 985 309.27404166 985 315.625 c 0
 985 323.122720059 976.827318909 333.075207671 973.042454021 337.024956738 c 0
 969.497770291 340.724222433 968.360478414 341.743599373 966.57403881 342.750870043 c 0
 965.441553055 343.389413704 963.179393764 344.322182002 959.072374127 345.053072456 c 0
 948.749188388 346.890199759 928.549814781 347.511865764 887.532050635 347.511865764 c 2
 857.514100514 347.500002786 l 1
 735.43556546 347.500002786 l 1
 730.48976725 362.358330025 725.523034824 377.195723048 720.590324425 392.067138097 c 0
 708.92968633 430.055318967 675.449271674 474.526484037 648.464812822 497.278086598 c 0
 639.845969772 504.544954268 614.855801471 519.830619354 595.655072728 528.847452267 c 0
 582.961379739 534.658307196 573.515087334 537.998457703 562.73376841 540.397366336 c 0
 549.255711742 543.396315865 532.583773689 544.953430213 505.863936105 545.629881798 c 2
 505.731548148 545.629881798 l 1
 505.599252128 545.637570966 l 2
 499.306680621 545.843884786 493.44745597 545.940455531 487.695469421 545.940455531 c 0
499.140625 483.125 m 0
 513.382524535 483.125 527.214693222 481.940506226 539.521505291 479.910574227 c 0
 549.45187449 478.272621678 558.11974223 476.386047832 567.112677557 472.559266842 c 0
 582.441239652 466.036474461 596.652059901 456.215069674 609.959952538 444.434550452 c 0
 626.565381055 429.734960128 641.796946281 411.860959885 652.619529313 391.418303047 c 0
 657.235773444 382.762845302 661.291508313 372.854981969 663.717631956 361.957842861 c 0
 666.756627097 348.307939691 667.5 334.139240879 667.5 315.625 c 0
 667.5 286.579303098 663.355606394 262.025689675 652.732310017 239.982349693 c 0
 644.24313924 222.367320329 631.716665941 206.511595416 615.306492972 190.980538856 c 0
 602.191082527 178.567739685 587.655530533 167.942723657 570.81246172 160.514796464 c 0
 549.692774354 151.200846504 526.402511749 147.5 500 147.5 c 0
 423.019390747 147.5 375.932590343 186.891090717 347.393538796 239.807248795 c 0
 336.64472189 259.871707018 331.5625 286.318858738 331.5625 315.625 c 0
 331.5625 344.963355768 336.662907419 371.412064136 347.41711264 391.48658055 c 0
 358.058574615 411.192991614 373.071556547 428.953085563 389.322635455 443.747166575 c 0
 402.385705113 455.639060761 416.240200098 465.865361256 431.530383739 472.513267187 c 0
 440.52522469 476.424067601 449.03531951 478.260607864 458.88807655 479.898904493 c 0
 471.086304439 481.927201299 484.874101157 483.125 499.140625 483.125 c 0
EndSplineSet
Validated: 524297
EndChar

StartChar: uniF020
Encoding: 61472 61472 26
Width: 1000
LayerCount: 2
Fore
SplineSet
860.078125 595.625 m 0
 860.078125 658.05268218 800.529473233 722.5 734.453125 722.5 c 0
 708.698607894 722.5 680.00848835 711.146298601 656.868625873 692.7632471 c 0
 638.408523487 678.097947632 624.424832549 659.735841626 618.044532935 640.831250177 c 0
 612.292726019 623.761371587 609.546016291 608.321790818 609.546016291 594.102793988 c 0
 609.546016485 564.013139207 621.852107934 536.978470623 649.534012947 509.25290566 c 0
 658.032019552 500.440508528 666.902976762 492.700851591 673.587889181 487.872226607 c 0
 681.976134822 481.813255309 690.80789283 478.697250949 700.307559419 474.282744368 c 1
 701.311207946 462.548362895 702.578125 453.607945411 702.578125 440.625 c 0
 702.578125 425.357338637 700.183785362 410.151903516 694.945541003 395.784857633 c 0
 690.873534785 384.616478274 685.041118527 372.057735511 671.599562062 361.958777877 c 2
 662.281029261 354.95754493 l 1
 653.178343254 354.95754493 l 1
 622.594064396 350.717087245 559.122258173 349.330262118 492.425017091 347.451340199 c 0
 429.511653195 345.679013539 364.975427311 343.73807305 336.624221037 340.754096744 c 2
 299.29512091 336.825193358 l 1
 298.40144605 361.669918284 297.578125 378.080079274 297.578125 405.625 c 0
 297.578125 421.15570086 297.805373983 432.636445343 298.172153688 440.929592401 c 0
 298.479612479 447.881451893 298.501387258 451.436409605 299.762692216 457.668102675 c 2
 302.850762119 472.925240681 l 1
 310.053495355 477.171155451 315.322236491 480.631344108 323.211055927 484.58829566 c 0
 335.328230072 490.828727294 351.317143623 505.519676246 364.441361344 522.38030836 c 0
 375.05712323 536.018339507 382.41170255 549.124522127 385.003108218 558.410392437 c 0
 389.111449378 572.871753321 391.097244438 586.295164574 391.097244438 598.807462861 c 0
 391.097244438 629.923478354 378.95133297 657.41774828 352.598603125 683.770478125 c 0
 326.91606756 709.842143016 297.788238173 722.318239796 266.573472124 722.318239796 c 0
 252.084741768 722.318239796 236.814643555 719.634578095 220.775616545 714.005287388 c 0
 209.734764747 709.931952889 188.616175679 695.413567873 175.282531124 681.500197991 c 0
 151.15849832 655.957104434 139.921882697 625.861171955 139.921882697 596.472582418 c 0
 139.921882697 555.316076064 162.058315081 514.347588216 205.561043321 487.70001622 c 1
 233.828125 469.409551604 l 1
 233.828125 129.142957793 l 1
 225.240556427 124.545476177 216.660805641 119.940176773 208.068350663 115.347581562 c 0
 191.904677692 106.999661001 176.558100688 92.5552660372 164.44748759 74.7752545282 c 0
 149.229525234 52.4332357004 140.078125 26.1876891048 140.078125 3.125 c 0
 140.078125 -62.848126444 199.729998556 -122.5 265.703125 -122.5 c 0
 331.676251444 -122.5 391.328125 -62.848126444 391.328125 3.125 c 0
 391.328125 26.1876891048 382.176724766 52.4332357004 366.95876241 74.7752545282 c 0
 354.549591372 92.9935889333 339.224977855 106.756280385 322.787044264 115.638941281 c 0
 314.364120748 120.190484997 309.321051931 124.050283743 301.90957387 129.040287465 c 1
 298.789490046 148.115438734 297.578125 146.681282762 297.578125 178.75 c 0
 297.578125 212.987518761 302.131821917 237.688727943 317.000256898 256.440359982 c 0
 324.991485032 266.518661409 334.194824518 271.977131272 344.221425351 276.462715856 c 1
 351.228668585 277.943361057 357.339452292 279.80100848 384.795122705 281.409215663 c 0
 411.714353042 282.986001039 451.367777891 283.75 505.703125 283.75 c 0
 597.512808586 283.75 643.906866529 285.386292038 672.219260036 293.066596072 c 0
 694.139684423 299.012952582 706.010395138 308.724612103 724.064638921 326.442337027 c 0
 750.826633324 352.705506007 766.328125 391.229736637 766.328125 432.5 c 0
 766.328125411 451.33169454 768.028163157 457.010933635 771.068604796 470.23804494 c 1
 778.200458924 475.710143724 782.980846447 479.907152915 791.780386311 484.493060645 c 0
 811.449890352 494.960856727 830.687826279 515.398488004 843.699998761 539.125175039 c 0
 854.141044348 558.163610712 860.078125 578.247222878 860.078125 595.625 c 0
265.703125 535 m 0
 258.444498279 535 255.714129162 536.186642716 252.77382162 537.12946996 c 0
 249.218589623 538.269476419 246.162473484 539.608810185 242.941932392 541.280533279 c 0
 235.827248583 544.973633565 227.854675303 550.391777584 220.330015973 558.928585384 c 0
 214.387818236 565.670073305 210.588405644 572.314470617 208.031931272 578.295539568 c 0
 206.878118575 580.994973356 205.96313316 583.554237025 205.200683118 586.508971935 c 0
 204.563206449 588.979395524 203.828125 591.231658548 203.828125 596.875 c 2
 203.828125 600.398762707 l 1
 204.519138835 603.823716455 l 2
 206.40467129 613.169204378 208.697056676 616.808664074 212.101195778 622.966572323 c 0
 214.708306581 627.682698378 217.352316624 632.711385256 224.251399876 639.117676847 c 0
 227.85308064 642.462094699 232.254333412 646.084446319 238.709988894 650.03802635 c 0
 243.689470118 653.087566027 249.898145833 657.285525662 262.012866759 658.557392614 c 2
 267.385747604 659.121465829 l 1
 272.651841454 658.058986165 l 2
 281.997329378 656.17345371 285.636789074 653.881068324 291.794697323 650.476929222 c 0
 296.510823378 647.869818419 301.539510256 645.225808376 307.945801847 638.326725124 c 0
 312.719218746 633.18612231 320.783109512 622.762003747 324.497580066 613.007475913 c 0
 325.951585563 609.189129023 327.578125 604.288340305 327.578125 596.875 c 0
 327.578125 589.616373279 326.391482284 586.886004162 325.44865504 583.94569662 c 0
 324.308648581 580.390464623 322.969314815 577.334348484 321.297591721 574.113807392 c 0
 317.604491435 566.999123583 312.186347416 559.026550303 303.649539616 551.501890973 c 0
 296.908051695 545.559693236 290.263654383 541.760280644 284.282585432 539.203806272 c 0
 281.583151644 538.049993575 279.023887975 537.13500816 276.069153065 536.372558118 c 0
 273.598729476 535.735081449 271.346466452 535 265.703125 535 c 0
734.453125 535 m 0
 728.809783548 535 726.557520524 535.735081449 724.087096935 536.372558118 c 0
 721.132362025 537.13500816 718.573098356 538.049993575 715.873664568 539.203806272 c 0
 709.892595617 541.760280644 703.248198305 545.559693236 696.506710384 551.501890973 c 0
 687.969902584 559.026550303 682.551758565 566.999123583 678.858658279 574.113807392 c 0
 677.186935185 577.334348484 675.847601419 580.390464623 674.70759496 583.94569662 c 0
 673.764767716 586.886004162 672.578125 589.616373279 672.578125 596.875 c 2
 672.578125 600.398762707 l 1
 673.269138835 603.823716454 l 2
 675.15467129 613.169204378 677.447056676 616.808664074 680.851195778 622.966572323 c 0
 683.458306581 627.682698378 686.102316624 632.711385256 693.001399876 639.117676847 c 0
 696.60308064 642.462094699 701.004333412 646.084446319 707.459988894 650.03802635 c 0
 712.439470118 653.087566027 718.648145833 657.285525662 730.762866759 658.557392614 c 2
 736.135747604 659.121465829 l 1
 741.401841454 658.058986165 l 2
 750.747329378 656.17345371 754.386789074 653.881068324 760.544697323 650.476929222 c 0
 765.260823378 647.869818419 770.289510256 645.225808376 776.695801847 638.326725124 c 0
 779.886133977 634.890982831 783.616021635 630.451033087 787.607429664 623.949610315 c 0
 790.697189233 618.916841656 794.882306449 612.502280034 796.135517614 600.565258241 c 2
 796.699590829 595.192377396 l 1
 795.637111165 589.926283546 l 2
 793.75157871 580.580795622 791.459193324 576.941335926 788.055054222 570.783427677 c 0
 785.447943419 566.067301622 782.803933376 561.038614744 775.904850124 554.632323153 c 0
 770.76424731 549.858906254 760.340128747 541.795015488 750.585600913 538.080544934 c 0
 746.767254023 536.626539437 741.866465305 535 734.453125 535 c 0
265.703125 -58.75 m 0
 260.059783548 -58.75 257.807520524 -58.0149185514 255.337096935 -57.3774418821 c 0
 252.382362025 -56.6149918401 249.823098356 -55.7000064253 247.123664568 -54.5461937278 c 0
 241.142595617 -51.9897193556 234.498198305 -48.1903067636 227.756710384 -42.2481090275 c 0
 219.219902584 -34.7234496974 213.801758565 -26.7508764174 210.108658279 -19.6361926084 c 0
 208.436935185 -16.4156515162 207.097601419 -13.3595353771 205.95759496 -9.8043033802 c 0
 205.014767716 -6.86399583786 203.828125 -4.13362672094 203.828125 3.125 c 2
 203.828125 6.64876270725 l 1
 204.519138835 10.0737164545 l 2
 206.40467129 19.4192043783 208.697056676 23.058664074 212.101195778 29.216572323 c 0
 214.708306581 33.9326983778 217.352316624 38.9613852562 224.251399876 45.3676768473 c 0
 227.85308064 48.7120946991 232.254333412 52.3344463188 238.709988894 56.2880263497 c 0
 243.689470118 59.3375660268 249.898145833 63.5355256617 262.012866759 64.8073926138 c 2
 267.385747604 65.371465829 l 1
 272.651841455 64.3089861652 l 2
 281.997329378 62.4234537098 285.636789074 60.1310683245 291.794697323 56.7269292216 c 0
 296.510823378 54.119818419 301.539510256 51.4758083757 307.945801847 44.5767251238 c 0
 311.136133977 41.1409828306 314.866021635 36.7010330874 318.857429664 30.1996103145 c 0
 321.947189233 25.1668416564 326.132306449 18.7522800339 327.385517614 6.81525824087 c 2
 327.949590829 1.44237739595 l 1
 326.887111165 -3.8237164545 l 2
 325.00157871 -13.1692043783 322.709193324 -16.808664074 319.305054222 -22.966572323 c 0
 316.697943419 -27.6826983778 314.053933376 -32.7113852562 307.154850124 -39.1176768473 c 0
 302.01424731 -43.8910937457 291.590128747 -51.9549845117 281.835600913 -55.6694550662 c 0
 278.017254023 -57.123460563 273.116465305 -58.75 265.703125 -58.75 c 0
EndSplineSet
Validated: 524297
EndChar

StartChar: uniF023
Encoding: 61475 61475 27
Width: 1000
LayerCount: 2
Fore
SplineSet
235.245347124 722.318239796 m 0
 220.698165891 722.318239796 205.35179871 719.608063964 189.354470193 713.972641418 c 0
 170.675726932 707.352327351 152.56408921 693.216003972 138.097844128 674.671625662 c 0
 119.956832495 651.416539026 108.75 622.689592139 108.75 596.875 c 0
 108.75 573.812310895 117.901400234 547.5667643 133.11936259 525.224745472 c 0
 145.478513187 507.079847432 160.810235781 493.190844467 177.20620676 484.407288586 c 0
 185.637471173 479.890539793 194.068735587 475.373791 202.5 470.857042207 c 1
 202.5 129.142957793 l 1
 193.912431427 124.545476177 185.332680641 119.940176773 176.740225663 115.347581562 c 0
 160.576552692 106.999661001 145.229975688 92.5552660372 133.11936259 74.7752545282 c 0
 117.901400234 52.4332357004 108.75 26.1876891048 108.75 3.125 c 0
 108.75 -24.490617337 121.478696987 -54.7459001742 141.821251422 -78.6144973778 c 0
 158.010712565 -97.6101317857 178.213981936 -111.641767252 198.848721881 -117.373282907 c 0
 210.335521184 -120.418701746 221.41269593 -121.801152647 232.169670449 -121.801152771 c 0
 301.48195686 -121.801152771 359.301152771 -63.9819568596 359.301152771 5.33032955125 c 0
 359.301152771 16.0829287874 357.911506422 27.1847050946 354.924099131 38.4633749506 c 0
 351.147202535 51.9634639793 340.132832277 70.2600590781 325.797637257 86.6808165349 c 0
 314.067688678 100.117301646 301.998141661 109.992167617 291.522464036 115.604137773 c 0
 283.098309357 120.11707778 274.674154679 124.630017786 266.25 129.142957793 c 1
 266.25 381.650556731 l 1
 323.390342596 334.899367334 l 2
 391.676454173 279.028912407 469.066883697 252.5 569.375 252.5 c 0
 586.668810637 252.5 599.34525059 252.283232082 608.469471075 251.900986588 c 0
 616.112469331 251.580794671 620.004886353 251.613501282 626.970678427 250.103923885 c 2
 642.073725646 246.830897867 l 1
 646.202071837 239.695139457 649.539654175 234.464632319 653.425154997 226.693630675 c 0
 661.321850474 210.900239721 676.086026375 195.304020384 693.974745472 183.11936259 c 0
 716.3167643 167.901400234 742.562310895 158.75 765.625 158.75 c 0
 831.598126444 158.75 891.25 218.401873556 891.25 284.375 c 0
 891.25 350.348126444 831.598126444 410 765.625 410 c 0
 742.201020342 410 716.012318347 400.843028317 693.698155182 385.54829933 c 0
 675.902892149 373.350946316 661.336782943 357.788435522 652.682862824 341.201755294 c 0
 648.111166969 332.362448089 643.539025602 323.523586395 638.967090794 314.684518142 c 1
 556.35425077 317.508888741 l 2
 518.359953733 318.903174871 498.475446176 319.753664139 478.964794401 324.463634635 c 0
 463.507090053 328.195203024 449.744834579 334.046566881 430.258836338 343.409968633 c 0
 401.859474783 357.056415095 373.808991412 376.656443127 350.667804071 397.971406604 c 0
 329.920045103 417.081822941 314.578563283 435.7075956 304.636969764 457.319825608 c 2
 295.791721895 476.548687767 l 1
 307.811962926 492.087078893 309.342528185 495.092182832 325.598652074 513.015505203 c 0
 349.285189455 539.13133762 360.431135968 567.473604295 360.431135968 596.278106155 c 0
 360.431135611 627.157082297 347.340847019 657.340125332 321.114494567 683.928165672 c 0
 295.4389318 709.957820382 266.379211262 722.318239796 235.245347124 722.318239796 c 0
234.375 535 m 0
 227.116373279 535 224.386004162 536.186642716 221.44569662 537.12946996 c 0
 217.890464623 538.269476419 214.834348484 539.608810185 211.613807392 541.280533279 c 0
 204.499123583 544.973633565 196.526550303 550.391777584 189.001890973 558.928585384 c 0
 183.059693236 565.670073305 179.260280644 572.314470617 176.703806272 578.295539568 c 0
 175.549993575 580.994973356 174.63500816 583.554237025 173.872558118 586.508971935 c 0
 173.235081449 588.979395524 172.5 591.231658548 172.5 596.875 c 2
 172.5 600.398762707 l 1
 173.191013835 603.823716455 l 2
 175.07654629 613.169204378 177.368931676 616.808664074 180.773070778 622.966572323 c 0
 183.380181581 627.682698378 186.024191624 632.711385256 192.923274876 639.117676847 c 0
 196.52495564 642.462094699 200.926208412 646.084446319 207.381863894 650.03802635 c 0
 212.361345118 653.087566027 218.570020833 657.285525662 230.684741759 658.557392614 c 2
 236.057622604 659.121465829 l 1
 241.323716454 658.058986165 l 2
 250.669204378 656.17345371 254.308664074 653.881068324 260.466572323 650.476929222 c 0
 265.182698378 647.869818419 270.211385256 645.225808376 276.617676847 638.326725124 c 0
 281.391093746 633.18612231 289.454984512 622.762003747 293.169455066 613.007475913 c 0
 294.623460563 609.189129023 296.25 604.288340305 296.25 596.875 c 0
 296.25 591.231658548 295.514918551 588.979395524 294.877441882 586.508971935 c 0
 294.11499184 583.554237025 293.200006425 580.994973356 292.046193728 578.295539568 c 0
 289.489719356 572.314470617 285.690306764 565.670073305 279.748109027 558.928585384 c 0
 272.223449697 550.391777584 264.250876417 544.973633565 257.136192608 541.280533279 c 0
 253.915651516 539.608810185 250.859535377 538.269476419 247.30430338 537.12946996 c 0
 244.363995838 536.186642716 241.633626721 535 234.375 535 c 0
827.5 284.375 m 0
 827.5 278.731658548 826.764918551 276.479395524 826.127441882 274.008971935 c 0
 825.36499184 271.054237025 824.450006425 268.494973356 823.296193728 265.795539568 c 0
 820.739719356 259.814470617 816.940306764 253.170073305 810.998109027 246.428585384 c 0
 803.473449697 237.891777584 795.500876417 232.473633565 788.386192608 228.780533279 c 0
 785.165651516 227.108810185 782.109535377 225.769476419 778.55430338 224.62946996 c 0
 775.613995838 223.686642716 772.883626721 222.5 765.625 222.5 c 2
 762.101237293 222.5 l 1
 758.676283545 223.191013835 l 2
 749.330795622 225.07654629 745.691335926 227.368931676 739.533427677 230.773070778 c 0
 734.817301622 233.380181581 729.788614744 236.024191624 723.382323153 242.923274876 c 0
 720.037905301 246.52495564 716.415553681 250.926208412 712.46197365 257.381863894 c 0
 709.412433973 262.361345118 705.214474338 268.570020833 703.942607386 280.684741759 c 2
 703.378534171 286.057622604 l 1
 704.441013835 291.323716454 l 2
 706.32654629 300.669204378 708.618931676 304.308664074 712.023070778 310.466572323 c 0
 714.630181581 315.182698378 717.274191624 320.211385256 724.173274876 326.617676847 c 0
 727.77495564 329.962094699 732.176208412 333.584446319 738.631863894 337.53802635 c 0
 743.611345118 340.587566027 749.820020833 344.785525662 761.934741759 346.057392614 c 2
 767.307622604 346.621465829 l 1
 772.573716455 345.558986165 l 2
 781.919204378 343.67345371 785.558664074 341.381068324 791.716572323 337.976929222 c 0
 796.432698378 335.369818419 801.461385256 332.725808376 807.867676847 325.826725124 c 0
 812.641093746 320.68612231 820.704984512 310.262003747 824.419455066 300.507475913 c 0
 825.873460563 296.689129023 827.5 291.788340305 827.5 284.375 c 0
234.375 -58.75 m 0
 228.731658548 -58.75 226.479395524 -58.0149185514 224.008971935 -57.3774418821 c 0
 221.054237025 -56.6149918401 218.494973356 -55.7000064253 215.795539568 -54.5461937278 c 0
 209.814470617 -51.9897193556 203.170073305 -48.1903067636 196.428585384 -42.2481090275 c 0
 187.891777584 -34.7234496974 182.473633565 -26.7508764174 178.780533279 -19.6361926084 c 0
 177.108810185 -16.4156515162 175.769476419 -13.3595353771 174.62946996 -9.8043033802 c 0
 173.686642716 -6.86399583786 172.5 -4.13362672094 172.5 3.125 c 2
 172.5 6.64876270725 l 1
 173.191013835 10.0737164545 l 2
 175.07654629 19.4192043783 177.368931676 23.058664074 180.773070778 29.216572323 c 0
 183.380181581 33.9326983778 186.024191624 38.9613852562 192.923274876 45.3676768473 c 0
 196.52495564 48.7120946991 200.926208412 52.3344463188 207.381863894 56.2880263497 c 0
 212.361345118 59.3375660268 218.570020833 63.5355256617 230.684741759 64.8073926138 c 2
 236.057622604 65.371465829 l 1
 241.323716455 64.3089861652 l 2
 250.669204378 62.4234537098 254.308664074 60.1310683245 260.466572323 56.7269292216 c 0
 265.182698378 54.119818419 270.211385256 51.4758083757 276.617676847 44.5767251238 c 0
 279.808008977 41.1409828306 283.537896635 36.7010330874 287.529304664 30.1996103145 c 0
 290.619064233 25.1668416564 294.804181449 18.7522800339 296.057392614 6.81525824087 c 2
 296.621465829 1.44237739595 l 1
 295.558986165 -3.8237164545 l 2
 293.67345371 -13.1692043783 291.381068324 -16.808664074 287.976929222 -22.966572323 c 0
 285.369818419 -27.6826983778 282.725808376 -32.7113852562 275.826725124 -39.1176768473 c 0
 270.68612231 -43.8910937457 260.262003747 -51.9549845117 250.507475913 -55.6694550662 c 0
 246.689129023 -57.123460563 241.788340305 -58.75 234.375 -58.75 c 0
EndSplineSet
Validated: 524297
EndChar

StartChar: uniF024
Encoding: 61476 61476 28
Width: 1000
LayerCount: 2
Fore
SplineSet
500 722.5 m 0
 494.264801231 722.5 483.287444141 716.868201322 480.709207719 714.52435003 c 0
 473.294234464 707.679759333 467.699977118 693.396075812 467.699977118 675.770228841 c 0
 467.699977118 668.534699428 468.80583889 661.373850093 470.717806997 654.59726016 c 0
 476.384624326 634.512355434 489.534199325 627.1875 500 627.1875 c 0
 510.477225022 627.1875 523.654311175 634.532391916 529.305254057 654.679231754 c 0
 531.348310649 661.829929828 532.303510303 668.904187207 532.303510303 675.676973611 c 0
 532.303510303 694.304303178 523.495973978 714.134646557 510.916599021 720.158279779 c 0
 507.886957816 721.609023356 504.497311278 722.5 500 722.5 c 0
45.1697899742 3.21088646824 m 0
 52.5302970863 3.21088646824 63.4114147929 7.95596043273 82.4437962138 24.8768119596 c 0
 110.133674103 50.3615054877 210.055146173 144.787047116 274.266487959 205.816809315 c 0
 314.499851825 244.056667896 343.70958783 271.591945722 355.10293999 284.291519172 c 0
 356.346946779 285.840889641 356.031320646 284.653202819 357.545550935 289.272614686 c 0
 358.805370636 293.115904654 359.375 296.63768754 359.375 300 c 0
 359.375 304.639128355 357.021208586 313.35098483 355.102939987 315.708480833 c 0
 351.96370502 319.56650879 317.031946381 353.536699193 274.266487842 394.183190798 c 0
 210.162733074 455.110696758 109.577786112 550.159953477 82.3495629651 575.209918773 c 0
 64.3164684898 591.80036569 52.4567679686 596.789113532 45.1697899742 596.789113532 c 0
 40.2304395589 596.789113532 34.2125453339 593.929819576 25.8686051163 585.919636967 c 2
 15 575.485776055 l 1
 15 24.5142239447 l 1
 18.7769365539 20.888364853 22.6231790075 17.321257252 26.3325948819 13.6266546046 c 0
 34.5412914099 5.45073878625 40.5151673989 3.21088646824 45.1697899742 3.21088646824 c 0
78.75 107.66170298 m 1
 78.75 492.338293501 l 1
 137.794769965 436.472865515 l 2
 170.847644368 405.199765868 228.734891067 350.331223799 254.113731132 324.54434656 c 2
 278.269756415 299.999944336 l 1
 254.113585284 275.455683418 l 2
 228.624869273 249.557469131 170.991201342 194.936070403 137.794771844 163.527140955 c 2
 78.75 107.66170298 l 1
955.339435274 597.062927364 m 0
 947.734612145 597.062927364 936.240821454 591.5985583 914.483904072 572.046190738 c 0
 854.911911594 516.766403935 693.060578658 364.779799375 644.455733998 315.170609446 c 0
 642.71510712 313.166826803 640.625 303.935224933 640.625 300 c 0
 640.625 296.023319583 642.713827621 286.819785974 644.437916533 284.845728639 c 0
 656.267601471 271.300907275 854.974143011 83.1799467769 914.510510059 28.5537955676 c 0
 936.443776181 8.44830162217 947.90229853 2.98427117896 955.478759122 2.98427117896 c 0
 960.076288429 2.98427117896 965.83083894 6.11182932746 974.22387862 14.1691474204 c 2
 985 24.5142239447 l 1
 985 575.485776055 l 1
 981.153993584 579.177942215 977.189231314 582.781155693 973.458094165 586.58882342 c 0
 965.224094131 594.991713728 959.574247682 597.062927364 955.339435274 597.062927364 c 0
920.46875 300 m 0
 920.46875 230.858847394 918.89316717 176.933676435 917.303398543 111.753162742 c 1
 850.96337306 174.301225675 784.788103636 237.121576798 718.917838948 299.998867215 c 1
 784.792713296 362.886291113 850.962052853 425.696513452 917.303264837 488.252319225 c 1
 918.889522704 423.215746646 920.46875 368.992138819 920.46875 300 c 0
500 535 m 0
 494.264801231 535 483.287444141 529.368201322 480.709207719 527.02435003 c 0
 473.294234464 520.179759333 467.699977118 505.896075812 467.699977118 488.270228841 c 0
 467.699977118 481.034699428 468.80583889 473.873850093 470.717806997 467.09726016 c 0
 476.384624326 447.012355434 489.534199325 439.6875 500 439.6875 c 0
 510.477225022 439.6875 523.654311175 447.032391916 529.305254057 467.179231754 c 0
 531.348310649 474.329929828 532.303510303 481.404187207 532.303510303 488.176973611 c 0
 532.303510303 506.804303178 523.495973978 526.634646557 510.916599021 532.658279779 c 0
 507.886957816 534.109023356 504.497311278 535 500 535 c 0
500 347.5 m 0
 494.264801231 347.5 483.287444141 341.868201322 480.709207719 339.52435003 c 0
 473.294234464 332.679759333 467.699977118 318.396075812 467.699977118 300.770228841 c 0
 467.699977118 293.534699428 468.80583889 286.373850093 470.717806997 279.59726016 c 0
 476.384624326 259.512355434 489.534199325 252.1875 500 252.1875 c 0
 510.477225022 252.1875 523.654311175 259.532391916 529.305254057 279.679231754 c 0
 531.348310649 286.829929828 532.303510303 293.904187207 532.303510303 300.676973611 c 0
 532.303510303 319.304303178 523.495973978 339.134646557 510.916599021 345.158279779 c 0
 507.886957816 346.609023356 504.497311278 347.5 500 347.5 c 0
500 160 m 0
 494.264801231 160 483.287444141 154.368201322 480.709207719 152.02435003 c 0
 473.294234464 145.179759333 467.699977118 130.896075812 467.699977118 113.270228841 c 0
 467.699977118 106.034699428 468.80583889 98.8738500931 470.717806997 92.0972601599 c 0
 476.384624326 72.0123554346 489.534199325 64.6875 500 64.6875 c 0
 510.477225022 64.6875 523.654311175 72.0323919161 529.305254057 92.1792317544 c 0
 531.348310649 99.3299298283 532.303510303 106.404187207 532.303510303 113.176973611 c 0
 532.303510303 131.804303178 523.495973978 151.634646557 510.916599021 157.658279779 c 0
 507.886957816 159.109023356 504.497311278 160 500 160 c 0
499.392802356 -26.9558182108 m 0
 494.270823776 -26.9558182108 487.673483519 -29.0559552008 480.786712321 -35.4046973983 c 0
 473.398599108 -42.2244942105 467.699977118 -56.5061222976 467.699977118 -74.2297711586 c 0
 467.699977118 -81.4653005722 468.80583889 -88.6261499069 470.717806997 -95.4027398401 c 0
 476.384624326 -115.487644565 489.534199325 -122.8125 500 -122.8125 c 0
 510.739211849 -122.8125 523.545787046 -115.269631379 529.377070331 -95.0683999979 c 0
 531.438920125 -87.925563212 532.310353031 -81.2706985092 532.310353031 -74.7265532768 c 0
 532.310353031 -55.0648126895 524.011650788 -39.8258771846 514.108118643 -32.3377873173 c 0
 509.273760967 -28.6825152188 504.166840018 -26.9558182108 499.392802356 -26.9558182108 c 0
EndSplineSet
Validated: 524297
EndChar

StartChar: uniF026
Encoding: 61478 61478 29
Width: 1000
LayerCount: 2
Fore
SplineSet
499.690429688 -181.875 m 0
 636.666870462 -181.875 748.724360602 -136.007025336 842.210907812 -42.520478125 c 0
 935.697455023 50.9660690856 981.565429688 163.023559226 981.565429688 300 c 0
 981.565429688 406.365917425 960.045217768 479.65740439 905.880016533 562.42670066 c 0
 837.932262281 667.381713924 742.032976601 736.337175123 614.623192072 771.115203861 c 0
 589.678983852 777.6836861 530.712552706 782.303963465 481.673676646 782.303964307 c 0
 454.792892595 782.303964307 431.234520675 780.931682582 418.184674288 778.399622836 c 0
 283.678387672 752.22871639 172.308522726 679.445712574 99.6148259249 572.222509793 c 0
 47.0931964645 495.876636041 18.4404296875 422.009154069 18.4404296875 300 c 2
 18.4342538966 297.184444386 l 2
 18.4342538966 161.495681836 64.2625638689 50.9903165728 157.204477396 -42.5551158735 c 0
 250.692674081 -136.043312558 362.720938417 -181.875 499.690429688 -181.875 c 0
498.426466003 720.967729614 m 0
 527.693037733 720.967729614 557.281951864 717.859259341 587.110226683 711.5652197 c 0
 707.010569682 686.803192342 820.984039097 597.909443056 875.059483384 487.80402035 c 0
 905.291960173 425.730956305 920.627929688 362.948912494 920.627929688 300 c 0
 920.627929688 237.073497064 905.246495129 174.176543337 875.013018382 112.101426188 c 0
 836.480000589 34.3822886053 765.35278527 -36.7681707896 687.60742109 -75.3141916853 c 0
 625.58647702 -105.438650234 563.163940591 -120.903081496 499.323806762 -120.903081496 c 0
 470.520046041 -120.903081496 441.604218851 -117.793583884 412.270632692 -111.5652197 c 0
 292.364968708 -86.8020934425 178.40920026 2.06519214877 124.334806845 112.168475126 c 0
 94.0863330502 173.952591813 78.7529296875 236.742708452 78.7529296875 299.765625 c 0
 78.7529296875 362.77507486 94.1124820025 425.779041658 124.350485482 487.863453056 c 0
 147.482258897 534.827962719 166.338536857 557.82290242 204.74404193 595.637553569 c 0
 287.116456485 677.501496429 389.493845365 720.967729614 498.426466003 720.967729614 c 0
499.690429687 534.21875 m 0
 492.053042036 534.21875 485.907615181 532.276381026 481.71830057 529.179931096 c 0
 478.228441242 526.600469853 473.616300233 520.68941722 470.416483005 504.846494408 c 0
 466.350980386 484.717393405 464.690429688 450.560959313 464.690429688 393.75 c 0
 464.690429688 336.923694051 466.572973076 300.829428353 471.564642436 279.562322199 c 0
 474.37415249 267.592348978 477.674033106 261.818695955 480.800082729 258.627262096 c 0
 483.928216198 255.433700806 489.214794963 253.125 499.690429688 253.125 c 0
 510.166064412 253.125 515.452643177 255.433700806 518.580776646 258.627262096 c 0
 521.706826269 261.818695955 525.006706885 267.592348978 527.816216939 279.562322199 c 0
 532.807886299 300.829428353 534.690429688 336.923694051 534.690429688 393.75 c 0
 534.690429688 450.560959313 533.029878989 484.717393405 528.96437637 504.846494408 c 0
 525.787824719 520.574224785 521.336808068 526.391094703 517.51190645 529.292744206 c 0
 513.810291475 532.100865911 507.377612508 534.21875 499.690429687 534.21875 c 0
499.000804864 159.134837993 m 0
 491.513631754 159.134837993 483.751499518 157.28626975 476.384566486 153.156322444 c 0
 460.670687357 144.486596028 453.510924171 129.659026582 453.510924171 114.163301259 c 0
 453.510924171 88.844087551 471.719272421 65 499.690429688 65 c 0
 512.251263639 65 525.59157032 71.82252639 535.27206151 83.0164661307 c 0
 542.966279444 91.9135985391 547.190429688 102.230955907 547.190429688 111.875 c 0
 547.190429688 138.821034525 524.176236066 159.134837993 499.000804864 159.134837993 c 0
EndSplineSet
Validated: 524297
EndChar

StartChar: uniF027
Encoding: 61479 61479 30
Width: 1000
LayerCount: 2
Fore
SplineSet
491.720075015 784.655662454 m 0
 466.157271319 784.655662454 441.402081655 782.589209273 418.337074002 778.370000556 c 0
 359.3626538 767.312296768 297.551898183 742.988171652 244.182456825 710.843436948 c 0
 201.488454388 685.12858315 164.468107907 654.500509755 138.450332484 622.963812271 c 0
 127.765395565 609.834814159 117.078943615 596.707331078 106.393200786 583.579138876 c 1
 88.5265908454 600.608251475 70.6044048266 617.581950447 52.7983154852 634.67384463 c 0
 38.9453280806 647.971194222 30.6123347661 656.201056669 21.580581052 662.7043723 c 1
 20.6442891832 658.209236874 19.9003636971 651.887797436 19.358949537 643.135860639 c 0
 18.2033762183 624.456067246 18.125 596.662909437 18.125 558.721406217 c 2
 18.125 443.125 l 1
 133.711368733 443.125 l 2
 171.55929052 443.125 199.348059833 443.203957109 218.052620681 444.367311402 c 0
 226.897003239 444.917399186 233.272818937 445.675227152 237.793666163 446.630757605 c 1
 230.593703803 456.646790235 219.234174104 467.539751034 205.273280844 482.280349771 c 0
 182.689320095 506.125607886 171.691453465 519.948788957 153.607119664 542.029204052 c 1
 172.759680634 564.284377091 l 2
 184.107009774 577.469912641 195.937005342 589.120050211 210.915870573 603.36823909 c 0
 289.926622074 678.493215927 394.649558871 721.25 500 721.25 c 0
 696.720904683 721.25 873.941593187 575.009063023 912.216291379 381.040677269 c 0
 915.945689059 362.140848345 920.576663497 347.278191036 925.482262776 336.383655965 c 0
 932.967475707 319.760220138 940.437221368 315 947.5 315 c 0
 962.355652718 315 970.189271358 319.396814185 974.284836223 324.887253159 c 0
 978.048078896 329.932187111 980.824898299 338.19352199 980.824898299 351.763824713 c 0
 980.824898299 358.899401445 980.038855925 367.204399402 978.353491698 376.754796688 c 0
 952.226806017 525.008547995 862.979605815 652.321782498 735.792957915 723.788565604 c 0
 666.662352105 762.501704857 575.180494152 784.655662454 491.720075015 784.655662454 c 0
500 534.21875 m 0
 492.362612349 534.21875 486.217185493 532.276381026 482.027870882 529.179931096 c 0
 478.538011554 526.600469853 473.925870546 520.68941722 470.726053318 504.846494408 c 0
 466.660550699 484.717393405 465 450.560959313 465 393.75 c 0
 465 336.923694051 466.882543388 300.829428353 471.874212749 279.562322199 c 0
 474.683722803 267.592348978 477.983603418 261.818695955 481.109653042 258.627262096 c 0
 484.237786511 255.433700806 489.524365275 253.125 500 253.125 c 0
 510.475634725 253.125 515.762213489 255.433700806 518.890346958 258.627262096 c 0
 522.016396582 261.818695955 525.316277197 267.592348978 528.125787251 279.562322199 c 0
 533.117456612 300.829428353 535 336.923694051 535 393.75 c 0
 535 450.560959313 533.339449301 484.717393405 529.273946682 504.846494408 c 0
 526.097395031 520.574224785 521.64637838 526.391094703 517.821476763 529.292744206 c 0
 514.119861787 532.100865911 507.687182821 534.21875 500 534.21875 c 0
47.361030309 285.197990732 m 0
 43.1683238982 285.197990732 38.1055303919 284.229293639 31.8505399536 281.707120075 c 0
 26.6596339155 279.63075766 19.3644769473 270.490330389 19.3644769473 246.946773833 c 0
 19.3644769473 239.841156303 20.0852390588 231.903738639 21.6367088928 223.300133196 c 0
 53.2345204887 44.0433174118 177.735640739 -103.195257427 341.553282239 -156.995147071 c 0
 395.976380686 -174.838785905 450.529636993 -183.540849317 503.74766676 -183.540849317 c 0
 632.109846262 -183.540849317 753.378008132 -132.990215844 847.37706489 -36.4158424622 c 0
 864.000403064 -19.264712895 880.623766808 -2.11360889927 897.247162075 15.0374635746 c 1
 914.1514203 -1.59414532432 931.019024287 -18.2638518048 947.963163755 -34.8549065799 c 0
 961.383337596 -47.997679203 969.8270654 -56.3936831153 978.328353481 -62.699879921 c 1
 979.259225627 -58.2068918368 980.006879815 -51.9153698903 980.558510541 -43.2474084281 c 0
 981.806173564 -23.6424544173 981.875 5.96999270439 981.875 46.875 c 2
 981.875 156.875 l 1
 871.875 156.875 l 2
 823.31723027 156.875 793.316800507 156.612321824 775.425151544 155.609360126 c 0
 771.151071033 155.369765718 767.698908179 155.097786806 764.896185772 154.800127976 c 1
 772.158239618 144.35560164 782.248036387 132.432026847 795.121036139 119.211108183 c 0
 818.211840852 95.4788922287 828.557529817 81.0646614984 845.960940227 58.4728189746 c 1
 827.927834905 36.9366693586 l 2
 816.367133589 23.1302289952 804.321904792 11.1262301598 789.084129427 -3.36823909022 c 0
 710.073377926 -78.4932159265 605.350441129 -121.25 500 -121.25 c 0
 303.27604196 -121.25 125.419136602 25.5908267533 87.7762703045 218.997277728 c 0
 83.8620333806 239.351309732 78.084279624 256.721924543 71.6671983198 267.811561536 c 0
 66.4841116185 276.768678845 61.6275661961 280.977761137 57.5851288624 283.004214842 c 0
 54.9124323567 284.344024291 51.9454021334 285.197990732 47.361030309 285.197990732 c 0
499.310375177 159.134837993 m 0
 491.823202067 159.134837993 484.06106983 157.28626975 476.694136798 153.156322444 c 0
 460.980257669 144.486596028 453.820494483 129.659026582 453.820494483 114.163301259 c 0
 453.820494483 88.844087551 472.028842733 65 500 65 c 0
 512.560833952 65 525.901140633 71.82252639 535.581631823 83.0164661307 c 0
 543.275849756 91.9135985391 547.5 102.230955907 547.5 111.875 c 0
 547.5 138.821034525 524.485806378 159.134837993 499.310375177 159.134837993 c 0
EndSplineSet
Validated: 524297
EndChar

StartChar: uniF028
Encoding: 61480 61480 31
Width: 1000
LayerCount: 2
Fore
SplineSet
494.34425552 784.004011643 m 0
 464.968180821 784.004011643 436.310487842 781.348135596 409.483903875 775.922534344 c 0
 176.848168722 728.848009113 16.1088623898 528.447253498 16.1088623898 300.685068866 c 0
 16.1088623898 275.895603586 18.014057041 250.760214976 21.9459060379 225.441490375 c 0
 54.0616035171 19.4162612628 219.610002846 -146.188732791 427.596370987 -178.932942353 c 0
 451.982617056 -182.751667699 476.352933532 -184.604035315 500.532852349 -184.604035315 c 0
 695.267969996 -184.604035315 877.710021726 -64.3750088544 948.754772021 119.157262742 c 0
 960.975330256 150.351845603 965.887050977 168.777097498 965.887050977 180.44410373 c 0
 965.887050977 190.237486033 962.585494933 194.838614 955.931651378 200.122548588 c 0
 945.564533059 208.355260194 941.477040347 209.587004234 938.590622349 209.587004234 c 0
 935.726141811 209.587004234 932.07421083 208.710928482 923.086271297 204.639822974 c 0
 916.991905367 201.391450543 909.741956917 193.01263661 898.637466762 164.017581662 c 0
 832.843250483 -8.20845506809 676.228706803 -121.25 500.249023438 -121.25 c 0
 344.955833137 -121.25 193.173434924 -26.9927503448 124.89907964 112.156888043 c 0
 94.6662104989 174.230757663 79.3115234375 237.060290888 79.3115234375 300 c 0
 79.3115234375 362.948912494 94.6474929516 425.730956305 124.879969741 487.80402035 c 0
 178.955414028 597.909443056 292.928883443 686.803192342 412.829226442 711.5652197 c 0
 441.373247537 717.591179709 470.119584701 720.541166673 498.852794606 720.541166673 c 0
 587.492260039 720.541166673 674.719409786 692.322915916 748.976590891 639.072700518 c 0
 769.401996395 624.483125158 782.255682658 619.617712548 791.191523776 619.617712548 c 0
 797.803911512 619.61771264 804.446040289 623.028399842 812.188337152 631.865757422 c 0
 818.206407048 638.735015544 820.096630752 644.310221851 820.096630752 648.614397982 c 0
 820.096630752 653.82933751 817.55002619 661.159150273 808.303188814 671.442038028 c 0
 796.778669601 684.257807645 776.517457828 699.572038056 746.282290116 717.762301557 c 0
 675.994038377 760.115478887 582.202372307 784.004011643 494.34425552 784.004011643 c 0
500.249023437 534.21875 m 0
 492.611635786 534.21875 486.466208931 532.276381026 482.27689432 529.179931096 c 0
 478.787034992 526.600469853 474.174893983 520.68941722 470.975076755 504.846494408 c 0
 466.909574136 484.717393405 465.249023438 450.560959313 465.249023438 393.75 c 0
 465.249023438 336.923694051 467.131566826 300.829428353 472.123236186 279.562322199 c 0
 474.93274624 267.592348978 478.232626856 261.818695955 481.358676479 258.627262096 c 0
 484.486809948 255.433700806 489.773388713 253.125 500.249023438 253.125 c 0
 510.724658162 253.125 516.011236927 255.433700806 519.139370396 258.627262096 c 0
 522.265420019 261.818695955 525.565300635 267.592348978 528.374810689 279.562322199 c 0
 533.366480049 300.829428353 535.249023438 336.923694051 535.249023438 393.75 c 0
 535.249023438 450.560959313 533.588472739 484.717393405 529.52297012 504.846494408 c 0
 526.346418469 520.574224785 521.895401818 526.391094703 518.0705002 529.292744206 c 0
 514.368885225 532.100865911 507.936206258 534.21875 500.249023437 534.21875 c 0
949.606788178 533.48327179 m 0
 948.623419088 533.48327179 945.026241954 533.23798836 935.112906625 525.369705302 c 0
 922.331792098 515.225245989 900.88356213 494.462300976 862.021665324 456.189220788 c 2
 766.094950652 360.962428704 l 1
 749.557246486 376.704691123 733.009756006 392.437167229 716.478202837 408.185580645 c 0
 702.435621813 422.017010202 691.796350932 430.909866748 683.395819327 435.94336782 c 0
 676.703265613 439.953468356 672.413215803 440.965228106 669.456630537 440.965228106 c 0
 665.31434908 440.965227987 659.879175121 438.254336192 651.220204792 429.766376257 c 0
 641.810522818 420.542530863 640.117704795 416.04143205 640.117704795 412.667743516 c 0
 640.117704795 409.367649891 641.504416712 404.1383071 648.7271422 393.907196857 c 0
 657.465452996 381.529234929 673.135377621 364.572689567 697.103545313 340.604521875 c 0
 724.495690105 313.212377083 741.062502466 297.91871956 751.807090841 290.258611468 c 0
 759.999475617 284.418038455 764.092435313 283.75 765.874023438 283.75 c 0
 767.438319139 283.75 771.657466564 284.140918009 786.019746573 295.735414554 c 0
 802.364791905 308.930573785 837.211490246 342.29604413 886.191693446 391.545528104 c 0
 933.65719466 439.268890929 960.05731092 465.997372585 972.989218262 481.416609022 c 0
 983.800713736 494.307592585 983.890903828 497.896029584 983.890903828 499.008494298 c 0
 983.890903788 500.105105771 983.572362582 501.83499852 983.001803101 504.742292942 c 0
 980.498996369 517.495382321 977.261056259 522.741790963 973.753923663 525.65473167 c 0
 970.501048439 528.356492267 965.36112283 530.729474133 954.864376614 532.777619736 c 0
 951.861178151 533.358883955 950.842226327 533.48327179 949.606788178 533.48327179 c 0
499.559398614 159.134837993 m 0
 492.072225504 159.134837993 484.310093268 157.28626975 476.943160236 153.156322444 c 0
 461.229281107 144.486596028 454.069517921 129.659026582 454.069517921 114.163301259 c 0
 454.069517921 88.844087551 472.277866171 65 500.249023438 65 c 0
 512.809857389 65 526.15016407 71.82252639 535.83065526 83.0164661307 c 0
 543.524873194 91.9135985391 547.749023438 102.230955907 547.749023438 111.875 c 0
 547.749023438 138.821034525 524.734829816 159.134837993 499.559398614 159.134837993 c 0
EndSplineSet
Validated: 524297
EndChar

StartChar: uniF02A
Encoding: 61482 61482 32
Width: 1000
LayerCount: 2
Fore
SplineSet
500.37890625 766.25 m 0
 486.672014061 766.25 480.426415927 761.998800358 478.796872902 760.149237517 c 2
 478.796872902 760.149237517 476.109410129 755.992359737 474.39169577 753.039593629 c 0
 470.967002341 747.152515469 466.216527878 738.488735486 460.585369168 727.830093373 c 0
 447.914762089 703.847202252 430.812458587 669.83789002 413.53945926 633.564591435 c 2
 352.352114849 506.815198812 l 1
 289.973513619 496.88440595 146.085343898 477.473800088 102.255523396 468.40851137 c 0
 83.1457634466 464.456054133 71.3865176913 460.835141957 64.0999578147 457.17817691 c 0
 58.7839411881 454.510184426 56.4287487304 451.885105769 55.5319100815 450.357330691 c 0
 53.7278947043 447.284169448 53.0934843805 444.501366448 53.0934843805 433.946723099 c 0
 53.0934843805 432.085010641 53.6042021408 427.568753615 63.6110085361 415.281223916 c 0
 76.3157435149 399.680861303 102.224393017 373.577269235 150.478117645 326.342989494 c 2
 258.619288049 220.839442352 l 1
 233.517166961 76.1719550274 l 2
 219.666646051 -4.07959259487 214.283953348 -38.4463476326 214.283953348 -54.5135013598 c 0
 214.283953348 -61.723821435 215.87514418 -65.8459850296 217.080203496 -68.141565481 c 0
 221.638012408 -76.8239738081 224.089864477 -80.0717978852 226.901425895 -82.1898843044 c 0
 228.008949383 -83.0242357946 230.701466327 -84.1555744398 233.926787267 -84.1555744398 c 0
 240.503807317 -84.1555744398 250.785387104 -81.6252872732 269.237409186 -73.8058011507 c 0
 291.543560927 -64.3530353126 323.314446637 -48.1172889269 368.6325276 -24.2223007828 c 0
 432.53281312 9.24927705355 468.761014512 27.2527586497 501.251494075 41.9935738738 c 1
 534.074191968 27.0636369854 569.486598079 9.47607750526 632.663237365 -24.2590211428 c 0
 677.836383182 -48.1863495206 709.523456777 -64.4805144976 731.831559576 -73.9938427764 c 0
 750.292667024 -81.8666133622 760.596418356 -84.4242770005 767.20025498 -84.4242770005 c 0
 770.429992869 -84.4242770005 773.131179028 -83.2906818961 774.259135798 -82.4375790377 c 0
 778.498668126 -79.2311111623 786.942609152 -67.7072459389 786.942609152 -54.2095886813 c 0
 786.942609152 -38.3073160056 781.775205089 -4.63663286663 768.202783099 73.9405182861 c 2
 742.594936957 222.196415313 l 1
 799.553499764 276.58264803 871.890120537 344.274578266 920.684126545 395.779972234 c 0
 931.508097282 407.205409961 937.040248216 413.364794596 944.145212686 421.739108284 c 0
 945.72981926 425.372336882 946.90615617 429.341879913 946.90615617 434.018420077 c 0
 946.90615617 444.675774673 941.854733926 454.450940989 934.392540822 459.248065128 c 1
 934.392540822 459.248065128 932.011581652 460.143143247 927.366952417 461.42758875 c 0
 920.925746279 463.208867263 911.445701265 465.381379138 899.599638308 467.771242552 c 0
 872.976307009 473.142320325 834.779368319 479.558704368 791.58520141 485.778664403 c 0
 721.365092927 495.89512071 686.100768609 501.007392095 648.664285378 506.822755831 c 1
 615.778061065 574.50499663 571.522406984 668.308029767 540.350018249 727.94308516 c 0
 533.955915359 740.17547079 529.630257382 747.975938148 525.265007974 755.690805369 c 0
 522.999602898 759.694539803 523.370033164 759.119719835 522.803399217 759.733520677 c 0
 519.744307684 763.047252532 512.205369011 766.25 500.37890625 766.25 c 0
EndSplineSet
Validated: 524297
EndChar

StartChar: uniF02B
Encoding: 61483 61483 33
Width: 1000
LayerCount: 2
Fore
SplineSet
265.29296875 63.125341857 m 1
 265.29296875 39.7918945713 265.29296875 16.4584472857 265.29296875 -6.875 c 0
 265.29296875 -25.491051686 266.207220816 -42.4486293185 267.978588541 -55.7107550587 c 0
 269.364275034 -66.085308152 271.414539029 -74.1650905301 272.944778424 -78.1056301474 c 0
 284.308878462 -104.873541564 310.075789601 -121.368641032 341.169573329 -121.368641032 c 0
 347.007430427 -121.368640821 353.089934649 -120.605621859 359.174054317 -119.560641453 c 0
 363.883562131 -118.751758055 370.50071479 -116.13549455 383.202647426 -106.232562078 c 0
 399.262395394 -93.7117430633 423.828319997 -70.534140066 464.734014809 -29.9751036847 c 2
 559.662027122 64.2982398885 l 1
 862.507589774 68.060682145 l 1
 869.448344922 73.5402256836 876.38755042 79.0216018062 883.330003532 84.4990805022 c 0
 900.600359288 98.1251006146 908.40421384 104.555125527 913.386078996 119.618487986 c 0
 916.326700029 128.509864823 918.621043199 140.746031537 920.046800802 159.727457184 c 0
 921.824455014 183.393760064 922.210802778 216.969837153 922.210802778 265.067235424 c 0
 922.210802778 391.602800804 920.655238979 532.449314799 919.706227893 662.247628867 c 1
 913.280682593 670.386652854 906.745083826 678.580376027 900.392595393 686.764649844 c 0
 892.232835364 697.27733492 887.975343744 702.431555512 880.824783973 707.008192787 c 0
 876.03018988 710.076920096 869.19514285 712.90420831 857.549560608 715.172818798 c 0
 824.174833363 721.674362017 755.079396615 722.521633315 600.436666789 722.521633315 c 2
 500.300678359 722.500000833 l 2
 329.514935948 722.500000833 238.697918899 722.104375805 189.510405971 720.281359897 c 0
 167.597485504 719.46921063 154.182749126 718.365938044 145.91485187 717.043991556 c 0
 138.586339734 715.872243369 136.93234487 714.990735418 134.940591125 713.989091269 c 0
 126.053502393 709.51981365 111.814910596 699.793202444 104.836892279 693.351954766 c 0
 81.0240070152 671.444100324 77.789711818 672.759291956 77.789711818 434.308747359 c 2
 77.789711818 331.303674068 l 2
 77.789711818 210.787860299 78.8227633806 155.5722719 85.2130718868 127.689776069 c 0
 87.5194128755 117.626640159 90.4939712457 111.218748935 93.8544713071 106.437515138 c 0
 100.572576799 96.8791659503 127.684739096 74.5296512192 138.99453404 71.0183987956 c 0
 147.301409834 68.4394362318 163.42213484 67.2271872344 192.068186577 66.2409578278 c 2
 192.211023433 66.2409578278 l 1
 216.561764353 65.1832146449 240.934030327 64.1621659251 265.29296875 63.125341857 c 1
142.55859375 481.650390625 m 0
 142.55859375 568.524639792 143.083942831 600.2014458 144.605629525 652.562172963 c 1
 203.970689921 657.263741824 223.456726168 657.935586535 349.068546701 657.935586535 c 0
 509.291951322 657.935586535 691.283731956 656.451941836 855.91796875 655.542360417 c 1
 855.91796875 132.16814316 l 1
 531.62466274 125.74765024 l 1
 329.04296875 -76.83404375 l 1
 329.04296875 44.1137076953 l 2
 329.04296875 67.383398416 328.894925562 84.3640339879 327.469266259 96.4327574641 c 0
 326.271802885 106.569719577 324.48002877 111.660180092 322.281420372 114.989123367 c 0
 320.338972936 117.930209798 316.276172474 121.178421148 306.797470957 123.383588618 c 0
 295.036022905 126.119824441 269.573738326 127.502100242 242.648980774 128.613840386 c 2
 144.779919934 132.449108118 l 1
 143.880091913 247.921104835 142.55859375 366.31681564 142.55859375 481.650390625 c 0
EndSplineSet
Validated: 524297
EndChar

StartChar: uniF02C
Encoding: 61484 61484 34
Width: 1000
LayerCount: 2
Fore
SplineSet
499.690429688 -181.875 m 0
 636.666870462 -181.875 748.724360602 -136.007025336 842.210907812 -42.520478125 c 0
 935.697455023 50.9660690856 981.565429688 163.023559226 981.565429688 300 c 0
 981.565429688 406.365917425 960.045217768 479.65740439 905.880016533 562.42670066 c 0
 837.932262281 667.381713924 742.032976601 736.337175123 614.623192072 771.115203861 c 0
 589.678983852 777.6836861 530.712552706 782.303963465 481.673676646 782.303964307 c 0
 454.792892595 782.303964307 431.234520675 780.931682582 418.184674288 778.399622836 c 0
 283.678387672 752.22871639 172.308522726 679.445712574 99.6148259249 572.222509793 c 0
 47.0931964645 495.876636041 18.4404296875 422.009154069 18.4404296875 300 c 2
 18.4342538966 297.184444386 l 2
 18.4342538966 161.495681836 64.2625638689 50.9903165728 157.204477396 -42.5551158735 c 0
 250.692674081 -136.043312558 362.720938417 -181.875 499.690429688 -181.875 c 0
498.426466003 720.967729614 m 0
 527.693037733 720.967729614 557.281951864 717.859259341 587.110226683 711.5652197 c 0
 707.010569682 686.803192342 820.984039097 597.909443056 875.059483384 487.80402035 c 0
 905.291960173 425.730956305 920.627929688 362.948912494 920.627929688 300 c 0
 920.627929688 237.073497064 905.246495129 174.176543337 875.013018382 112.101426188 c 0
 836.480000589 34.3822886053 765.35278527 -36.7681707896 687.60742109 -75.3141916853 c 0
 625.58647702 -105.438650234 563.163940591 -120.903081496 499.323806762 -120.903081496 c 0
 470.520046041 -120.903081496 441.604218851 -117.793583884 412.270632692 -111.5652197 c 0
 292.364968708 -86.8020934425 178.40920026 2.06519214877 124.334806845 112.168475126 c 0
 94.0863330502 173.952591813 78.7529296875 236.742708452 78.7529296875 299.765625 c 0
 78.7529296875 362.77507486 94.1124820025 425.779041658 124.350485482 487.863453056 c 0
 147.482258897 534.827962719 166.338536857 557.82290242 204.74404193 595.637553569 c 0
 287.116456485 677.501496429 389.493845365 720.967729614 498.426466003 720.967729614 c 0
471.712688524 292.310553474 m 0
 471.712688524 271.020130871 482.547232411 254.639267498 500.347124363 254.639267498 c 0
 507.922971878 254.639267498 516.672312963 258.30377557 524.575066347 266.08409641 c 0
 533.185011379 273.605132881 554.686214161 289.872264366 578.023934163 306.079014368 c 0
 600.999869707 322.062273876 615.573732585 336.498623117 624.917596392 352.119760395 c 0
 632.353872699 364.551779464 636.911180737 378.472963436 639.195672897 395.733570866 c 0
 639.810683452 400.45619231 640.178755203 404.991607079 640.178755203 409.824640905 c 0
 640.178755203 460.232396994 603.055466906 510.270222908 550.981335269 525.636483891 c 0
 532.796031964 531.242945349 510.78647483 534.148326483 490.755251889 534.148326483 c 0
 476.198837657 534.148326483 463.376539793 532.626021065 453.961552552 529.990956886 c 0
 428.367800945 521.952759269 406.360717775 507.861488477 388.11370008 488.474031796 c 0
 365.918602401 464.799260939 358.843261153 450.211340784 358.843261153 440.238299261 c 0
 358.843261153 434.470725394 361.741690566 427.891372743 369.733199028 419.916340039 c 0
 378.581094056 411.086686345 384.502173553 408.943131552 388.697514358 408.943131552 c 0
 395.158434017 408.943131552 405.053975153 413.534555112 422.330409681 432.573891122 c 0
 439.830749172 451.532592238 450.353410793 462.395514721 474.868928165 467.386652856 c 0
 482.283650604 468.896223442 490.373776836 469.969228935 499.318925329 469.969228935 c 0
 512.568287369 469.969228935 524.497622585 467.645720012 534.980446665 463.794377389 c 0
 543.377436698 460.709360854 551.047485016 456.766450036 558.294542281 450.448744163 c 0
 572.410877891 438.142665551 576.536992628 421.202560773 576.596376782 409.120272754 c 0
 576.596376782 408.962491096 576.605125749 408.646614628 576.605125749 408.193951579 c 0
 576.605125749 405.730595981 576.142720176 399.916030104 574.349895163 394.796137612 c 0
 572.086703266 388.332986376 568.649699734 383.532605891 565.458501974 379.837366036 c 0
 558.353338846 371.609959293 550.154918092 365.395098528 535.112717413 355.173967882 c 0
 519.144064142 344.107261404 496.748004599 326.111914578 486.228944576 315.96225265 c 0
 479.339586758 309.314828584 475.532081374 304.839219348 473.828634725 301.650742076 c 0
 472.493724718 299.1520843 471.712688524 297.041942808 471.712688524 292.310553474 c 0
499.000804864 159.134837993 m 0
 491.513631754 159.134837993 483.751499518 157.28626975 476.384566486 153.156322444 c 0
 460.670687357 144.486596028 453.510924171 129.659026582 453.510924171 114.163301259 c 0
 453.510924171 88.844087551 471.719272421 65 499.690429688 65 c 0
 512.251263639 65 525.59157032 71.82252639 535.27206151 83.0164661307 c 0
 542.966279444 91.9135985391 547.190429688 102.230955907 547.190429688 111.875 c 0
 547.190429688 138.821034525 524.176236066 159.134837993 499.000804864 159.134837993 c 0
EndSplineSet
Validated: 524297
EndChar

StartChar: uniF02D
Encoding: 61485 61485 35
Width: 1000
LayerCount: 2
Fore
SplineSet
494.201594993 771.862432957 m 0
 480.528028148 771.862432957 468.183462607 768.753233539 458.644820001 762.85661811 c 0
 450.597215592 757.949542251 437.830764067 744.20644775 416.430480772 711.445988302 c 0
 390.295831075 671.43796038 352.702267642 605.624486626 295.819527327 501.570693367 c 0
 222.32751719 367.066448398 150.333684976 227.46855768 100.310353971 124.369711569 c 0
 78.082601846 78.5579763318 60.1903977221 39.9376713001 48.5079386012 12.3834139725 c 0
 38.6523854777 -10.8619014239 34.2601815892 -23.8354220238 33.8061214335 -27.921963425 c 0
 33.5632426066 -30.1483526717 33.4456848294 -32.4394991923 33.4456848294 -34.7631355639 c 0
 33.4456848294 -49.8270126913 38.3719004646 -66.398410584 46.566078191 -80.0699126525 c 0
 53.2817563473 -91.2746254218 61.0978411431 -98.8463732643 69.0881037488 -103.015205928 c 0
 72.5687558862 -104.831198348 79.8933444556 -106.920074818 96.2383038888 -109.289623323 c 0
 115.276275538 -112.04958106 143.1010898 -114.410832135 180.441311213 -116.303776544 c 0
 264.465019925 -120.563317693 396.44503887 -122.5 587.6484375 -122.5 c 2
 905.18939375 -122.5 l 1
 934.543915625 -93.145478125 l 2
 959.920228936 -67.7691648139 966.554522051 -55.0106767721 966.554522051 -39.4830776706 c 0
 966.554522051 -33.1520434032 965.458414746 -25.7560240295 963.081245588 -16.0888694567 c 0
 962.297023712 -12.8997004943 956.275938481 2.82402073059 946.625182732 23.6856439235 c 0
 934.410203007 50.090239684 916.361226105 86.5785965191 894.195565328 130.971548201 c 0
 844.948470898 229.602665292 776.089885328 362.424435248 708.809432154 487.274760725 c 0
 598.434642714 691.091843497 578.676812321 723.844646614 559.507322327 745.097776826 c 0
 544.434945533 761.808455445 518.944525129 771.862432957 494.201594993 771.862432957 c 0
442.181797153 -52.4780501207 m 0
 303.082442546 -52.4780501207 187.326344845 -48.8482212625 140.208260502 -43.2712341704 c 2
 94.3449262061 -37.8427617074 l 1
 112.000943057 4.84039393098 l 2
 129.276826511 46.6045827886 178.401179932 145.258768582 254.991146334 291.34703783 c 0
 328.793317298 431.540283091 383.540773282 533.1721658 421.612076222 600.355006629 c 0
 456.671480484 662.22287545 468.826587886 679.108426345 500.156349099 726.107282892 c 1
 536.50030983 667.870929604 556.793814217 635.804125402 600.838871617 555.893806975 c 0
 653.429441722 459.071432875 735.765392205 298.868822177 798.663008467 172.940550208 c 0
 850.939480346 68.2770325806 868.357905072 31.0095614098 899.360138345 -38.5764210222 c 1
 836.289316589 -44.4817213297 828.436994458 -45.6792149096 731.858264464 -48.1180717276 c 0
 633.353404621 -51.0902011195 532.728069568 -52.4780501207 442.181797153 -52.4780501207 c 0
532.112723214 372.450801749 m 0
 532.112723214 412.193210078 525.073501147 439.66933777 514.439677522 455.585580511 c 0
 504.716596057 470.138664167 500.50618471 470.694444444 499.245659722 470.694444444 c 0
 498.137274957 470.694444318 495.635466537 470.079786875 491.294126297 467.574247575 c 0
 475.577192929 458.503455595 466.987896201 440.661348412 466.987896201 370.840349801 c 0
 466.987896201 342.404317844 467.966193893 314.477224066 469.941909376 299.311399388 c 0
 471.516568954 287.22412706 473.607365855 280.252666862 476.04724962 275.700606701 c 0
 477.850132905 272.336990245 480.802500097 269.845612469 483.345132112 268.778864825 c 0
 488.263376763 266.715441622 492.999091787 265.879033171 504.742350671 265.879033171 c 0
 513.363796412 265.879033171 516.181356862 268.197844749 517.251276154 269.726177692 c 0
 518.887355079 272.063244925 520.526579021 275.627102412 522.447308477 283.186688706 c 0
 527.584952797 303.407373854 532.112723214 346.311332592 532.112723214 372.450801749 c 0
494.993280962 158.730410528 m 0
 494.767379264 158.730410528 493.082554476 158.497375962 490.789267847 157.194065742 c 0
 487.040489143 155.063576889 482.421271087 151.382100032 474.413212584 144.35063403 c 0
 456.617219013 128.981366855 453.316615581 121.618097925 453.316615581 115.965088142 c 0
 453.316615581 112.675199565 454.348534129 108.339584246 457.879027536 101.209387306 c 0
 470.837392831 76.8284835976 490.691320121 73.3978775266 496.348033436 68.6032799756 c 1
 504.492301879 68.6032799756 514.816434395 72.5604955042 526.622397518 83.9292007343 c 0
 538.829978099 95.6672589846 542.899947164 105.676833923 542.899947164 113.415534349 c 0
 542.899946972 123.670985012 535.548590206 136.094675097 513.418865741 149.798600566 c 0
 512.879446867 150.132637985 512.354166628 150.458786101 511.842832064 150.77626618 c 0
 500.093964535 158.070964526 497.670423285 158.730410528 494.993280962 158.730410528 c 0
EndSplineSet
Validated: 524297
EndChar

StartChar: uniF02E
Encoding: 61486 61486 36
Width: 1000
LayerCount: 2
Fore
SplineSet
890.6640625 -122.5 m 0
 906.697548864 -122.5 921.9140625 -105.546428469 921.9140625 -90.625 c 0
 921.9140625 -89.2434346969 921.595937366 -85.3619793589 910.545230437 -71.5485956976 c 0
 897.390163353 -55.1047618418 871.492996255 -28.009644055 825.019890469 18.8102759535 c 2
 715.502333551 129.003861059 l 1
 721.228883516 138.409346443 726.915476823 147.854788486 732.666854816 157.235445843 c 0
 775.304694785 222.3422434 796.100335337 293.468711456 796.100335337 363.099448333 c 0
 796.100335337 454.718422249 760.13927109 544.31574766 689.434540625 615.020478125 c 0
 619.11128689 684.887087355 529.374744559 721.909853557 436.907965986 721.909853557 c 0
 407.496786621 721.909853557 377.744184396 718.158389513 348.191443085 710.480471427 c 0
 282.306206198 692.951371705 236.482232794 666.464213645 184.936773437 614.312337119 c 0
 132.167527007 562.149633751 106.50973375 517.208704685 88.9446354007 448.765390427 c 0
 81.5724554656 419.975087734 78.0866372999 391.203789356 78.0866372999 362.922012751 c 0
 78.0866372999 172.241394799 236.608047524 2.5 436.9140625 2.5 c 0
 501.019607378 2.5 583.815435264 28.7094262123 642.694165275 67.0841351274 c 1
 670.410200647 83.9117280321 l 1
 780.610654471 -25.6126493875 l 2
 828.477416387 -73.1325507105 855.453471448 -98.8997459771 871.625455457 -111.699392135 c 0
 884.737805669 -122.077428802 889.029705562 -122.5 890.6640625 -122.5 c 0
435.662258547 657.991442471 m 0
 456.066500494 657.991442471 476.728816385 655.849428387 497.464105487 651.564135306 c 0
 554.520033217 639.759460603 602.141180238 612.856842168 644.423474635 570.574547772 c 0
 702.813834208 511.856152471 732.2265625 437.093027498 732.2265625 362.34375 c 0
 732.2265625 287.583882183 702.831185555 213.129778174 644.393584375 155.020478125 c 0
 587.519676617 98.1465703668 514.521328967 67.3575023295 438.319761177 67.3575023295 c 0
 422.294290671 67.3575023295 406.130549609 68.7187835536 389.993102223 71.4655831087 c 0
 235.67702668 97.8954082017 142.147476253 228.902629729 142.147476253 363.534975583 c 0
 142.147476253 436.614022067 169.651517039 510.888965744 229.434540625 569.979521875 c 0
 287.254657125 627.799638375 359.328693786 657.991442471 435.662258547 657.991442471 c 0
EndSplineSet
Validated: 524297
EndChar

StartChar: uniF02F
Encoding: 61487 61487 37
Width: 1000
LayerCount: 2
Fore
SplineSet
830.871784987 613.748116047 m 0
 804.374739427 613.748116047 748.357459018 597.802054328 716.486561955 589.539355104 c 1
 705.580403999 595.983902987 694.674246042 602.428450871 683.768088086 608.872998754 c 0
 674.486597458 614.24867044 667.782446818 618.355922286 661.883886487 622.635741685 c 0
 657.178097328 626.050121905 652.622668741 629.781625896 648.335014576 635.085202425 c 0
 642.783612291 641.951961202 639.902439552 648.587994075 637.212904384 655.730147641 c 0
 633.810621551 664.765027257 630.577036614 675.804068641 626.135612457 692.358467771 c 0
 613.080425274 741.018710909 586.773968539 771.427240385 559.557964293 779.344623438 c 0
 549.048819965 782.401829061 524.888272035 784.299219375 499.819458029 784.299219375 c 0
 473.696329503 784.299218979 449.30065828 782.012465735 437.833322129 778.688170044 c 0
 412.52028501 771.350108343 389.977941062 745.385224084 376.265117556 698.880866107 c 0
 370.893700183 680.57825876 367.039360068 668.228216153 363.356414367 658.499933585 c 0
 360.420929271 650.746023859 357.744964951 644.229643233 352.315060223 637.02652593 c 0
 343.368353553 625.158145018 333.789984072 619.70247625 318.430741123 610.316272226 c 0
 307.044562911 603.385536904 295.658393589 596.454792692 284.272185338 589.524087409 c 1
 252.165185252 597.746611822 195.274565873 613.912492377 168.594933388 613.912492377 c 0
 156.266432614 613.912492377 147.978487182 611.694400738 140.777183356 608.308280374 c 0
 131.780403527 604.077910412 123.414058234 597.144745703 113.38931275 586.563069914 c 0
 97.5715359099 570.112582001 80.0253050329 543.193246449 67.8386200308 517.90587507 c 0
 57.7291186641 496.928659734 52.5 479.796526223 52.5 470.625 c 0
 52.5 443.20537937 64.2781210535 419.412098635 100.692466358 382.390847575 c 0
 111.901937846 371.181376087 118.879240947 363.850188133 124.30714911 357.358742019 c 0
 128.604647177 352.219197228 132.496893546 347.617612147 135.729610299 339.202007121 c 0
 138.101386255 333.027655584 138.761136531 327.995625309 139.237188038 323.004158107 c 0
 139.837038964 316.714636533 140 309.814817187 140 300 c 0
 140 290.185182813 139.837038964 283.285363467 139.237188038 276.995841893 c 0
 138.761136531 272.004374691 138.101386255 266.972344416 135.729610299 260.797992879 c 0
 132.538006676 252.489416056 128.646142075 247.827595566 124.369799985 242.707019494 c 0
 118.961772421 236.231340991 111.813978671 228.729934921 100.604521875 217.520478125 c 0
 64.1825614193 180.491484995 52.5 156.744872055 52.5 129.375 c 0
 52.5 120.203473777 57.7291186641 103.071340266 67.8386200308 82.0941249298 c 0
 80.0108499078 56.836747935 97.4903604887 29.9724398008 113.31195058 13.5179861055 c 0
 123.427223386 3.02807356592 131.869365557 -3.87262009686 141.015204646 -8.12414025079 c 0
 148.336198871 -11.5273659355 156.740182066 -13.748116047 169.128215013 -13.748116047 c 0
 195.625260573 -13.748116047 251.642540982 2.19794567212 283.513438045 10.4606448962 c 1
 294.419596001 4.01609701281 305.325753958 -2.42845087058 316.231911914 -8.87299875397 c 0
 325.513402542 -14.2486704401 332.217553182 -18.3559222865 338.116113513 -22.6357416846 c 0
 342.821902672 -26.0501219053 347.377331259 -29.7816258956 351.664985424 -35.0852024251 c 0
 357.216387709 -41.9519612024 360.097560448 -48.5879940747 362.787095616 -55.7301476405 c 0
 366.189378449 -64.7650272568 369.422963386 -75.8040686412 373.864387543 -92.3584677712 c 0
 386.919574726 -141.018710909 413.226031461 -171.427240385 440.442035707 -179.344623438 c 0
 452.320711484 -182.800238209 475.782222963 -184.84375 500 -184.84375 c 0
 524.022851335 -184.84375 547.239749445 -182.750435181 559.747526321 -179.290837322 c 0
 586.449196227 -171.90526905 613.095135889 -140.963880433 626.135612457 -92.3584677712 c 0
 630.577036614 -75.8040686412 633.810621551 -64.7650272568 637.212904384 -55.7301476405 c 0
 639.902439552 -48.5879940747 642.783612291 -41.9519612024 648.335014576 -35.0852024251 c 0
 652.550873893 -29.8704319082 657.107163252 -26.0993910199 661.792692274 -22.6929056288 c 0
 676.745360807 -11.8219779951 699.526316143 0.439068698628 716.486799953 10.4606070344 c 1
 748.060198617 2.2749110845 804.184971916 -13.7805893356 830.299686966 -13.7805893356 c 0
 842.498686731 -13.7805893356 850.746405971 -11.6168616703 858.047542163 -8.26734475383 c 0
 867.141931341 -4.09514338701 875.732900422 2.76764824555 886.249713192 13.0850558786 c 0
 901.877295693 28.7549586354 919.601038615 55.6838705289 931.904831975 81.1732350786 c 0
 942.134035357 102.364734753 947.5 119.934260397 947.5 129.375 c 0
 947.5 156.752887364 935.759724548 180.506958345 899.505501681 216.78542216 c 0
 888.115501815 227.974544305 880.923199492 235.413677848 875.501491933 241.827148812 c 0
 871.212219706 246.901030475 867.230330603 251.523546212 864.011269497 260.163994827 c 0
 861.560766798 266.741516025 861.109228446 271.529961203 860.683381503 276.532685115 c 0
 860.149524888 282.804274699 860 289.880435673 860 300 c 0
 860 310.119564327 860.149524888 317.195725301 860.683381503 323.467314885 c 0
 861.109228446 328.470038797 861.560766798 333.258483975 864.011269497 339.836005173 c 0
 867.18270163 348.348610394 871.165151661 353.046398347 875.431757249 358.10066407 c 0
 880.832578029 364.498533004 887.986813211 371.897930686 899.376570324 383.086802803 c 0
 933.858477545 417.59172394 940.739932598 455.487051466 946.82521998 466.138417685 c 1
 946.82521998 482.0496447 941.43434076 500.524417604 929.752830764 524.446273136 c 0
 918.675008434 545.250375012 899.240825137 573.482861717 886.596086318 586.577277092 c 0
 876.518730585 597.013007219 868.062984694 603.913569038 858.931429522 608.147304673 c 0
 851.62124076 611.536585698 843.227373845 613.748116047 830.871784987 613.748116047 c 0
279.034170767 71.3094561064 m 0
 267.074566868 71.3094561064 245.536044361 66.1799078968 218.085272823 58.6346537039 c 0
 208.582906285 56.022786461 200.98923156 54.1097301717 194.882514902 52.7949307858 c 0
 189.96447544 51.7360581332 187.338348404 50.8181775067 180.636847571 50.7125962806 c 2
 165.088160008 49.6869443741 l 1
 153.852617523 60.9841003697 l 2
 149.992024008 64.865864622 149.587519786 65.9816757661 148.358864042 67.7931535415 c 0
 140.51266552 79.3612549548 131.76687083 97.3989631479 123.724480707 113.081623888 c 2
 112.427000269 135.111710743 l 1
 126.528602318 149.968776495 140.630223387 164.825823225 154.731843316 179.682871096 c 0
 179.068931675 205.391063025 190.802014674 221.372512507 196.983356177 239.759816683 c 0
 201.996296888 254.671541854 203.75 272.39870762 203.75 300 c 0
 203.75 327.60129238 201.996296888 345.328458146 196.983356177 360.240183317 c 0
 190.804334413 378.620587089 179.082232102 394.594906071 154.745454636 420.302769591 c 0
 140.639327447 435.164582165 126.533200257 450.02639474 112.427073067 464.888207315 c 1
 117.583384246 474.943252565 122.448175588 484.381236215 127.613165571 494.557950418 c 0
 133.762235944 506.673623827 140.444448153 520.163783052 146.392999798 529.531778537 c 0
 147.232603129 530.854016401 147.835796797 532.867245744 152.884727103 538.043927745 c 0
 156.941372084 542.203216898 166.977104729 549.297518946 179.312939124 549.297518946 c 0
 187.014906656 549.297518946 189.653007431 548.331002117 194.882514902 547.205069214 c 0
 200.98923156 545.890269828 208.582906285 543.977213539 218.085272823 541.365346296 c 0
 245.656398902 533.787010861 266.985141534 528.690543894 279.034170767 528.690543894 c 0
 294.315457254 528.690543894 307.42041182 533.745098964 336.378564191 548.39862185 c 0
 370.977578478 565.869411243 390.602496767 579.382579314 403.415567923 595.246381697 c 0
 413.575903382 607.825844646 420.320025229 622.937055312 426.129361987 645.118159295 c 0
 431.245430899 664.307011494 435.182567336 679.568448833 439.539439883 690.669088817 c 0
 441.485399488 695.627094077 443.208172974 699.346768072 445.856123817 703.353566684 c 0
 447.926158262 706.485879793 450.744744697 710.462532593 456.866993206 714.406582446 c 0
 458.713024257 715.741929138 460.783435036 716.852896103 463.192994072 717.62471481 c 0
 469.019496234 719.875061485 469.658075971 719.504769521 471.580296313 719.808012524 c 0
 479.854841399 721.113376869 485.738564044 721.250218204 497.664955602 721.250218204 c 2
 500 721.250218204 l 2
 528.178598347 721.250218204 532.070332026 718.827544204 551.322925533 715.133943431 c 1
 559.934486412 692.422272433 565.459721667 677.079842485 573.875956368 645.098150621 c 0
 579.719486353 623.052105675 586.127617295 608.391664741 595.901038571 596.176333063 c 0
 608.268809094 580.71844838 627.495259775 567.428434918 662.50547225 549.580091303 c 0
 692.520473111 534.042914387 705.683837687 528.796651979 721.179224434 528.796651979 c 0
 733.092516197 528.796651979 754.669980966 533.876721239 781.914727177 541.365346296 c 0
 791.417093715 543.977213539 799.01076844 545.890269828 805.117485098 547.205069214 c 0
 810.03552456 548.263941867 812.661651596 549.181822493 819.363152429 549.287403719 c 2
 834.911839992 550.313055626 l 1
 846.147382477 539.01589963 l 2
 850.007975992 535.134135378 850.412480214 534.018324234 851.641135958 532.206846458 c 0
 859.48733448 520.638745045 868.23312917 502.601036852 876.275519293 486.918376112 c 2
 887.572999731 464.888289257 l 1
 873.471397682 450.031223505 859.369776613 435.174176775 845.268156684 420.317128904 c 0
 820.931068325 394.608936975 809.197985326 378.627487493 803.016643823 360.240183317 c 0
 798.003703112 345.328458146 796.25 327.60129238 796.25 300 c 0
 796.25 272.39870762 798.003703112 254.671541854 803.016643823 239.759816683 c 0
 809.195665587 221.379412911 820.917767898 205.405093929 845.254545364 179.697230409 c 0
 859.360672553 164.835417835 873.466799743 149.97360526 887.572926933 135.111792685 c 1
 882.416615754 125.056747435 877.551824412 115.618763785 872.386834429 105.442049582 c 0
 866.237764056 93.3263761732 859.555551847 79.8362169473 853.607000202 70.468221462 c 0
 852.767396871 69.145983599 852.164203203 67.1327542554 847.115272896 61.9560722544 c 0
 843.058627916 57.7967831018 833.022895272 50.702481054 820.687060876 50.702481054 c 0
 812.985093344 50.702481054 810.346992569 51.6689978831 805.117485098 52.7949307858 c 0
 799.01076844 54.1097301717 791.417093715 56.022786461 781.914727177 58.6346537039 c 0
 754.554169384 66.1551113029 733.185145259 71.2033480214 721.179224434 71.2033480214 c 0
 705.644839385 71.2033480214 692.441604209 65.9165836331 662.422909685 50.3774947026 c 0
 627.415162648 32.5304079781 608.249264182 19.2571233694 595.901038571 3.82366693657 c 0
 586.121049505 -8.39987350757 579.714163051 -23.0721330159 573.870638013 -45.1181592949 c 0
 568.754569101 -64.3070114943 564.817432664 -79.5684488332 560.460560117 -90.6690888167 c 0
 558.514600512 -95.6270940769 556.791827026 -99.3467680719 554.143876183 -103.353566684 c 0
 552.073841738 -106.485879793 549.255255303 -110.462532592 543.133006794 -114.406582446 c 0
 541.286975743 -115.741929138 539.216564964 -116.852896103 536.807005928 -117.62471481 c 0
 530.980503766 -119.875061485 530.341924029 -119.504769521 528.419703687 -119.808012524 c 0
 520.145158601 -121.113376869 514.261435956 -121.250218204 502.335044398 -121.250218204 c 0
 500.777237232 -121.250218204 499.219430065 -121.250218204 497.661622898 -121.250218204 c 0
 485.875715523 -121.250218204 479.238389627 -120.884468341 474.000298329 -120.217596155 c 0
 469.846978186 -119.688828418 466.311290168 -119.809366061 458.608523455 -115.458239442 c 0
 452.043146366 -112.453998179 446.365735613 -104.591652858 443.534840987 -99.3565957621 c 0
 441.613838008 -95.8041638958 439.913057366 -91.8887708374 438.164363895 -86.9904892567 c 0
 434.524131288 -76.7937997775 431.2793798 -64.4359845711 426.684631422 -47.2008091391 c 0
 420.382355348 -23.5716957711 413.768469162 -8.06425942107 403.415567923 4.75361830282 c 0
 390.599790393 20.6207714354 370.966439955 34.1362192844 336.367152688 51.6071465181 c 0
 307.409470236 66.2604316143 294.309977184 71.3094561064 279.034170767 71.3094561064 c 0
496.415364984 470.729547627 m 0
 478.149944834 470.729547627 460.440060796 467.918515718 444.47421153 462.14039884 c 0
 367.914444464 434.688689534 328.6863753 367.007226016 328.6863753 299.039581692 c 0
 328.6863753 238.516926979 359.770086121 178.354398104 424.125676523 146.583916766 c 0
 447.238277163 135.17028682 473.578571744 129.375 500 129.375 c 0
 526.420663753 129.375 552.759934227 135.169403687 575.872639602 146.583085354 c 0
 610.849992927 163.90831644 635.067362163 187.519396271 650.360168469 216.681943859 c 0
 662.638561876 240.096170449 669.375 267.822758196 669.375 300 c 0
 669.375 322.42970645 666.717525411 340.985887106 661.453739542 357.657259718 c 0
 654.891384247 378.441439217 644.206032856 397.009829933 626.798806635 417.044561999 c 0
 598.30319613 449.841396731 545.777915109 470.729547627 496.415364984 470.729547627 c 0
499.570376855 407.891773971 m 0
 516.72970944 407.891773971 533.848064181 403.142831137 550.561723239 394.615454067 c 0
 580.498089101 379.314644849 608.75 341.349261148 608.75 300 c 0
 608.75 258.731849798 580.539513823 220.780745838 550.718454834 205.464845754 c 0
 543.870201928 201.89250978 535.798953423 198.608487335 526.334772108 195.746163721 c 0
 518.725453943 193.444821715 510.768210799 191.25 500 191.25 c 0
 474.326066064 191.25 450.638423088 201.959133299 431.590348043 218.326368153 c 0
 407.829070613 238.743465797 391.25 267.928985852 391.25 300 c 0
 391.25 309.797490215 393.022037819 318.699222652 395.755478821 327.491286317 c 0
 404.482602321 355.561921594 423.761889145 381.493233906 448.18282145 393.987664388 c 0
 464.030399532 402.095727592 480.921472294 407.891773971 499.570376855 407.891773971 c 0
EndSplineSet
Validated: 524297
EndChar

StartChar: uniF030
Encoding: 61488 61488 38
Width: 1000
LayerCount: 2
Fore
SplineSet
172.397937831 704.373812253 m 0
 162.50649862 704.373812253 150.859736293 699.652402807 140.608111652 688.569565357 c 0
 91.3424187843 635.699065694 48.4754718185 556.298837149 28.475429665 480.541101719 c 0
 21.2088365556 452.38305342 17.0761944219 404.742169823 17.0761944219 358.324455409 c 0
 17.0761944219 315.530528366 20.6398059982 274.312833944 27.1707199071 250.910392437 c 0
 45.0109035592 185.701445295 62.3320410969 146.372746271 92.0739895798 100.824048342 c 0
 111.711531241 71.3733800598 126.03368007 51.7214264611 137.193329661 39.6556671062 c 0
 150.657988128 25.0977437768 159.043837205 22.2598190039 166.504867073 22.2598190039 c 0
 174.081207771 22.259820073 179.263978497 23.5868644145 183.141159895 25.3001566118 c 0
 188.129519006 27.5044684209 191.575680308 30.6243338621 195.236849302 35.4325598538 c 0
 199.735326416 41.3404255162 201.122836347 45.8035540165 201.122836347 49.2189289387 c 0
 201.122836347 52.3049389421 200.214846292 56.5202226676 197.033414373 62.8018007738 c 0
 193.027290739 70.7116913996 185.918797043 80.8025371457 174.928148369 94.1738845717 c 0
 148.521954881 125.609175292 126.830132382 163.996174719 110.469273795 204.832582135 c 0
 89.9920791647 255.943293389 77.720703125 311.085940768 77.720703125 362.5 c 0
 77.720703125 455.985257106 116.22658564 560.383933214 178.067948604 634.59356877 c 0
 196.682397551 657.303196485 202.091626302 669.946188043 202.091626302 678.390257732 c 0
 202.091626302 682.901638482 200.117254504 688.338192644 194.134922448 694.899460061 c 0
 188.62087179 700.947128524 180.40156155 704.373812253 172.397937831 704.373812253 c 0
827.720703125 703.75 m 0
 816.739585824 703.75 808.917779878 700.374345579 803.68711642 694.770063303 c 0
 798.012331453 688.689936552 795.849779948 682.925338656 795.849779948 678.390257732 c 0
 795.849779948 669.877723005 801.3420938 657.202617003 819.951505786 634.499134379 c 0
 881.788709802 560.294489561 920.220703125 456.00750538 920.220703125 362.5 c 0
 920.220703125 269.069033586 881.759531488 164.737320221 819.981173497 90.5357530285 c 0
 811.118321707 79.6902129106 803.971106816 69.0857153549 799.668830556 60.9330564656 c 0
 795.361606858 52.7710171155 795.220001705 51.5828978384 795.220001705 50.2794055086 c 0
 795.220001705 50.1876656392 795.220703125 50.0953542864 795.220703125 50 c 0
 795.220703125 30.7563345655 810.417885149 17.5274825804 825.542315461 17.5274825804 c 0
 829.631544093 17.5274825804 833.989340936 18.5168486304 838.1919984 20.7523047286 c 0
 840.446455207 21.9662430094 843.716302448 24.5003735243 850.247812383 30.5739144827 c 0
 857.425045914 37.2479029246 865.819985335 46.0457267897 873.070441825 54.5973723219 c 0
 945.824148915 143.32516293 982.92445043 253.678877766 982.924450925 363.713775637 c 0
 982.924450925 455.019076825 957.398341193 546.058328616 905.815490885 624.255734669 c 0
 859.321206429 693.67870735 844.532234072 703.75 827.720703125 703.75 c 0
296.659228235 565.928372836 m 0
 290.168879547 565.928372836 281.064203998 562.139891377 268.582593707 549.034200571 c 0
 251.656404657 530.964350099 236.445800016 505.509101402 224.9626347 476.174771048 c 0
 210.615281217 439.523726215 202.51021938 397.572806456 202.51021938 359.377371968 c 0
 202.51021938 352.574528946 202.769524979 345.882054507 203.296710918 339.344948872 c 0
 206.562520618 299.175489555 221.957656559 251.710327978 240.972789046 215.67798523 c 0
 249.425772341 199.660174598 258.382306749 186.277144928 266.864724432 176.852381982 c 0
 272.779206048 170.280837257 277.525438904 166.336078134 281.673455574 164.226163363 c 0
 284.978122648 162.545223669 288.316433344 161.501190712 293.962762804 161.501190712 c 0
 305.820592203 161.501190712 317.738462223 168.936516372 323.264359249 182.060521809 c 0
 326.009915608 188.581218161 326.468182542 190.851722656 326.468182542 193.11804595 c 0
 326.468182542 195.157726639 325.43709444 198.477637725 318.116310194 210.190892518 c 0
 283.866456434 265.67565561 265.788946119 315.305227203 265.788946119 364.551155982 c 0
 265.788946119 407.270154195 279.53993884 448.586151191 305.412904512 491.35103078 c 0
 314.040842246 505.92764141 319.735802003 516.594568237 323.017387918 524.775979653 c 0
 325.700724473 531.465880475 326.451166474 535.503312147 326.451166474 538.526057585 c 0
 326.451166188 542.626100997 323.86453975 547.481418931 316.21010875 555.307025015 c 0
 308.164208054 563.532855182 301.600832537 565.928372836 296.659228235 565.928372836 c 0
701.568220518 563.178672839 m 0
 697.059230857 563.178672839 691.888930343 561.89180113 686.239454553 558.753203468 c 0
 675.84027859 552.887001643 671.965499804 545.117725231 671.965499804 537.398983104 c 0
 671.965499804 531.299103558 674.094882658 523.523201479 679.89003228 514.079253946 c 0
 701.655136485 478.974247164 714.676865568 454.378220659 721.979511679 428.593104237 c 0
 727.777260572 408.121671288 729.595703125 387.546657361 729.595703125 362.5 c 0
 729.595703125 337.465237485 727.770173499 316.962132856 721.915219029 296.469792208 c 0
 714.539545551 270.654935037 701.366463454 245.804801947 679.276356482 209.68923023 c 0
 673.891397946 200.913742246 671.877246072 193.527388848 671.877246072 187.601912056 c 0
 671.877246097 178.774279083 676.835938809 170.549446201 689.030838351 163.581305903 c 0
 694.103525148 160.682783192 698.40046107 159.617733093 701.878052589 159.617733093 c 0
 711.345017739 159.617733093 724.555400831 167.227466533 744.140525568 194.791285137 c 0
 777.767394617 243.125949988 795.119742087 301.6041022 795.119742856 360.86978083 c 0
 795.119742856 406.907213644 784.717392964 453.557263253 763.622111833 496.529132225 c 0
 750.559706612 523.437686981 737.727211626 541.606922479 725.848130032 552.055450311 c 0
 716.56157153 560.223662997 708.414419788 563.178672839 701.568220518 563.178672839 c 0
498.970703125 454.375 m 0
 479.470968857 454.375 461.956359986 449.587686938 450.238778128 441.7759657 c 0
 437.9691358 433.596204148 428.504387193 424.760135182 421.673571147 414.718235357 c 0
 413.220985324 402.292191452 407.720703125 387.066838219 407.720703125 364.375 c 0
 407.720703125 346.383849711 410.393922471 333.593028838 414.487118456 323.5628868 c 0
 419.682129717 310.832809612 427.560534092 301.526401663 440.162735402 290.604493861 c 0
 448.098724643 283.726636518 456.034713884 276.848779176 463.970703125 269.970921834 c 1
 463.970703125 92.5 l 2
 463.970703125 40.5722220999 464.742455172 -9.07425976469 466.060818536 -44.7763902254 c 0
 466.694392188 -61.9339734848 467.415733703 -74.4466401912 468.276293086 -85.0111577145 c 0
 468.94386609 -93.206509291 469.038983908 -93.1166898136 469.715636878 -95.4985629446 c 0
 475.400875603 -115.511062629 488.518298464 -122.8125 498.970703125 -122.8125 c 0
 510.183325539 -122.8125 522.232760257 -114.915449749 528.444142709 -94.7610584455 c 0
 528.527159853 -94.4916884599 529.368767699 -88.5565589422 529.838825961 -82.8924755472 c 0
 530.598497104 -73.7386300469 531.294720743 -60.6420457837 531.880587714 -44.7763902254 c 0
 533.198951078 -9.07425976469 533.970703125 40.5722220999 533.970703125 92.5 c 2
 533.970703125 269.970921834 l 1
 542.051090023 276.969927612 550.122913501 283.97749681 558.208653774 290.971149213 c 0
 570.787696835 301.524496998 578.375649706 311.138525385 583.449917383 323.572547126 c 0
 587.546739213 333.611428587 590.220703125 346.403878331 590.220703125 364.375 c 0
 590.220703125 387.135244948 584.706740019 402.342786831 576.233358292 414.765368252 c 0
 569.282340572 424.956055554 559.635127743 433.648535551 547.256375795 442.076621983 c 0
 535.792690955 449.881684002 518.259619195 454.375 498.970703125 454.375 c 0
EndSplineSet
Validated: 524297
EndChar

StartChar: uniF031
Encoding: 61489 61489 39
Width: 1000
LayerCount: 2
Fore
SplineSet
341.680947172 733.077133226 m 0
 328.058259627 733.077133226 314.283275593 730.057167462 302.318630675 724.074845003 c 0
 289.010939023 717.30426504 268.705712885 700.349700054 247.803009985 678.705407953 c 0
 221.910505382 651.894285222 196.455730692 619.320394716 183.210785894 594.768789723 c 0
 158.250974126 547.82057235 140 475.133709257 140 425 c 0
 140 374.848623131 158.295540295 302.09619091 183.253780236 255.150930068 c 0
 203.376315981 216.853200746 272.315631053 144.218554115 304.115307459 121.740687029 c 0
 312.475695558 115.974314552 320.836083657 110.207942075 329.196471756 104.441569598 c 1
 325.577921488 39.6695197954 319.24913094 -49.0798350307 319.24913094 -107.906234939 c 0
 319.24913094 -118.588407168 319.511030276 -125.780438054 319.939051007 -132.246401114 c 0
 320.267328942 -137.205583808 319.976148049 -135.076726293 320.380835883 -136.209852229 c 0
 323.96823752 -146.254576812 335.293335803 -153.476705427 347.431885938 -153.476705427 c 0
 358.352733178 -153.476704038 369.944896495 -146.415534829 374.071646846 -137.055193789 c 0
 375.759589859 -133.226582674 377.326088643 -127.234852265 378.880689438 -114.286848351 c 0
 381.623540881 -91.4421081766 389.77576023 53.7322624546 389.77576023 80.9810985861 c 0
 389.77576023 106.319686998 387.24303724 113.561517985 381.272286341 127.07427002 c 0
 375.231686144 140.802906829 361.239137762 158.211486627 349.647201873 166.827114652 c 0
 322.609005199 186.92307164 296.055488802 212.562862035 274.501802495 237.357324085 c 0
 257.195823546 257.265400699 243.16821946 276.008995611 234.555723481 294.227737105 c 0
 213.896557845 337.94829694 203.627702854 382.858395625 203.627702854 426.873888598 c 0
 203.627702854 502.423017147 233.55544589 575.099059371 291.894631107 632.480383032 c 2
 354.663021848 694.218189813 l 1
 355.686770545 657.363236728 356.741501029 621.79302516 357.626476398 584.641888956 c 0
 358.716412743 538.886521018 360.276322959 481.970300315 363.566541602 456.354729463 c 0
 365.692596542 439.802604247 368.776903808 428.982446623 373.226562495 420.532482744 c 0
 381.178343634 405.431939506 395.268245205 394.816052018 425.831786527 374.347039045 c 0
 449.333434353 358.562350207 460.327799423 352.109566207 470.138928721 349.108595133 c 0
 477.725278288 346.788126721 485.449576693 346.25 500 346.25 c 0
 514.128176977 346.25 521.917284268 346.893404728 529.348582099 349.155563669 c 0
 538.927878872 352.071594266 549.322897501 358.112685926 570.968620459 372.423034078 c 0
 583.524629027 380.915485014 596.791700225 391.034516105 607.341211573 400.449416247 c 0
 615.703194927 407.912057775 622.311929227 415.123873877 625.125121781 419.101736426 c 0
 637.095516397 436.560736357 638.2688917 438.546184689 641.256395413 546.69308726 c 2
 645.342700847 694.616342903 l 1
 707.479521875 632.479521875 l 2
 765.786328304 574.988195257 796.049643565 502.869862989 796.049643565 427.184210266 c 0
 796.049643565 381.369889374 784.996232294 334.554621042 762.872015295 289.077063876 c 0
 754.930913284 272.863980605 741.257854654 254.769251479 723.736118366 235.032164517 c 0
 702.095559252 210.655493727 675.587534436 185.176042682 649.89538811 166.490845354 c 0
 638.414578604 158.141165713 624.701727119 140.651528401 618.737088636 127.095531848 c 0
 612.767219378 113.584775108 610.22423977 106.332404902 610.22423977 80.9810985861 c 0
 610.22423977 53.7470870939 618.364806584 -91.3450562061 621.119310562 -114.286848351 c 0
 622.673911357 -127.234852265 624.240410141 -133.226582674 625.928353154 -137.055193789 c 0
 630.037640347 -146.375934332 641.606166631 -153.476705427 652.568114062 -153.476705427 c 0
 664.62519091 -153.476705427 675.569424166 -146.773427659 679.770106909 -135.801870169 c 1
 679.770106909 -135.801870169 680.05476393 -132.275209072 680.177190721 -130.52509346 c 0
 680.548472154 -125.217550683 680.75086906 -117.510579721 680.75086906 -107.906234939 c 0
 680.75086906 -48.9447202996 674.423377327 39.6459688949 670.803504415 104.442041225 c 1
 679.10775685 110.16911187 687.412009285 115.896182515 695.71626172 121.62325316 c 0
 727.645381113 144.192909355 796.505369571 216.628402166 816.712208734 255.086579926 c 0
 841.669279569 302.029641735 860 374.834663227 860 425 c 0
 860 475.127278196 841.731861036 547.256937722 816.709897821 594.917820037 c 0
 796.91114093 632.715446828 745.971487273 690.242721651 705.890163764 718.122801099 c 0
 696.367343814 724.746758161 690.060998992 727.867599637 684.900879626 729.429163862 c 0
 675.394225251 732.30608401 666.304556231 733.647890786 657.783545718 733.647890786 c 0
 627.886060724 733.647890457 602.468900788 717.194724239 588.016301833 685.006439319 c 0
 579.697230002 667.264677816 577.5 650.091403858 577.5 564.375 c 2
 577.5 454.782576274 l 1
 566.651577774 447.033703255 555.803155548 439.284830237 544.954733322 431.535957218 c 0
 534.912249517 424.250233673 527.595866073 419.807212031 520.688354479 416.574929291 c 0
 514.449899764 413.655723261 509.469860818 411.40625 500 411.40625 c 0
 489.721798554 411.40625 484.932001681 413.944125083 479.417019548 416.513042991 c 0
 467.872492253 421.890565925 449.240999726 435.682135331 437.188473037 444.290595899 c 2
 422.5 454.782736712 l 1
 422.5 564.375 l 2
 422.5 657.435460125 421.230894617 664.611492906 410.415559996 686.867494099 c 0
 402.785615684 700.75114506 391.155823633 715.269826667 384.108393296 721.121425027 c 0
 372.898183687 728.768226703 357.901318394 733.077133226 341.680947172 733.077133226 c 0
EndSplineSet
Validated: 524297
EndChar

StartChar: uniF032
Encoding: 61490 61490 40
Width: 1000
LayerCount: 2
Fore
SplineSet
390.702706473 -90.4442647595 m 0
 390.702706473 -84.8170390355 388.18322703 -78.2555488689 382.496704612 -71.0186449015 c 0
 376.994237394 -64.0159772047 380.134304612 -61.9185384512 295.084183215 -59.056703792 c 0
 255.298493889 -57.7179630261 215.441219448 -56.4437852557 175.635742188 -55.1429615991 c 1
 175.635742187 655.142950379 l 1
 215.440390217 656.44375587 255.269725705 657.717003096 295.057399421 659.055810764 c 0
 380.823323 661.941731588 376.690638002 663.846715289 382.807346377 671.408271505 c 0
 388.583784178 678.549180714 390.702706473 685.061109236 390.702706473 690.381713511 c 0
 390.702705841 696.728998238 387.359335432 703.939437887 379.756886338 711.544897026 c 0
 376.075631032 715.22779676 374.719686551 716.426218149 372.789307501 717.528522931 c 0
 371.615483013 718.198812193 369.356605823 719.141213029 365.782923417 719.850628891 c 0
 355.64409442 721.86329966 335.635871439 722.502368217 293.015743056 722.502368217 c 2
 276.890982092 722.502368217 l 2
 233.979382621 722.502368217 207.329772194 721.697161986 190.434546323 719.846291802 c 0
 176.451581123 718.314459359 170.430717534 716.258194377 165.976798726 714.023468463 c 0
 157.097871649 709.568522316 142.801541314 699.810609164 135.804665716 693.351954766 c 0
 126.901489452 685.148136478 122.305513943 680.66353895 119.009045601 670.658820535 c 0
 114.18585217 656.020520659 111.227117664 627.509137321 109.926421305 564.284585994 c 0
 108.77096161 508.119732291 108.761260848 425.224627685 108.761260848 301.143435389 c 2
 108.739108034 198.915961278 l 2
 108.739108034 44.7885966697 109.587100269 -24.0654964743 116.083269263 -57.33078206 c 0
 118.34937433 -68.9349494245 121.173999263 -75.7502112449 124.239281839 -80.5325162001 c 0
 128.120724401 -86.5881543123 134.222469539 -91.7103506776 143.111862588 -98.8441820816 c 0
 151.653395768 -105.698852283 160.339402074 -112.567084672 169.080065425 -119.467019205 c 1
 368.912360387 -123.014338051 l 1
 380.031220312 -111.895478125 l 2
 387.895905807 -104.03079263 390.702706473 -96.5715988423 390.702706473 -90.4442647595 c 0
658.760742188 535 m 0
 652.404999435 535 640.00178678 531.143770839 635.466829833 528.30597318 c 0
 628.355199355 522.788020679 623.896971984 513.51850015 623.896971984 503.782048674 c 0
 623.896971984 495.271454318 626.567859553 492.028372297 630.161862821 487.545044022 c 0
 633.317526127 483.60852158 637.986060722 478.171010093 643.740513507 471.730521569 c 0
 664.040091213 449.010863915 698.356509128 414.068501628 723.803518417 388.371914427 c 2
 782.846355442 328.75 l 1
 549.947566574 328.75 l 2
 472.291608958 328.75 427.841789989 328.69489022 402.092876881 327.557673481 c 0
 382.749462737 326.703359581 375.899956222 325.38963152 372.238208141 323.933222903 c 0
 371.51579103 323.645891694 369.227105841 321.968077332 367.361392157 319.915792281 c 0
 361.341895084 313.408227876 358.752313892 306.284197948 358.752313892 299.833709057 c 0
 358.752313892 289.095405369 365.995695947 276.705665243 382.854077147 270.268828785 c 1
 395.487141694 268.314779329 407.571032068 267.853669148 427.092053188 267.088816197 c 0
 460.683268835 265.772679083 509.666212932 265 567.510742188 265 c 2
 776.583794892 265 l 1
 716.140140394 203.933215043 l 2
 690.850746053 178.384152818 659.488599067 146.378252053 639.918958708 124.269229979 c 0
 630.574843919 113.71261083 627.539519759 109.568553371 626.414978159 107.396592823 c 0
 624.256677945 103.228011672 623.329283454 99.0318624935 623.329283454 95.2051960627 c 0
 623.329283454 80.7161561977 636.866482136 65 658.760742188 65 c 0
 660.257212095 65 664.459621276 65.3242587375 679.355915878 77.4432780741 c 0
 697.299774148 92.0416712428 727.519492947 121.21779451 781.281220312 174.979521875 c 0
 838.555549398 232.25385096 867.353804681 261.756361867 880.737773174 278.7054053 c 0
 886.090522616 285.483961514 888.715764141 289.534948463 889.846433271 292.202046493 c 0
 890.748302334 294.329435609 891.260742188 296.06031439 891.260742188 300 c 0
 891.260742188 303.998884307 890.745114917 305.71388542 889.856621511 307.809425228 c 0
 888.742577928 310.436932263 886.129468846 314.466718186 880.737773174 321.2945947 c 0
 867.353804681 338.243638133 838.555549398 367.74614904 781.281220312 425.020478125 c 0
 727.519492947 478.78220549 697.299774148 507.958328757 679.355915878 522.556721926 c 0
 664.459621276 534.675741263 660.257212095 535 658.760742188 535 c 0
EndSplineSet
Validated: 524297
EndChar

